<svg id="add-circle_bold" data-name="add-circle/bold" xmlns="http://www.w3.org/2000/svg" xmlns:xlink="http://www.w3.org/1999/xlink" width="42" height="42" viewBox="0 0 42 42">
  <defs>
    <linearGradient id="linear-gradient" y1="0.163" x2="1" y2="1" gradientUnits="objectBoundingBox">
      <stop offset="0" stop-color="#4497ad"/>
      <stop offset="1" stop-color="#538a99"/>
    </linearGradient>
  </defs>
  <g id="vuesax_bold_add-circle" data-name="vuesax/bold/add-circle">
    <g id="add-circle">
      <path id="Vector" d="M19,0A19,19,0,1,0,38,19,19.031,19.031,0,0,0,19,0Zm7.6,20.425H20.425V26.6a1.425,1.425,0,1,1-2.85,0V20.425H11.4a1.425,1.425,0,1,1,0-2.85h6.175V11.4a1.425,1.425,0,1,1,2.85,0v6.175H26.6a1.425,1.425,0,1,1,0,2.85Z" transform="translate(2 2)" fill="url(#linear-gradient)"/>
      <path id="Vector-2" data-name="Vector" d="M0,0H42V42H0Z" transform="translate(42 42) rotate(180)" fill="none" opacity="0"/>
    </g>
  </g>
</svg>
