<svg xmlns="http://www.w3.org/2000/svg" width="176.085" height="162.228" viewBox="0 0 176.085 162.228">
  <g id="Feeling_sorry-cuate" data-name="Feeling sorry-cuate" transform="translate(-30.67 -48.57)">
    <g id="freepik--background-complete--inject-5" transform="translate(36.001 48.57)">
      <rect id="Rectangle_10928" data-name="Rectangle 10928" width="10.629" height="4.492" transform="translate(159.495 120.039) rotate(180)" fill="#ebebeb"/>
      <rect id="Rectangle_10929" data-name="Rectangle 10929" width="10.629" height="4.492" transform="translate(165.423 125.703) rotate(180)" fill="#ebebeb"/>
      <rect id="Rectangle_10930" data-name="Rectangle 10930" width="10.629" height="4.492" transform="translate(153.562 125.703) rotate(180)" fill="#ebebeb"/>
      <rect id="Rectangle_10931" data-name="Rectangle 10931" width="10.629" height="4.492" transform="translate(16.558 125.703) rotate(180)" fill="#ebebeb"/>
      <rect id="Rectangle_10932" data-name="Rectangle 10932" width="10.629" height="4.492" transform="translate(16.558 4.492) rotate(180)" fill="#ebebeb"/>
      <rect id="Rectangle_10933" data-name="Rectangle 10933" width="10.629" height="4.492" transform="translate(10.629 10.156) rotate(180)" fill="#ebebeb"/>
      <rect id="Rectangle_10934" data-name="Rectangle 10934" width="10.629" height="4.492" transform="translate(165.423 4.496) rotate(180)" fill="#ebebeb"/>
      <rect id="Rectangle_10935" data-name="Rectangle 10935" width="10.629" height="4.492" transform="translate(125.503 53.453)" fill="#ebebeb"/>
      <rect id="Rectangle_10936" data-name="Rectangle 10936" width="10.629" height="4.492" transform="translate(119.574 47.789)" fill="#ebebeb"/>
      <path id="Path_97111" data-name="Path 97111" d="M68.53,77.65h70.537v98.507H68.53Zm68.429,2.091H70.621v94.333h66.338Z" transform="translate(-58.663 -65.977)" fill="#ebebeb"/>
      <rect id="Rectangle_10937" data-name="Rectangle 10937" width="2.091" height="94.818" transform="translate(44.088 14.314)" fill="#ebebeb"/>
      <rect id="Rectangle_10938" data-name="Rectangle 10938" width="74.334" height="2.914" transform="translate(82.302 18.818) rotate(180)" fill="#ebebeb"/>
      <rect id="Rectangle_10939" data-name="Rectangle 10939" width="74.334" height="2.914" transform="translate(82.302 22.098) rotate(180)" fill="#ebebeb"/>
      <rect id="Rectangle_10940" data-name="Rectangle 10940" width="74.334" height="2.914" transform="translate(82.302 25.378) rotate(180)" fill="#ebebeb"/>
      <rect id="Rectangle_10941" data-name="Rectangle 10941" width="74.334" height="2.914" transform="translate(82.302 28.653) rotate(180)" fill="#ebebeb"/>
      <rect id="Rectangle_10942" data-name="Rectangle 10942" width="74.334" height="2.914" transform="translate(82.302 31.937) rotate(180)" fill="#ebebeb"/>
      <rect id="Rectangle_10943" data-name="Rectangle 10943" width="74.334" height="2.914" transform="translate(82.302 35.216) rotate(180)" fill="#ebebeb"/>
      <rect id="Rectangle_10944" data-name="Rectangle 10944" width="74.334" height="2.914" transform="translate(82.302 38.492) rotate(180)" fill="#ebebeb"/>
      <rect id="Rectangle_10945" data-name="Rectangle 10945" width="74.334" height="2.914" transform="translate(82.302 41.771) rotate(180)" fill="#ebebeb"/>
      <rect id="Rectangle_10946" data-name="Rectangle 10946" width="74.334" height="2.914" transform="translate(82.302 45.051) rotate(180)" fill="#ebebeb"/>
      <rect id="Rectangle_10947" data-name="Rectangle 10947" width="0.522" height="56.716" transform="translate(14.182 15.314)" fill="#263238"/>
      <path id="Path_97112" data-name="Path 97112" d="M77.62,230.1h1.859l-.466-2.669h-.927Z" transform="translate(-64.104 -155.633)" fill="#263238"/>
      <rect id="Rectangle_10948" data-name="Rectangle 10948" width="0.522" height="71.023" transform="translate(12.299 15.314)" fill="#263238"/>
      <path id="Path_97113" data-name="Path 97113" d="M72.92,264.559h1.859l-.466-2.669h-.927Z" transform="translate(-61.291 -176.26)" fill="#263238"/>
      <rect id="Rectangle_10949" data-name="Rectangle 10949" width="80.833" height="6.098" transform="translate(85.55 17.361) rotate(180)" fill="#dbdbdb"/>
      <circle id="Ellipse_3772" data-name="Ellipse 3772" cx="15.093" cy="15.093" r="15.093" transform="matrix(0.855, -0.519, 0.519, 0.855, 124.871, 21.287)" fill="#ebebeb"/>
      <circle id="Ellipse_3773" data-name="Ellipse 3773" cx="14.403" cy="14.403" r="14.403" transform="matrix(0.814, -0.58, 0.58, 0.814, 126.22, 23.325)" fill="#dbdbdb"/>
      <circle id="Ellipse_3774" data-name="Ellipse 3774" cx="13.492" cy="13.492" r="13.492" transform="matrix(0.814, -0.581, 0.581, 0.814, 127.49, 23.546)" fill="#fff"/>
      <path id="Path_97114" data-name="Path 97114" d="M403.134,94.394c-6.146,3.721-16.241,9.827-21.885,13.174a13.515,13.515,0,0,1-3.689-4.957l18.666-17.3a13.524,13.524,0,0,1,6.908,9.084Z" transform="translate(-243.644 -70.562)" fill="#ebebeb" opacity="0.5"/>
      <path id="Path_97115" data-name="Path 97115" d="M412.412,116.24a13.248,13.248,0,0,1-.891,4.383l-16.827,7.964a13.13,13.13,0,0,1-2.123-.915C397.652,124.734,406.941,119.387,412.412,116.24Z" transform="translate(-252.628 -89.076)" fill="#ebebeb" opacity="0.5"/>
      <rect id="Rectangle_10950" data-name="Rectangle 10950" width="0.261" height="2.043" transform="translate(146.172 14.182)" fill="#c7c7c7"/>
      <rect id="Rectangle_10951" data-name="Rectangle 10951" width="0.261" height="2.043" transform="translate(139.93 15.915) rotate(-30)" fill="#c7c7c7"/>
      <rect id="Rectangle_10952" data-name="Rectangle 10952" width="0.261" height="2.043" transform="translate(135.395 20.547) rotate(-60)" fill="#c7c7c7"/>
      <rect id="Rectangle_10953" data-name="Rectangle 10953" width="2.043" height="0.261" transform="translate(133.792 26.562)" fill="#c7c7c7"/>
      <rect id="Rectangle_10954" data-name="Rectangle 10954" width="2.043" height="0.261" transform="matrix(0.866, -0.5, 0.5, 0.866, 135.4, 32.825)" fill="#c7c7c7"/>
      <rect id="Rectangle_10955" data-name="Rectangle 10955" width="2.043" height="0.261" transform="translate(139.939 37.47) rotate(-60.02)" fill="#c7c7c7"/>
      <rect id="Rectangle_10956" data-name="Rectangle 10956" width="0.261" height="2.043" transform="translate(146.172 37.163)" fill="#c7c7c7"/>
      <rect id="Rectangle_10957" data-name="Rectangle 10957" width="0.261" height="2.043" transform="translate(151.421 35.82) rotate(-30)" fill="#c7c7c7"/>
      <rect id="Rectangle_10958" data-name="Rectangle 10958" width="0.261" height="2.043" transform="translate(155.309 32.047) rotate(-59.99)" fill="#c7c7c7"/>
      <rect id="Rectangle_10959" data-name="Rectangle 10959" width="2.043" height="0.261" transform="translate(156.769 26.562)" fill="#c7c7c7"/>
      <rect id="Rectangle_10960" data-name="Rectangle 10960" width="2.043" height="0.261" transform="matrix(0.866, -0.5, 0.5, 0.866, 155.305, 21.351)" fill="#c7c7c7"/>
      <rect id="Rectangle_10961" data-name="Rectangle 10961" width="2.043" height="0.261" transform="translate(151.428 17.569) rotate(-60.03)" fill="#c7c7c7"/>
      <path id="Path_97116" data-name="Path 97116" d="M407.655,86.194l.446,12.5-1.281-.016.49-12.488Z" transform="translate(-261.158 -71.089)" fill="#c7c7c7"/>
      <path id="Path_97117" data-name="Path 97117" d="M414.85,103.755l-8.41,5.367L405.83,108l8.851-4.548Z" transform="translate(-260.566 -81.42)" fill="#a6a6a6"/>
      <path id="Path_97118" data-name="Path 97118" d="M408.2,114.418a.434.434,0,1,1-.126-.309A.438.438,0,0,1,408.2,114.418Z" transform="translate(-261.458 -87.723)" fill="#c7c7c7"/>
    </g>
    <g id="freepik--Plant--inject-5" transform="translate(157.108 140.217)">
      <path id="Path_97119" data-name="Path 97119" d="M423.174,309.736c-1.738-1.7-3.978-3.753-6.631-3.023-2.5.69-3.452,3.416-3.9,5.688-.574,2.926-1.024,5.881-1.489,8.831s-.907,5.957-1.337,8.935q-.361,2.521-.714,5.05-.181,1.256-.353,2.525c-.112.8-.253,1.65-.3,2.481a.236.236,0,0,0,.462.052c.321-1.4.454-2.862.658-4.287s.4-2.866.626-4.3c.4-2.846.847-5.688,1.272-8.534s.875-5.688,1.329-8.53c.4-2.409.566-5.4,2.7-6.993a4.132,4.132,0,0,1,3.994-.373,11.677,11.677,0,0,1,3.613,2.537.046.046,0,0,0,.068-.06Z" transform="translate(-383.241 -294.647)" fill="#263238"/>
      <path id="Path_97120" data-name="Path 97120" d="M430.545,302.661s-3.549-1.276-5.3,1.313.341,9.176,16.494,12.889a45.549,45.549,0,0,0-3.886-14.6C434.39,294.713,428.221,297.571,430.545,302.661Z" transform="translate(-392.988 -289.309)" fill="#ea914e"/>
      <path id="Path_97121" data-name="Path 97121" d="M446.707,322.884a12.909,12.909,0,0,0-.8-1.309l-.8-1.244-.634-.927a1.565,1.565,0,0,1,.032-.229,3.775,3.775,0,0,1,.052-.421c.04-.3.084-.6.128-.907s.1-.6.153-.9a4.733,4.733,0,0,1,.213-.951c.02-.048-.064-.072-.072,0a3.5,3.5,0,0,1-.144.534l-.108.4c-.076.305-.152.614-.221.923s-.116.57-.165.855c-.024.14-.044.277-.064.4-.289-.4-.582-.8-.883-1.2-.859-1.132-1.766-2.22-2.706-3.28V314.6a31.224,31.224,0,0,1,.4-5.05c0-.044-.056-.068-.068-.024a17.365,17.365,0,0,0-.6,4.817q-.506-.566-1.024-1.12c-.8-.843-1.586-1.678-2.409-2.493-.032-.032-.084,0-.052.048,1.361,1.465,2.653,2.995,3.91,4.548a27.841,27.841,0,0,0-2.95.108c-1.1.08-2.184.221-3.271.369a.036.036,0,1,0,0,.072,31.874,31.874,0,0,1,3.268-.293c1.056-.044,2.1,0,3.155,0,.678.847,1.353,1.694,2.007,2.553h-.891c-.49,0-.983.044-1.473.084a22.077,22.077,0,0,0-2.982.446.036.036,0,0,0,0,.072c.992-.112,1.987-.2,2.987-.241h2.172a.9.9,0,0,0,.4-.036c.434.566.871,1.128,1.3,1.694.341.454.682.907,1.012,1.369s.646.979,1.024,1.417a.063.063,0,1,0,.112-.056Z" transform="translate(-398.882 -296.406)" fill="#263238"/>
      <path id="Path_97122" data-name="Path 97122" d="M437.852,319.151a10.787,10.787,0,0,0-1.726-.08c-.578,0-1.156,0-1.73.036a.036.036,0,0,0,0,.072c.582-.044,1.168-.052,1.754-.044s1.132.06,1.694.048Z" transform="translate(-398.75 -302.131)" fill="#263238"/>
      <path id="Path_97123" data-name="Path 97123" d="M455.294,320.016c.064-.554.137-1.108.253-1.65a.036.036,0,0,0-.072,0c-.08.546-.189,1.084-.269,1.626q-.06.4-.108.8a3.824,3.824,0,0,0-.068.771c0,.048.084.052.1,0a4.865,4.865,0,0,0,.084-.767Q455.246,320.407,455.294,320.016Z" transform="translate(-411.123 -301.691)" fill="#263238"/>
      <path id="Path_97124" data-name="Path 97124" d="M452.121,307.264c-.141.538-.281,1.08-.4,1.626-.048.277-.092.558-.128.835a3.517,3.517,0,0,0-.056.8h.044a5.034,5.034,0,0,0,.128-.775q.052-.4.12-.8c.1-.562.2-1.12.341-1.674C452.217,307.244,452.149,307.22,452.121,307.264Z" transform="translate(-409.029 -295.052)" fill="#263238"/>
      <path id="Path_97125" data-name="Path 97125" d="M388.786,359.664c-.088-1.02-.189-2.035-.293-3.051q-.321-3.015-.731-6.021c-.269-2.007-.526-4.014-.847-5.993a14.6,14.6,0,0,0-.614-2.722,2.581,2.581,0,0,0-1.509-1.7c-1.9-.658-3.183,1.313-3.95,2.71-.024.04.04.072.064.032.462-.658,1.73-2.513,3.171-2.429.971.06,1.746.747,2.212,3.167,1.16,6.021,2.208,18.256,2.328,19.055.064.426.365.4.365-.048C388.991,361.659,388.874,360.659,388.786,359.664Z" transform="translate(-366.712 -314.689)" fill="#263238"/>
      <path id="Path_97126" data-name="Path 97126" d="M369.7,339.641s1.662-5.865-2.007-2.934c-6.114,4.881-6.33,15.5-6.33,15.5s10.866-6.31,12.219-10.473C375.586,335.531,369.7,339.641,369.7,339.641Z" transform="translate(-355.054 -312.2)" fill="#ea914e"/>
      <path id="Path_97127" data-name="Path 97127" d="M372.793,346.98c-.851.173-1.718.285-2.577.4l-1.224.173c-.273.036-.554.064-.831.1.8-1.112,1.626-2.224,2.409-3.36.032-.044-.036-.092-.072-.056a26.618,26.618,0,0,0-1.814,2.1l-.482-1.361a12.7,12.7,0,0,1-.518-1.606c0-.044-.08-.024-.068.024.149.538.253,1.084.4,1.606s.3,1.036.482,1.541c-.4.518-.783,1.048-1.152,1.582-.189-.53-.4-1.044-.582-1.582a.038.038,0,0,0-.072.024c.2.594.3,1.2.486,1.81-.253.365-.5.731-.739,1.1-.438.678-.851,1.369-1.256,2.067a.153.153,0,0,0-.1.161c-.686,1.2-1.341,2.409-1.983,3.613a.037.037,0,1,0,.064.036c.646-1.2,1.361-2.368,2.107-3.516h0a1.877,1.877,0,0,1,.357-.068l.373-.08c.281-.06.558-.132.839-.2.55-.136,1.1-.265,1.658-.361.044,0,.024-.08-.024-.072-.658.128-1.317.2-1.983.277-.313.036-.626.076-.935.128h-.048q.6-.891,1.2-1.766c.4-.582.8-1.14,1.2-1.7.377-.056.751-.153,1.124-.225l1.264-.245c.839-.169,1.678-.357,2.521-.5C372.861,347.044,372.841,346.972,372.793,346.98Z" transform="translate(-356.094 -316.661)" fill="#263238"/>
      <path id="Path_97128" data-name="Path 97128" d="M370.3,351.65l-.145-.466a8.4,8.4,0,0,1-.249-.983c0-.048-.08-.024-.072.02.072.333.149.662.225.991a6.319,6.319,0,0,0,.285.975c.032.076.149.044.124-.036C370.417,351.983,370.353,351.818,370.3,351.65Z" transform="translate(-360.129 -320.752)" fill="#263238"/>
      <path id="Path_97129" data-name="Path 97129" d="M385.515,349c-.494.072-1,.108-1.493.153s-1,.112-1.493.189a.022.022,0,0,0,0,.044c.5-.036,1-.076,1.493-.141s1-.141,1.5-.173C385.571,349.08,385.567,349,385.515,349Z" transform="translate(-367.712 -320.049)" fill="#263238"/>
      <path id="Path_97130" data-name="Path 97130" d="M392.073,323.022c-.193-4.319-.466-8.63-.9-12.934-.217-2.144-.458-4.283-.759-6.423a46.073,46.073,0,0,0-1.24-6.21,11.846,11.846,0,0,0-2.067-4.375,4.684,4.684,0,0,0-4.175-1.822,8.455,8.455,0,0,0-4.729,2.718c-1.477,1.453-2.81,3.035-4.195,4.588-.345.4-.69.8-1.032,1.184-.028.036.024.088.052.052,1.341-1.537,2.73-3.031,4.183-4.456,1.345-1.321,2.726-2.762,4.588-3.308a4.745,4.745,0,0,1,2.665-.06,4.223,4.223,0,0,1,1.822,1.152,9.592,9.592,0,0,1,2.055,3.994,69.182,69.182,0,0,1,2.007,12.231c.438,4.167.735,8.341.943,12.524s.373,8.43.779,12.6c.052.518.116,1.036.185,1.549.044.349.582.349.554,0C392.467,331.684,392.27,327.361,392.073,323.022Z" transform="translate(-362.003 -285.473)" fill="#263238"/>
      <path id="Path_97131" data-name="Path 97131" d="M361.614,290.066s2.469-4.564-.446-6.021-12.669,9.421-15.519,25.341c0,0,15.752-6.969,21.1-13.913S366.038,287,361.614,290.066Z" transform="translate(-345.65 -281.09)" fill="#ea914e"/>
      <path id="Path_97132" data-name="Path 97132" d="M367.6,301.668c-1.77,0-3.536-.133-5.307-.12.333-.381.662-.763,1-1.14a15.958,15.958,0,0,0,1.381-1.606c.028-.036-.028-.088-.064-.06a12.816,12.816,0,0,0-1.337,1.345q-.67.7-1.325,1.421c-.678.731-1.341,1.473-2.007,2.22v-1.144c0-.6,0-1.2.02-1.8,0-1.2,0-2.441.092-3.653,0-.048-.068-.044-.072,0-.084,1.2-.213,2.437-.273,3.661-.028.6-.044,1.2-.048,1.8v1.449l-.313.349c-1.413,1.606-2.758,3.284-4.062,4.982a1.109,1.109,0,0,0-.024-.281,4.463,4.463,0,0,0-.064-.562c-.044-.4-.1-.8-.161-1.2s-.116-.759-.181-1.136-.177-.855-.209-1.289a.036.036,0,1,0-.072,0,10.87,10.87,0,0,1,.149,1.3l.108,1.168c.036.4.072.783.112,1.172a5.434,5.434,0,0,0,.056.562,2.315,2.315,0,0,0,.032.281.53.53,0,0,0,.076.221l-.674.879c-.891,1.184-1.77,2.38-2.645,3.573-.028.036.024.088.052.048.831-1.08,1.686-2.144,2.553-3.211.646.028,1.309-.02,1.955-.028s1.365,0,2.051-.02a.036.036,0,0,0,0-.072c-.682,0-1.365.024-2.047.024s-1.26-.028-1.883,0q1.144-1.393,2.3-2.766l.847-1a3.987,3.987,0,0,0,.8.024h.931l1.746-.024c1.2-.02,2.409-.06,3.613-.06a.04.04,0,0,0,0-.076c-1.2,0-2.408-.064-3.613-.1-.582,0-1.164-.032-1.746-.04h-1.469l1.983-2.352a.088.088,0,0,0,.036-.04c.646-.763,1.293-1.525,1.943-2.28l.273-.309c1.834.056,3.665-.064,5.5-.028C367.648,301.745,367.648,301.668,367.6,301.668Z" transform="translate(-349.319 -288.979)" fill="#263238"/>
      <path id="Path_97133" data-name="Path 97133" d="M388.248,316.29h-.426a.032.032,0,1,0,0,.064h.43C388.3,316.362,388.3,316.29,388.248,316.29Z" transform="translate(-370.874 -300.47)" fill="#263238"/>
      <path id="Path_97134" data-name="Path 97134" d="M381.527,316.171c-.566,0-1.136-.02-1.7-.036l-.851-.024a3.063,3.063,0,0,0-.8,0c-.028,0-.024.044,0,.052a3.108,3.108,0,0,0,.8.056h2.549a.036.036,0,1,0,0-.048Z" transform="translate(-365.105 -300.346)" fill="#263238"/>
      <path id="Path_97135" data-name="Path 97135" d="M369.017,329.077a23.562,23.562,0,0,0-3.48-.317c-.02,0,0,.024,0,.028,1.156.108,2.316.173,3.464.357C369.049,329.153,369.065,329.081,369.017,329.077Z" transform="translate(-357.549 -307.934)" fill="#263238"/>
      <path id="Path_97136" data-name="Path 97136" d="M361.777,313.482l-.036-.305c-.032-.225-.068-.454-.1-.682-.064-.429-.141-.863-.225-1.293,0-.04-.076-.028-.072,0q.084.67.145,1.337c.02.221.036.438.056.658a1.9,1.9,0,0,0,.088.622.084.084,0,0,0,.153-.02A.827.827,0,0,0,361.777,313.482Z" transform="translate(-355.042 -297.408)" fill="#263238"/>
      <path id="Path_97137" data-name="Path 97137" d="M410.878,281.132c-.566-1.048-1.285-2.437-2.689-2.348-1.164.072-1.686,1.26-1.935,2.24a47.284,47.284,0,0,0-.971,9.337c-.313,6.563-.6,13.138-.642,19.709v5.467c.02,1.859,0,3.729.132,5.584a.136.136,0,0,0,.273,0c0-1.606-.048-3.179-.052-4.769s0-3.1.032-4.652q.072-4.717.249-9.425.175-4.685.4-9.361c.068-1.562.132-3.119.2-4.681s.132-3.023.305-4.524a25.174,25.174,0,0,1,.4-2.513,3.5,3.5,0,0,1,.727-1.686,1.606,1.606,0,0,1,2.051-.148,4.344,4.344,0,0,1,1.457,1.818C410.838,281.213,410.9,281.176,410.878,281.132Z" transform="translate(-380.96 -278.017)" fill="#263238"/>
      <path id="Path_97138" data-name="Path 97138" d="M414.772,279.492s-1.16-4.082,1.4-2.043c4.255,3.4,4.416,10.8,4.416,10.8s-7.571-4.416-8.51-7.3C410.666,276.634,414.772,279.492,414.772,279.492Z" transform="translate(-385.236 -276.879)" fill="#ea914e"/>
      <path id="Path_97139" data-name="Path 97139" d="M421.786,289.586c-.068-.112-.141-.221-.213-.333a2.526,2.526,0,0,0,0-.349v-.53c0-.345.02-.686.04-1.032a.04.04,0,0,0-.076,0c0,.337-.028.678-.04,1.016v.727c-.3-.462-.6-.919-.915-1.365-.092-.132-.189-.261-.281-.4a7.769,7.769,0,0,1-.024-1.333c0-.474,0-.951.028-1.425a.036.036,0,0,0-.072,0c0,.494-.04.987-.064,1.481a10.258,10.258,0,0,0-.028,1.056c-.731-1-1.505-1.955-2.292-2.906a.036.036,0,0,0-.056.044c.486.618.951,1.248,1.409,1.887-.891-.209-1.794-.329-2.7-.458-.044,0-.064.064,0,.068.955.149,1.9.4,2.842.594h.02c.361.51.723,1.024,1.076,1.537l.43.63h-.04l-.293-.04c-.209-.024-.421-.04-.63-.056-.437-.036-.875-.06-1.313-.084-.044,0-.044.072,0,.076a11.438,11.438,0,0,1,1.285.088l.678.08.3.036h.084l.727,1.072c.43.63.8,1.309,1.268,1.919a.033.033,0,1,0,.056-.036A19.654,19.654,0,0,0,421.786,289.586Z" transform="translate(-388.034 -281.248)" fill="#263238"/>
      <path id="Path_97140" data-name="Path 97140" d="M424.859,283.884v-.474a6.425,6.425,0,0,1,.04-1c0-.052-.072-.06-.072,0,0,.333-.036.662-.052.991v.727a.671.671,0,0,0,0,.237.032.032,0,1,0,.064,0,.673.673,0,0,0,0-.221Z" transform="translate(-393.006 -280.163)" fill="#263238"/>
      <path id="Path_97141" data-name="Path 97141" d="M419.986,290.1c-.281-.048-.57-.064-.855-.088s-.622-.052-.935-.092a.036.036,0,1,0,0,.072c.6.036,1.2.144,1.79.165C420.011,290.161,420.019,290.1,419.986,290.1Z" transform="translate(-389.053 -284.685)" fill="#263238"/>
      <path id="Path_97142" data-name="Path 97142" d="M428.606,290.38c.024.032,0,.12,0,.157v.706a.647.647,0,0,0,0,.249h.028a.253.253,0,0,0,0-.12V290.4C428.634,290.364,428.558,290.312,428.606,290.38Z" transform="translate(-395.297 -284.94)" fill="#263238"/>
      <path id="Path_97143" data-name="Path 97143" d="M401.214,334.531c-1.606-1.2-3.019-2.91-5.162-2.995-1.766-.068-3.007,1.26-3.713,2.742a15.476,15.476,0,0,0-.867,2.441q-.474,1.682-.9,3.372-.839,3.328-1.421,6.716c-.213,1.256-.4,2.517-.574,3.781a31.442,31.442,0,0,0-.369,3.878.2.2,0,1,0,.4.044c.217-1.06.305-2.152.462-3.211s.321-2.152.5-3.211c.365-2.144.8-4.279,1.268-6.4.458-2.007.907-4.038,1.553-5.989.462-1.4,1.2-3.027,2.714-3.532,2.3-.763,4.383,1.18,6.065,2.445C401.2,334.6,401.254,334.531,401.214,334.531Z" transform="translate(-371.124 -309.594)" fill="#263238"/>
      <path id="Path_97144" data-name="Path 97144" d="M408.284,328.472s-1.465-4.191.654-5.014c3.183-1.232,11.509,8.145,9.879,22.511a82.5,82.5,0,0,1-11.183-7.527c-4.761-3.986-5.977-9.213-3.874-10.541S408.284,328.472,408.284,328.472Z" transform="translate(-379.84 -304.695)" fill="#ea914e"/>
      <path id="Path_97145" data-name="Path 97145" d="M424.211,349.449a10.939,10.939,0,0,0-.775-1.449c-.269-.49-.546-.979-.831-1.465-.55-.947-1.1-1.895-1.666-2.81l-.281-.454a.845.845,0,0,1,.036-.169l.1-.4c.068-.309.124-.626.181-.939.116-.614.225-1.24.4-1.842,0-.044-.06-.06-.072,0-.132.614-.325,1.2-.506,1.818-.088.3-.185.594-.265.891-.024.1-.052.2-.08.309-.682-1.12-1.377-2.236-2.128-3.316a1.425,1.425,0,0,0,.072-.462l.072-.626c.056-.474.112-.947.181-1.417a27.691,27.691,0,0,1,.506-2.754c0-.044-.06-.056-.072,0-.229.9-.478,1.81-.65,2.726-.084.45-.165.9-.225,1.357-.028.225-.052.454-.076.682a1.915,1.915,0,0,1-.028.2c-.229-.325-.462-.65-.7-.967-.735-.967-1.5-1.911-2.264-2.85-.028-.036-.088,0-.06.04a50.547,50.547,0,0,1,3.613,5.283c.213.337.4.678.626,1.016l-.2-.024c-.269-.036-.542-.052-.8-.076q-.8-.076-1.626-.145c-1.084-.084-2.172-.153-3.251-.265-.048,0-.06.064,0,.068,1.1.128,2.184.3,3.276.458l1.606.217a6.2,6.2,0,0,0,1.236.128q.642,1.036,1.281,2.075a1.748,1.748,0,0,0-.289,0H416.9c-.048,0-.04.072,0,.072.706,0,1.409.044,2.115.08.337,0,.67.036,1.008.06.165,0,.333.028.5.036a1.091,1.091,0,0,0,.442,0l1.084,1.762q.5.8,1.016,1.606a12.622,12.622,0,0,0,1.092,1.638C424.171,349.529,424.227,349.509,424.211,349.449Z" transform="translate(-386.197 -311.266)" fill="#263238"/>
      <path id="Path_97146" data-name="Path 97146" d="M431.678,343.058a10.628,10.628,0,0,1-.289,1.369c-.12.466-.253.927-.4,1.381a.048.048,0,1,0,.088.028c.141-.454.269-.911.4-1.369s.181-.935.3-1.393C431.759,343.018,431.682,343.018,431.678,343.058Z" transform="translate(-396.727 -316.475)" fill="#263238"/>
      <path id="Path_97147" data-name="Path 97147" d="M414.266,349.178a.526.526,0,0,0-.349-.132l-.606-.084c-.377-.052-.755-.092-1.132-.136-.783-.092-1.57-.169-2.352-.265a.036.036,0,1,0,0,.072c.739.088,1.473.2,2.212.3.361.048.723.1,1.088.14l.522.06a1.87,1.87,0,0,1,.6.1.032.032,0,0,0,.02-.052Z" transform="translate(-384.043 -319.786)" fill="#263238"/>
      <path id="Path_97148" data-name="Path 97148" d="M429.205,365.722c-.369-.028-.743-.04-1.116-.052h-.831a1.451,1.451,0,0,1-.349-.02c-.052,0-.056.084,0,.072a1.506,1.506,0,0,1,.329,0h.293l.562.036c.369.02.743.044,1.112.044C429.246,365.79,429.25,365.726,429.205,365.722Z" transform="translate(-394.266 -330.016)" fill="#263238"/>
      <path id="Path_97149" data-name="Path 97149" d="M438.006,358.978l.12-.63.229-1.244a.036.036,0,1,0-.072,0c-.092.4-.185.8-.273,1.2q-.072.3-.132.6l-.06.281a.754.754,0,0,0-.032.3.045.045,0,0,0,.08.024,1.542,1.542,0,0,0,.141-.534Z" transform="translate(-400.799 -324.877)" fill="#263238"/>
      <path id="Path_97150" data-name="Path 97150" d="M384.08,384.6l.45,5.094,1.521,17.2h13.467l1.9-17.2.562-5.094Z" transform="translate(-368.654 -341.359)" fill="#455a64"/>
      <path id="Path_97151" data-name="Path 97151" d="M384.08,384.6l.45,5.094h16.888l.562-5.094Z" transform="translate(-368.654 -341.359)" fill="#263238"/>
      <rect id="Rectangle_10962" data-name="Rectangle 10962" width="20.569" height="4.131" transform="translate(34.662 45.987) rotate(180)" fill="#455a64"/>
    </g>
    <g id="freepik--Table--inject-5" transform="translate(30.67 205.495)">
      <path id="Path_97152" data-name="Path 97152" d="M30.67,439.7l22.01-.1,22.014-.036,44.019-.068,44.019.068,22.014.032,22.01.1-22.01.1-22.014.036-44.019.068-44.019-.068L52.68,439.8Z" transform="translate(-30.67 -439.5)" fill="#263238"/>
    </g>
    <g id="freepik--Character--inject-5" transform="translate(76.872 61.286)">
      <path id="Path_97153" data-name="Path 97153" d="M201.15,359.922v.1a.267.267,0,0,0,.02.108v.072a1.234,1.234,0,0,1,.028.157.231.231,0,0,0,.02.112,2.352,2.352,0,0,1,.048.265c.02.1.06.325.092.518l.181.979c.02.1.04.217.06.333s.056.313.088.478.064.369.1.566c.024.136.052.277.076.422.076.43.157.887.249,1.377a.117.117,0,0,1,0,.036c.1.546.2,1.132.313,1.746.028.161.06.321.092.482s.064.337.092.506h0a1.555,1.555,0,0,0,.06.321h0q.229,1.281.494,2.714c.06.321.116.646.177.975.116.642.237,1.3.361,1.979.032.157.06.313.084.474q.269,1.473.558,3.067c.024.108.04.217.06.325.092.5.185,1,.273,1.513a.637.637,0,0,1,.024.12l.132.731q.265,1.469.546,3.007c.048.253.1.51.141.771.092.518.189,1.04.285,1.566.12.654.241,1.313.361,1.983s.241,1.341.365,2.007c.064.341.124.682.189,1.024.072.4.149.8.221,1.232h34.69c-4.279-17.779-7.888-32.113-7.888-32.113Z" transform="translate(-178.919 -247.626)" fill="#455a64"/>
      <path id="Path_97154" data-name="Path 97154" d="M214.209,369.865q2.605,14.05,5.267,28.1h.482c-1.842-9.389-3.741-18.762-5.62-28.139C214.309,369.736,214.2,369.772,214.209,369.865Z" transform="translate(-186.735 -253.554)" fill="#37474f"/>
      <path id="Path_97155" data-name="Path 97155" d="M201.16,360v.1a.267.267,0,0,0,.02.108v.072a1.236,1.236,0,0,1,.028.157.231.231,0,0,0,.02.112,1.69,1.69,0,0,1,.048.265c.016.1.06.325.092.518.056.285.112.61.181.979.02.1.04.217.06.333s.056.313.088.478.064.369.1.566c.024.136.052.277.076.421.08.43.161.887.249,1.377a.118.118,0,0,1,0,.036c.1.546.2,1.124.317,1.738.032.161.06.325.088.49s.064.337.092.506h0c.024.1.04.213.06.321h0c.157.851.321,1.758.494,2.714.06.321.116.646.177.975.12.642.241,1.3.361,1.979.032.157.06.313.084.474q.277,1.481.558,3.067c.024.108.04.217.06.325.092.5.185,1,.273,1.513a.639.639,0,0,1,.024.12l.132.731q.269,1.469.546,3.007c.048.253.1.51.14.771.1.518.189,1.04.285,1.566.12.654.241,1.313.361,1.983s.245,1.341.365,2.007c.064.341.124.682.189,1.024.072.4.149.8.225,1.232h17.421l1.393-14.258.048-.506.056-.546h0l.273-2.79h0l.237-2.409L227.5,360Z" transform="translate(-178.925 -247.703)" fill="#263238"/>
      <path id="Path_97156" data-name="Path 97156" d="M151.117,392.149h37.416c.064-3.444.132-6.776.217-9.919h0V382a59.918,59.918,0,0,0,6.72-4.612,8.3,8.3,0,0,0,1.1-1.092h0c1.505-1.919,3.015-9.3,6.138-16.237H156.945C149.511,374.487,150.033,386.08,151.117,392.149Z" transform="translate(-148.595 -247.739)" fill="#455a64"/>
      <path id="Path_97157" data-name="Path 97157" d="M249.888,399.229a34.127,34.127,0,0,0-6.206,3.665c-2.051,1.4-3.934,3.023-5.909,4.528-.076.06,0,.185.08.128,2.079-1.329,4.259-2.5,6.318-3.866a40.029,40.029,0,0,0,5.817-4.3C250.056,399.326,249.98,399.189,249.888,399.229Z" transform="translate(-200.822 -271.181)" fill="#263238"/>
      <path id="Path_97158" data-name="Path 97158" d="M257.835,367.085c-.265,1.425-.614,2.838-.919,4.255-.289,1.329-.5,2.681-.851,4.014A6.792,6.792,0,0,1,254.2,378.7c-.522.486-1.1.915-1.654,1.357-.3.241-.622.47-.935.715.04-.189.076-.4.108-.574.1-.542.185-1.08.277-1.606.2-1.2.4-2.408.578-3.613.361-2.364.694-4.753,1.2-7.093a.077.077,0,0,0-.149-.04c-.59,2.32-1.24,4.616-1.75,6.957-.253,1.144-1.152,6.824-1.2,7.225s-.076.831-.088,1.244a5,5,0,0,0,0,1.272.108.108,0,0,0,.2,0h0a5.157,5.157,0,0,0,.361-1.228q.157-.606.265-1.228c.028-.145.048-.3.068-.45.558-.341,1.08-.8,1.606-1.164s1.132-.8,1.666-1.252a6.423,6.423,0,0,0,2.035-3.179,23.207,23.207,0,0,0,.666-4.07c.181-1.606.309-3.211.534-4.817C258,367.017,257.851,366.989,257.835,367.085Z" transform="translate(-208.488 -251.911)" fill="#263238"/>
      <path id="Path_97159" data-name="Path 97159" d="M173.707,377.816c.594-.309,2.91.241,7.121-.478a4.817,4.817,0,0,0,2.272-.923,11.85,11.85,0,0,0,2.593-3.569,18.325,18.325,0,0,0,1.814-4.416c.02-.1.157-.048.141.04-.157.871-.245,1.742-.474,2.605a16.057,16.057,0,0,1-.871,2.364,9.646,9.646,0,0,1-2.661,3.93,9.086,9.086,0,0,1-4.849,1.317c-.943.064-4.64-.036-5.134-.562a.209.209,0,0,1,.048-.309Z" transform="translate(-162.434 -252.718)" fill="#263238"/>
      <path id="Path_97160" data-name="Path 97160" d="M240,213.084c9.128,5.066,42.9,18.024,50.474,13.415,5.648-3.436,4.841-10.81.036-15.567-4.179-4.139-35.489-5.3-44.252-5.544C237.926,205.144,231.062,208.107,240,213.084Z" transform="translate(-199.658 -155.147)" fill="#ad6359"/>
      <path id="Path_97161" data-name="Path 97161" d="M259.741,222.786l13.608-18.67s-23.547-2.292-33.49-1.433c-10.365.9-12.488,4.949.024,10.718C252.206,219.081,259.741,222.786,259.741,222.786Z" transform="translate(-196.951 -153.42)" fill="#ea914e"/>
      <path id="Path_97162" data-name="Path 97162" d="M296.463,222.886c.273-.482.614-.927.927-1.381s.646-.931.967-1.4q.981-1.421,2.007-2.81c1.349-1.863,2.69-3.729,4.07-5.568.377-.506.759-1.012,1.152-1.505s.863-1.016,1.272-1.533c.024-.036.068,0,.048.04-.321.47-.6.967-.919,1.441s-.658.967-1,1.441q-1,1.409-2.007,2.81c-1.341,1.822-2.673,3.653-4.054,5.447l-1.16,1.5c-.4.522-.783,1.08-1.232,1.566C296.491,222.942,296.443,222.918,296.463,222.886Z" transform="translate(-235.969 -157.121)" fill="#263238"/>
      <path id="Path_97163" data-name="Path 97163" d="M257.848,208.025a6.381,6.381,0,0,0-.526,1.7,6.2,6.2,0,0,0,.947-1.505,6.333,6.333,0,0,0,.526-1.7,6.321,6.321,0,0,0-.947,1.505Zm5.126,8.863a6.194,6.194,0,0,0-1.7-.526,6.868,6.868,0,0,0,3.211,1.469A6.182,6.182,0,0,0,262.974,216.889Zm-14.126-6.358a6.193,6.193,0,0,0-1.7-.526,6.868,6.868,0,0,0,3.211,1.469,6.306,6.306,0,0,0-1.513-.943Zm20.536-.939a6.29,6.29,0,0,0-.827-1.574,6.9,6.9,0,0,0,1.2,3.308A6.1,6.1,0,0,0,269.384,209.591Zm4.127,6.824a6.422,6.422,0,0,0-1.574.827,6.9,6.9,0,0,0,3.308-1.2A6.237,6.237,0,0,0,273.511,216.415Z" transform="translate(-206.454 -155.833)" fill="#fff"/>
      <path id="Path_97164" data-name="Path 97164" d="M239.877,218.113c12.323,5.68,19.858,9.389,19.858,9.389l4.339-5.973L231.455,210.37C230.52,212.265,232.968,214.93,239.877,218.113Z" transform="translate(-196.945 -158.137)" fill="#263238"/>
      <path id="Path_97165" data-name="Path 97165" d="M267.717,97.04c-2.529-3.52-8.972-8.43-15.406-12.223-3.123-1.851-12.649-6.206-14.25-3.922s1.068,3.809,1.068,3.809-4.3-1.24-5.7,1.2,2.822,4.676,2.822,4.676-4.512-.951-5.736,1.606,3.408,4.07,3.408,4.07-4.082-1.06-4.211,1.457c-.153,3.035,7.595,4.139,10.943,6.358.763.5,14.692,11.3,14.692,11.3Z" transform="translate(-196.011 -80.249)" fill="#ad6359"/>
      <path id="Path_97166" data-name="Path 97166" d="M240.05,119.872c5.7.831,8.028,2.176,12.352,5.857.084.072.209-.036.128-.12-3.89-3.986-6.591-6.1-12.444-6.021C239.789,119.6,239.781,119.836,240.05,119.872Z" transform="translate(-202.087 -103.794)" fill="#263238"/>
      <path id="Path_97167" data-name="Path 97167" d="M245.26,105.329c5.841,1.377,8.4,2.81,13.195,6.338.064.052.157-.06.092-.116-4.416-3.85-7.157-5.9-13.174-6.5C245.1,105.028,244.991,105.269,245.26,105.329Z" transform="translate(-205.23 -95.093)" fill="#263238"/>
      <path id="Path_97168" data-name="Path 97168" d="M254.02,91.434c5.556,1.742,8.43,3.211,12.645,7.225a.108.108,0,0,0,.157-.149c-3.9-4.516-7.47-6.358-12.733-7.225C253.731,91.214,253.667,91.326,254.02,91.434Z" transform="translate(-210.426 -86.842)" fill="#263238"/>
      <path id="Path_97169" data-name="Path 97169" d="M268.6,152.048s-7.045-1.553-9.987-2.914-12.042-10.485-10.184-12.564c2.409-2.681,8.691,1.549,11.5,4.014,0,0,5.544-6.21,10.714-4.151S268.6,152.048,268.6,152.048Z" transform="translate(-207.071 -113.447)" fill="#ad6359"/>
      <path id="Path_97170" data-name="Path 97170" d="M251.02,135.845c3.954-.867,7.43,2.617,10.336,4.817a.329.329,0,0,0,.526-.145c2.5-2.445,6.736-5.17,10.361-4.484a.084.084,0,0,0,.044-.161c-3.789-1.268-8.169,1.072-10.734,3.926-2.942-2.3-6.583-5.644-10.545-3.99a.02.02,0,0,0,.012.036Z" transform="translate(-208.758 -113.241)" fill="#263238"/>
      <path id="Path_97171" data-name="Path 97171" d="M321.407,166.658c-.253,7.8-9.5,7.262-13.5,3.553-9.381-8.7-23.21-26.449-26.959-37.392-1.2-3.52,12.958-18.991,15.711-16.117C301.557,121.8,321.92,150.831,321.407,166.658Z" transform="translate(-226.644 -101.857)" fill="#ad6359"/>
      <path id="Path_97172" data-name="Path 97172" d="M322.66,223c.69.7,1.353,1.421,2.007,2.148s1.313,1.453,1.963,2.184l1.931,2.212c.317.369.642.735.971,1.1l.983,1.092a21.726,21.726,0,0,1-2.18-1.983c-.694-.694-1.357-1.421-2.007-2.156s-1.285-1.481-1.895-2.252S323.226,223.8,322.66,223Z" transform="translate(-251.653 -165.697)" fill="#263238"/>
      <path id="Path_97173" data-name="Path 97173" d="M332.46,234.42c.329.474.614.935.9,1.409.136.237.277.474.4.719a6.76,6.76,0,0,1,.357.771,4.416,4.416,0,0,1-1.108-1.289,4.818,4.818,0,0,1-.369-.767,2.735,2.735,0,0,1-.181-.843Z" transform="translate(-257.519 -172.533)" fill="#263238"/>
      <path id="Path_97174" data-name="Path 97174" d="M210.167,273.605H156s8.273-51.67,28.232-69.341c2.465-2.184,8.028-1.686,11.641.116,1.3.646,5.949,7.153,7.278,13.311S210.312,273.421,210.167,273.605Z" transform="translate(-151.893 -153.617)" fill="#ea914e"/>
      <path id="Path_97175" data-name="Path 97175" d="M180.705,226.58a6.221,6.221,0,0,0-1.574.827,6.9,6.9,0,0,0,3.308-1.224A6.238,6.238,0,0,0,180.705,226.58Zm26.349,6.021a.71.71,0,0,0-.068.048h.072s0-.052,0-.064ZM192.98,240.75a6.424,6.424,0,0,0-1.574.827,6.9,6.9,0,0,0,3.308-1.224,6.238,6.238,0,0,0-1.734.381Zm-7.374,22.423a6.239,6.239,0,0,0-1.574.831,6.238,6.238,0,0,0,1.734-.4,6.307,6.307,0,0,0,1.574-.831,6.238,6.238,0,0,0-1.734.4Zm-12.392-15.655a6.423,6.423,0,0,0-1.574.827,6.9,6.9,0,0,0,3.308-1.224,6.237,6.237,0,0,0-1.718.409ZM162.1,278.724a6.292,6.292,0,0,0-1.574.827,6.848,6.848,0,0,0,3.308-1.228,6.244,6.244,0,0,0-1.718.413Zm23.92-1.955a6.29,6.29,0,0,0-1.574.827,6.848,6.848,0,0,0,3.308-1.228,6.106,6.106,0,0,0-1.718.413Zm26.65,2.2a7.226,7.226,0,0,0-1.128.321,6.355,6.355,0,0,0-1.574.827,6.269,6.269,0,0,0,1.734-.4,8.018,8.018,0,0,0,1-.458,1.4,1.4,0,0,0-.02-.277Zm-11.2-16.418a6.292,6.292,0,0,0-1.574.827,6.9,6.9,0,0,0,3.308-1.224,6.1,6.1,0,0,0-1.718.409Zm-15.194-44.332a6.29,6.29,0,0,0-.827-1.574,6.9,6.9,0,0,0,1.224,3.308,6.1,6.1,0,0,0-.4-1.734Zm-11.918,60.606a6.223,6.223,0,0,0-.827-1.574,6.9,6.9,0,0,0,1.228,3.3A6.1,6.1,0,0,0,174.367,278.824Zm-2.376-15.089a6.215,6.215,0,0,0-.835-1.57,6.242,6.242,0,0,0,.4,1.73,6.171,6.171,0,0,0,.831,1.574A6.238,6.238,0,0,0,171.99,263.735Zm20.6-8.968a6.353,6.353,0,0,0-.827-1.574,6.9,6.9,0,0,0,1.224,3.308,6.238,6.238,0,0,0-.4-1.734Zm-7.29-19.344a6.307,6.307,0,0,0-.831-1.574,6.848,6.848,0,0,0,1.228,3.308,6.238,6.238,0,0,0-.4-1.734Zm9.979,44.156a5.805,5.805,0,0,0,.3,1.457h.482a6.238,6.238,0,0,0-.783-1.477Zm15.346-11.24a6.17,6.17,0,0,0-.831-1.574,6.391,6.391,0,0,0,.4,1.73,6.168,6.168,0,0,0,.831,1.574,6.211,6.211,0,0,0-.4-1.746Zm-9.369-43.963a6.214,6.214,0,0,0-.831-1.57,6.4,6.4,0,0,0,.4,1.73,6.022,6.022,0,0,0,.827,1.574A6.238,6.238,0,0,0,201.262,224.376Zm-4.255-8.651a6.194,6.194,0,0,0-1.7-.526,6.868,6.868,0,0,0,3.211,1.469,6.307,6.307,0,0,0-1.521-.943Zm-17.731,40.567a6.157,6.157,0,0,0-1.7-.53,6.223,6.223,0,0,0,1.509.947,6.333,6.333,0,0,0,1.7.526,6.207,6.207,0,0,0-1.509-.943ZM165.271,270.4a6.194,6.194,0,0,0-1.7-.526,6.868,6.868,0,0,0,3.211,1.469A6.181,6.181,0,0,0,165.271,270.4Zm36.617,3.516a6.194,6.194,0,0,0-1.7-.526,6.868,6.868,0,0,0,3.211,1.469,6.306,6.306,0,0,0-1.513-.943Zm-1.164-22.379a6.237,6.237,0,0,0-1.7-.526,6.061,6.061,0,0,0,1.505.943,6.343,6.343,0,0,0,1.7.53A6.2,6.2,0,0,0,200.724,251.54ZM197,232.545a6.194,6.194,0,0,0-1.7-.526,6.868,6.868,0,0,0,3.211,1.469A6.182,6.182,0,0,0,197,232.545Zm-22.319,5.263a6.149,6.149,0,0,0-.526,1.7,6.9,6.9,0,0,0,1.469-3.211A6.206,6.206,0,0,0,174.68,237.808Zm17.987,31.182a6.242,6.242,0,0,0-.53,1.7,6.2,6.2,0,0,0,.947-1.505,6.334,6.334,0,0,0,.526-1.7A6.259,6.259,0,0,0,192.667,268.99Zm11-27.525a6.222,6.222,0,0,0-.526,1.7,6.283,6.283,0,0,0,.943-1.509,6.194,6.194,0,0,0,.526-1.7,6.259,6.259,0,0,0-.943,1.505ZM179.063,270.6a6.194,6.194,0,0,0-.526,1.7,6.9,6.9,0,0,0,1.469-3.211,6.33,6.33,0,0,0-.943,1.513Zm-14.1-15.077a6.221,6.221,0,0,0-.526,1.7,6.282,6.282,0,0,0,.943-1.509,6.194,6.194,0,0,0,.526-1.7A6.386,6.386,0,0,0,164.966,255.518Zm19.18-8.43a6.086,6.086,0,0,0-.526,1.7,6.422,6.422,0,0,0,.943-1.509,6.334,6.334,0,0,0,.526-1.7,6.258,6.258,0,0,0-.943,1.517Zm7.053-22.006a6.378,6.378,0,0,0-.526,1.7,6.2,6.2,0,0,0,.947-1.505,6.334,6.334,0,0,0,.526-1.7,6.323,6.323,0,0,0-.947,1.517Z" transform="translate(-154.604 -161.028)" fill="#fff"/>
      <path id="Path_97176" data-name="Path 97176" d="M171.629,284.542c0-3.031.879-21.343.357-27.348-.177-2.007,6.776-24.458,8.57-32,1.686-7.073-1.915-10.2-7.2-3.536-4.4,5.54-15.884,27.172-18.2,32.948s-4.737,25.237-4.721,29.352C150.446,287.216,171.617,287.537,171.629,284.542Z" transform="translate(-148.559 -162.696)" fill="#ad6359"/>
      <path id="Path_97177" data-name="Path 97177" d="M171.15,404.706a3.36,3.36,0,0,1-3.769-.682,4.97,4.97,0,0,1-2.637,2.119c-1.967.57-3.729-2.268-3.729-2.268a6.106,6.106,0,0,1-3.139,1.79c-1.939.357-4.119-2.252-4.119-2.252a5.375,5.375,0,0,1-3.753-.165c-3.127-1.473-3.749-6.712-4.179-10.035s1.706-14.126,1.875-16.037l21.094-2.007s6.174,14.375,6.122,18.357C174.859,396.9,173.475,403.526,171.15,404.706Z" transform="translate(-145.768 -256.784)" fill="#ad6359"/>
      <path id="Path_97178" data-name="Path 97178" d="M199.539,430.616c.9-3.561.7-7.189.706-10.838a.064.064,0,0,0-.124,0c.036,3.613-.646,7.189-.755,10.8a.089.089,0,0,0,.173.04Z" transform="translate(-177.85 -283.457)" fill="#263238"/>
      <path id="Path_97179" data-name="Path 97179" d="M183.18,430.745a9.839,9.839,0,0,0,.052-2.5c-.044-.887-.1-1.77-.177-2.657q-.213-2.649-.562-5.295c0-.076-.132-.08-.124,0,.141,1.762.253,3.528.317,5.295.036.887.06,1.77.08,2.657a11.3,11.3,0,0,0,.169,2.5.128.128,0,0,0,.245,0Z" transform="translate(-167.677 -283.758)" fill="#263238"/>
      <path id="Path_97180" data-name="Path 97180" d="M164.4,431.118a6.552,6.552,0,0,0-.076-2.252c-.08-.8-.161-1.606-.233-2.408-.149-1.606-.293-3.211-.381-4.817,0-.08-.132-.08-.128,0,.084,1.638.145,3.284.245,4.921q.072,1.2.157,2.409a6.2,6.2,0,0,0,.337,2.176C164.335,431.166,164.387,431.154,164.4,431.118Z" transform="translate(-156.43 -284.564)" fill="#263238"/>
      <path id="Path_97181" data-name="Path 97181" d="M182.093,244.538l-21.873.072s11.95-20.416,18.465-27.967c6.8-7.872,11.332-7.225,8.667,6.3A213.008,213.008,0,0,1,182.093,244.538Z" transform="translate(-154.419 -158.847)" fill="#ea914e"/>
      <path id="Path_97182" data-name="Path 97182" d="M178.068,239.987a6.15,6.15,0,0,0-.526,1.7,6.9,6.9,0,0,0,1.469-3.211A6.205,6.205,0,0,0,178.068,239.987Zm3.259-17.847-.225.277a4.816,4.816,0,0,0,.871.2A4.577,4.577,0,0,0,181.327,222.14Zm-6.993,11.24a7.954,7.954,0,0,0-.365-.827l-.257.4h0c.056.2.12.4.189.59a6.239,6.239,0,0,0,.831,1.574,6.238,6.238,0,0,0-.4-1.762Zm14.359,4.239a6.307,6.307,0,0,0-.831-1.574,6.237,6.237,0,0,0,.4,1.734c.08.2.165.4.253.606.06-.249.12-.5.185-.755Zm.979-17.2a6.29,6.29,0,0,0-.827-1.574,6.9,6.9,0,0,0,1.224,3.308,6.1,6.1,0,0,0-.4-1.75Zm-21.925,23.74a6.423,6.423,0,0,0-1.557.8h0a6.908,6.908,0,0,0,3.3-1.224,6.239,6.239,0,0,0-1.742.405Zm16.346-15.378a6.222,6.222,0,0,0-1.574.827,6.9,6.9,0,0,0,3.308-1.224,6.24,6.24,0,0,0-1.734.381Z" transform="translate(-157.992 -163.207)" fill="#fff"/>
      <path id="Path_97183" data-name="Path 97183" d="M169.115,284.956c.55-.06,1.112-.044,1.662-.052l1.7-.032c1.152-.024,2.3-.028,3.452-.024,2.3,0,4.6,0,6.9.044.634,0,1.264.028,1.895.056s1.329.108,2.007.136c.04,0,.032.06,0,.064-.57,0-1.14.076-1.71.1s-1.168.032-1.754.036h-3.448c-2.264-.02-4.528-.032-6.792-.1l-1.895-.064a19.9,19.9,0,0,1-2.007-.088C169.087,285.013,169.079,284.96,169.115,284.956Z" transform="translate(-159.729 -202.718)" fill="#263238"/>
      <path id="Path_97184" data-name="Path 97184" d="M216.1,261.8a6.651,6.651,0,0,0,.967-2.34s-.024-.02-.028,0a13.405,13.405,0,0,1-.883,2.083l.2-.9c.241-1.1.486-2.184.674-3.288,0,0-.024-.028-.028,0-.55,1.871-1.016,3.773-1.521,5.66s-1.02,3.826-1.521,5.74c-.277,1.048-.554,2.091-.8,3.139-.357.032-.634.02-.951.048-.084,0-.092.153,0,.161a6.324,6.324,0,0,0,1.2-.02C214.5,268.7,215.322,265.251,216.1,261.8Z" transform="translate(-185.5 -186.252)" fill="#263238"/>
      <path id="Path_97185" data-name="Path 97185" d="M222.766,213.579a18.654,18.654,0,0,0,6.511,6.94,9.425,9.425,0,0,0,4.367,1.525,3.914,3.914,0,0,0,2.336-.494,4.677,4.677,0,0,0,1.513-1.855,9.389,9.389,0,0,0,.831-2.649,22.288,22.288,0,0,0,.317-3.147c0-.04.06-.032.056,0-.028,1,.024,2.007-.08,2.995a10.283,10.283,0,0,1-.554,2.573,5.893,5.893,0,0,1-1.309,2.1,3.532,3.532,0,0,1-2.26.987,8.474,8.474,0,0,1-4.741-1.18,15.993,15.993,0,0,1-3.894-3.039,17.663,17.663,0,0,1-3.179-4.729.048.048,0,1,1,.084-.032Z" transform="translate(-191.8 -160.029)" fill="#263238"/>
      <path id="Path_97186" data-name="Path 97186" d="M237.1,198.595c-3.091.863-8.638-3.689-10.91-7.47-.153-.261.14-3.067.337-6.5.108-2.083.185-4.416.1-6.527-.02-.434,13.443,2.7,13.443,2.7a33.757,33.757,0,0,0-.959,8.2,4.816,4.816,0,0,0,.124.867c0,.04.02.088.028.145C239.594,191.658,240.084,197.76,237.1,198.595Z" transform="translate(-193.88 -138.795)" fill="#ad6359"/>
      <path id="Path_97187" data-name="Path 97187" d="M239.15,190.151a8.229,8.229,0,0,0,1.361-.124,1.082,1.082,0,0,0-.024-.145,4.468,4.468,0,0,1-.124-.867,34.11,34.11,0,0,1,.955-8.2s-10.927-2.545-13.078-2.734C228.75,180.517,231.291,190.3,239.15,190.151Z" transform="translate(-195.134 -138.809)" fill="#263238"/>
      <path id="Path_97188" data-name="Path 97188" d="M226.731,124.149c-2.408,4.311-2.882,18.176-.249,21.865,3.822,5.347,11.525,7.458,16.434,2.533,4.757-4.785,5.05-22.849,1.979-26.353C240.351,117.036,230.3,117.783,226.731,124.149Z" transform="translate(-193.019 -103.319)" fill="#ad6359"/>
      <path id="Path_97189" data-name="Path 97189" d="M256.009,133.969a5.255,5.255,0,0,1-4.761,1.871,5.348,5.348,0,0,1-4.179-3.119.044.044,0,0,0-.08.032,5.308,5.308,0,0,0,4.195,3.508,5.415,5.415,0,0,0,4.925-2.208C256.157,133.985,256.061,133.9,256.009,133.969Z" transform="translate(-206.357 -111.646)" fill="#263238"/>
      <path id="Path_97190" data-name="Path 97190" d="M245.731,107.637a5.663,5.663,0,0,0-5.869,2.26,7.783,7.783,0,0,0-1.333,3.645.044.044,0,0,0,.084,0,7.114,7.114,0,0,1,3.577-5.082,4.745,4.745,0,0,1,5.463.715,4.817,4.817,0,0,1,1.469,2.842.1.1,0,0,0,.189-.024A4.913,4.913,0,0,0,245.731,107.637Z" transform="translate(-201.294 -96.545)" fill="#263238"/>
      <path id="Path_97191" data-name="Path 97191" d="M284.612,114.211a6.306,6.306,0,0,0-2.766-3.36c-1.786-1.06-3.777-.859-5.752-.622a.044.044,0,0,0,0,.084,8.729,8.729,0,0,1,4.965.466A6.234,6.234,0,0,1,284,113.757a6.081,6.081,0,0,1-2.376,7.595,6.17,6.17,0,0,1-4.861.586c-.06,0-.108.076-.04.1a6.206,6.206,0,0,0,7.88-7.824Z" transform="translate(-223.76 -98.081)" fill="#263238"/>
      <path id="Path_97192" data-name="Path 97192" d="M227.81,120.322s.241-4.235,1.337-5.532a6.437,6.437,0,0,1,3.52-1.606s1.413-3.585,4.817-3.825c3.067-.217,5.146,2.489,5.146,2.489s4.239-4.219,9.092-1.83c4.608,2.268,4.014,9.281-.421,11.529-3.131,1.574-7.446-1.152-7.446-1.152-.4.06-4.588,2.661-7.824-1.056,0,0-2.87,2.248-4.528.678C231.5,120.009,229.307,121.077,227.81,120.322Z" transform="translate(-194.877 -97.63)" fill="#263238"/>
      <path id="Path_97193" data-name="Path 97193" d="M229.423,124.55c-.149,2.1-.63,8.06-1.393,9.369s-2.581,4.733-3.32,4.974c.08-4.508.8-9.12,2.007-11.3a9.791,9.791,0,0,1,2.706-3.047Z" transform="translate(-193.021 -106.767)" fill="#263238" opacity="0.2"/>
      <path id="Path_97194" data-name="Path 97194" d="M221.228,153.681s-2.176-4.925-4.355-4.231-1.136,7.418,1,8.731a2.408,2.408,0,0,0,3.392-.642Z" transform="translate(-187.608 -121.631)" fill="#ad6359"/>
      <path id="Path_97195" data-name="Path 97195" d="M219.48,154.33c-.036,0-.056.04-.024.06a6.045,6.045,0,0,1,2.332,4.315,1.319,1.319,0,0,0-1.867-.739c-.048.024,0,.1.028.1a1.461,1.461,0,0,1,1.485.8,6.871,6.871,0,0,1,.51,1.437c.048.157.321.132.3-.044a.145.145,0,0,0,0-.04C222.687,158.176,221.672,154.972,219.48,154.33Z" transform="translate(-189.867 -124.593)" fill="#263238"/>
      <path id="Path_97196" data-name="Path 97196" d="M251.927,159.486c0-.036-.076.04-.076.08,0,.935-.169,2.007-1.028,2.284-.024,0-.024.052,0,.052C251.867,161.794,252.088,160.373,251.927,159.486Z" transform="translate(-208.642 -127.673)" fill="#263238"/>
      <path id="Path_97197" data-name="Path 97197" d="M249.726,156.99c-1.5-.169-1.73,2.838-.341,2.995S250.982,157.13,249.726,156.99Z" transform="translate(-207.239 -126.181)" fill="#263238"/>
      <path id="Path_97198" data-name="Path 97198" d="M268,160.477c0-.036.072.048.068.084-.1.931-.064,2.007.755,2.409.028,0,.02.056,0,.048C267.8,162.777,267.759,161.34,268,160.477Z" transform="translate(-218.862 -128.267)" fill="#263238"/>
      <path id="Path_97199" data-name="Path 97199" d="M268.963,158.22c1.509,0,1.393,3.019,0,3.015S267.7,158.22,268.963,158.22Z" transform="translate(-218.914 -126.921)" fill="#263238"/>
      <path id="Path_97200" data-name="Path 97200" d="M247.463,150.867a9.866,9.866,0,0,1,1.092-.586,2.007,2.007,0,0,1,1.228-.4.642.642,0,0,1,.5.6,1.567,1.567,0,0,1-.955,1.289,2.324,2.324,0,0,1-1.646.309.682.682,0,0,1-.221-1.208Z" transform="translate(-206.474 -121.929)" fill="#263238"/>
      <path id="Path_97201" data-name="Path 97201" d="M271.047,153.273a12.081,12.081,0,0,0-.971-.775,2.007,2.007,0,0,0-1.136-.6.642.642,0,0,0-.6.5,1.59,1.59,0,0,0,.71,1.437,2.324,2.324,0,0,0,1.561.6.678.678,0,0,0,.438-1.164Z" transform="translate(-219.127 -123.138)" fill="#263238"/>
      <path id="Path_97202" data-name="Path 97202" d="M253.882,160.61a7.679,7.679,0,0,1,3.677.064c.108,0,.221-.217.245-.313h0c0-.036.08-1.975.08-1.975.249.149,1.529.835,1.533.462a47.3,47.3,0,0,0-.55-9.574.084.084,0,1,0-.169,0c-.149,2.958.225,5.925.12,8.9a5.436,5.436,0,0,0-1.445-.55c-.1.02.024,2.091-.036,2.408a4.566,4.566,0,0,0-3.444.173C253.481,160.43,253.308,160.795,253.882,160.61Z" transform="translate(-210.263 -121.516)" fill="#263238"/>
      <path id="Path_97203" data-name="Path 97203" d="M249.351,180.714c.209.233.4.542.743.594a2.409,2.409,0,0,0,1.008-.169.032.032,0,0,1,.036.052,1.244,1.244,0,0,1-1.2.4.983.983,0,0,1-.674-.863C249.251,180.7,249.323,180.682,249.351,180.714Z" transform="translate(-207.716 -140.375)" fill="#263238"/>
      <path id="Path_97204" data-name="Path 97204" d="M237.977,145.307c-1.272,0-.59-2.408-.321-3.239a15.384,15.384,0,0,0,.321-2.7,14.611,14.611,0,0,0,.333,2.7C238.576,142.9,239.258,145.307,237.977,145.307Z" transform="translate(-200.516 -115.638)" fill="#fff"/>
      <path id="Path_97205" data-name="Path 97205" d="M278.77,150.637c.1-1.1.177-2.2.225-3.308s.084-2.2.076-3.308-.024-2.2-.076-3.3c0-.55-.056-1.1-.1-1.65s-.1-1.1-.124-1.658a25.914,25.914,0,0,1,.534,3.284,30.82,30.82,0,0,1,.169,3.332,32.97,32.97,0,0,1-.168,3.325c-.061.553-.129,1.1-.209,1.653A16.571,16.571,0,0,1,278.77,150.637Z" transform="translate(-225.381 -114.464)" fill="#263238"/>
      <path id="Path_97206" data-name="Path 97206" d="M217.78,451.47c.028.165.06.329.092.5-.028-.165-.06-.333-.088-.5Z" transform="translate(-188.873 -302.456)" fill="#ebebeb"/>
    </g>
    <g id="freepik--speech-bubble--inject-5" transform="translate(71.237 61.59)">
      <path id="Path_97207" data-name="Path 97207" d="M165.257,99.956a9.971,9.971,0,0,0,1.714-5.5c0-6.981-7.663-12.641-17.112-12.641S132.75,87.48,132.75,94.461s7.659,12.637,17.108,12.637a20.525,20.525,0,0,0,11.8-3.5l5.9,1.5Z" transform="translate(-132.34 -81.493)" fill="#fff"/>
      <path id="Path_97208" data-name="Path 97208" d="M164.646,99.468a10.136,10.136,0,0,0,1.606-5.218,9.7,9.7,0,0,0-1.445-5.218,13.407,13.407,0,0,0-3.745-3.934,18.024,18.024,0,0,0-4.889-2.408,21.644,21.644,0,0,0-5.371-1,23.145,23.145,0,0,0-5.447.305,19.794,19.794,0,0,0-5.182,1.642,15.8,15.8,0,0,0-4.416,3.083,11.027,11.027,0,0,0-2.79,4.516,9.124,9.124,0,0,0-.068,5.247,10.971,10.971,0,0,0,2.706,4.588,15.811,15.811,0,0,0,4.391,3.139,20.336,20.336,0,0,0,5.17,1.678,22.764,22.764,0,0,0,5.451.369,20.107,20.107,0,0,0,10.32-3.312l.072-.052.08.024,5.873,1.582-.112.132Zm0,0,2.38,5.094.084.181-.2-.048L161,103.282l.153-.028a18.333,18.333,0,0,1-5,2.517,22.078,22.078,0,0,1-5.5,1.072,23.438,23.438,0,0,1-5.62-.285,20.737,20.737,0,0,1-5.359-1.722,16.458,16.458,0,0,1-4.616-3.259,11.741,11.741,0,0,1-2.93-4.865,9.835,9.835,0,0,1,.048-5.7,11.814,11.814,0,0,1,3.011-4.817,16.543,16.543,0,0,1,4.681-3.187,20.605,20.605,0,0,1,5.379-1.67,22.656,22.656,0,0,1,11.115.851,18.357,18.357,0,0,1,4.986,2.569,13.415,13.415,0,0,1,3.773,4.135,9.762,9.762,0,0,1-.462,10.6Z" transform="translate(-131.729 -81.006)" fill="#263238"/>
      <path id="Path_97209" data-name="Path 97209" d="M141.45,109.479a.305.305,0,0,1,.309-.309.313.313,0,0,1,.317.309v3.332a.313.313,0,0,1-.317.313.309.309,0,0,1-.309-.313Z" transform="translate(-137.548 -97.864)" fill="#263238"/>
      <path id="Path_97210" data-name="Path 97210" d="M145.15,110.384a.478.478,0,0,0,.4-.506.4.4,0,0,1-.321-.381v-.06a.365.365,0,0,1,.381-.377c.249,0,.4.193.4.5v.056a1.112,1.112,0,0,1-.277.8.831.831,0,0,1-.53.245.157.157,0,0,1-.177-.161A.165.165,0,0,1,145.15,110.384Z" transform="translate(-139.691 -97.798)" fill="#263238"/>
      <path id="Path_97211" data-name="Path 97211" d="M152.322,109.479v3.332a.321.321,0,0,1-.317.313.309.309,0,0,1-.309-.313v-2.376l-.8,1.132a.305.305,0,0,1-.253.128h0a.325.325,0,0,1-.261-.128l-.8-1.132v2.376a.313.313,0,0,1-.626,0v-3.332a.313.313,0,0,1,.309-.309h0a.3.3,0,0,1,.245.128l1.124,1.562,1.124-1.562a.313.313,0,0,1,.257-.128h0A.321.321,0,0,1,152.322,109.479Z" transform="translate(-142.037 -97.864)" fill="#263238"/>
      <path id="Path_97212" data-name="Path 97212" d="M164.581,111.979a.293.293,0,0,1,.4-.04,1.818,1.818,0,0,0,1.08.434,1.2,1.2,0,0,0,.706-.209.506.506,0,0,0,.245-.4.341.341,0,0,0-.052-.181.558.558,0,0,0-.169-.169,2.212,2.212,0,0,0-.775-.265h0a3.146,3.146,0,0,1-.727-.221,1.2,1.2,0,0,1-.526-.442.871.871,0,0,1-.132-.462,1.044,1.044,0,0,1,.454-.827,1.69,1.69,0,0,1,.975-.3,2.232,2.232,0,0,1,1.232.45.3.3,0,0,1,.08.4.281.281,0,0,1-.4.084,1.67,1.67,0,0,0-.911-.361,1.08,1.08,0,0,0-.63.193.45.45,0,0,0-.217.357.269.269,0,0,0,.04.157.6.6,0,0,0,.153.149,1.979,1.979,0,0,0,.706.249h0a3.211,3.211,0,0,1,.779.237,1.329,1.329,0,0,1,.566.47.907.907,0,0,1,.132.478,1.084,1.084,0,0,1-.47.871,1.75,1.75,0,0,1-1.044.321,2.408,2.408,0,0,1-1.445-.562.3.3,0,0,1-.052-.413Z" transform="translate(-151.358 -97.703)" fill="#263238"/>
      <path id="Path_97213" data-name="Path 97213" d="M177.221,109.492a2.083,2.083,0,0,1,.57,1.429,2.059,2.059,0,0,1-.57,1.429,1.843,1.843,0,0,1-1.349.606,1.9,1.9,0,0,1-1.385-.606,2.109,2.109,0,0,1,0-2.858,1.9,1.9,0,0,1,1.385-.6A1.838,1.838,0,0,1,177.221,109.492Zm-.076,1.429a1.457,1.457,0,0,0-.381-.987,1.2,1.2,0,0,0-.891-.4,1.236,1.236,0,0,0-.915.4,1.441,1.441,0,0,0-.4.987,1.409,1.409,0,0,0,.4.983,1.2,1.2,0,0,0,1.806,0,1.425,1.425,0,0,0,.381-.963Z" transform="translate(-156.99 -97.697)" fill="#263238"/>
      <path id="Path_97214" data-name="Path 97214" d="M188.829,112.606a.317.317,0,0,1-.2.4.587.587,0,0,1-.124,0h0a.4.4,0,0,1-.221-.064.534.534,0,0,1-.181-.2,1.5,1.5,0,0,1-.116-.678.478.478,0,0,0-.068-.241.55.55,0,0,0-.169-.165,1.124,1.124,0,0,0-.317-.136h-.666v1.2a.313.313,0,0,1-.317.313.309.309,0,0,1-.309-.313V109.4a.305.305,0,0,1,.309-.309h1.012a1.2,1.2,0,0,1,.763,2.132.891.891,0,0,1,.2.209,1.08,1.08,0,0,1,.189.61,1.533,1.533,0,0,0,.02.333A.309.309,0,0,1,188.829,112.606Zm-.8-2.272a.582.582,0,0,0-.582-.586h-.694v1.164h.694a.582.582,0,0,0,.594-.578Z" transform="translate(-164.299 -97.816)" fill="#263238"/>
      <path id="Path_97215" data-name="Path 97215" d="M197.619,112.606a.313.313,0,0,1-.2.4.626.626,0,0,1-.124,0h0a.4.4,0,0,1-.221-.064.5.5,0,0,1-.181-.2,1.5,1.5,0,0,1-.12-.678.441.441,0,0,0-.068-.241.474.474,0,0,0-.169-.165,1.076,1.076,0,0,0-.317-.136h-.666v1.2a.313.313,0,0,1-.317.313.309.309,0,0,1-.309-.313V109.4a.305.305,0,0,1,.309-.309h1.012a1.2,1.2,0,0,1,.771,2.14.891.891,0,0,1,.2.209,1.076,1.076,0,0,1,.185.61,1.454,1.454,0,0,0,.024.333.305.305,0,0,1,.193.225Zm-.8-2.272a.582.582,0,0,0-.582-.586h-.694v1.164h.694a.582.582,0,0,0,.594-.578Z" transform="translate(-169.56 -97.816)" fill="#263238"/>
      <path id="Path_97216" data-name="Path 97216" d="M205.958,109.76l-1.156,1.606v1.521a.309.309,0,0,1-.313.313.317.317,0,0,1-.309-.313v-1.521l-1.148-1.606a.306.306,0,1,1,.494-.361l.963,1.321.967-1.321a.309.309,0,1,1,.5.361Z" transform="translate(-174.375 -97.924)" fill="#263238"/>
    </g>
  </g>
</svg>
