<svg xmlns="http://www.w3.org/2000/svg" width="155.512" height="174.215" viewBox="0 0 155.512 174.215">
  <g id="Forgot_password-cuate" data-name="Forgot password-cuate" transform="translate(-46.98)">
    <g id="freepik--background-complete--inject-5" transform="translate(47.738)">
      <rect id="Rectangle_10855" data-name="Rectangle 10855" width="10.142" height="4.286" transform="translate(5.657 131.345)" fill="#ebebeb"/>
      <rect id="Rectangle_10856" data-name="Rectangle 10856" width="10.142" height="4.286" transform="translate(0 136.749)" fill="#ebebeb"/>
      <rect id="Rectangle_10857" data-name="Rectangle 10857" width="10.142" height="4.286" transform="translate(11.314 136.749)" fill="#ebebeb"/>
      <rect id="Rectangle_10858" data-name="Rectangle 10858" width="10.142" height="4.286" transform="translate(138.2 16.791)" fill="#ebebeb"/>
      <rect id="Rectangle_10859" data-name="Rectangle 10859" width="10.142" height="4.286" transform="translate(143.857 22.195)" fill="#ebebeb"/>
      <rect id="Rectangle_10860" data-name="Rectangle 10860" width="10.142" height="4.286" transform="translate(0 16.799)" fill="#ebebeb"/>
      <rect id="Rectangle_10861" data-name="Rectangle 10861" width="10.142" height="4.286" transform="translate(154.003 135.596) rotate(180)" fill="#ebebeb"/>
      <rect id="Rectangle_10862" data-name="Rectangle 10862" width="10.142" height="4.286" transform="translate(129.786 86.215) rotate(180)" fill="#ebebeb"/>
      <rect id="Rectangle_10863" data-name="Rectangle 10863" width="10.142" height="4.286" transform="translate(135.443 80.811) rotate(180)" fill="#ebebeb"/>
      <rect id="Rectangle_10864" data-name="Rectangle 10864" width="0.383" height="40.986" transform="translate(16.554)" fill="#c7c7c7"/>
      <path id="Path_96660" data-name="Path 96660" d="M83.985,130.4,82.84,132.92H56.661L55.52,130.4l11.146-7.714H72.84Z" transform="translate(-53.007 -75.699)" fill="#ebebeb"/>
      <path id="Path_96661" data-name="Path 96661" d="M90.321,103.29l-.774,7.43H83.374l-.774-7.43Z" transform="translate(-69.716 -63.729)" fill="#dbdbdb"/>
      <path id="Path_96662" data-name="Path 96662" d="M83.981,142.84l-1.145,2.516H56.658L55.52,142.84Z" transform="translate(-53.007 -88.131)" fill="#dbdbdb"/>
      <rect id="Rectangle_10865" data-name="Rectangle 10865" width="0.383" height="32.87" transform="translate(43.793)" fill="#c7c7c7"/>
      <path id="Path_96663" data-name="Path 96663" d="M155.105,109.214l-1.145,2.516H127.781l-1.141-2.516,11.146-7.714h6.174Z" transform="translate(-96.888 -62.625)" fill="#ebebeb"/>
      <path id="Path_96664" data-name="Path 96664" d="M161.441,82.09l-.774,7.434h-6.174l-.774-7.434Z" transform="translate(-113.596 -50.649)" fill="#dbdbdb"/>
      <path id="Path_96665" data-name="Path 96665" d="M155.105,121.64l-1.145,2.516H127.781l-1.141-2.516Z" transform="translate(-96.888 -75.051)" fill="#dbdbdb"/>
    </g>
    <g id="freepik--Shadow--inject-5" transform="translate(48.784 155.999)">
      <path id="Path_96666" data-name="Path 96666" d="M203.6,416.408c0,5.033-34,9.108-75.954,9.108s-75.954-4.075-75.954-9.108,34-9.108,75.954-9.108S203.6,411.375,203.6,416.408Z" transform="translate(-51.69 -407.3)" fill="#ebebeb"/>
    </g>
    <g id="freepik--Plant--inject-5" transform="translate(168.036 105.501)">
      <path id="Path_96667" data-name="Path 96667" d="M383.683,283.987a15.053,15.053,0,0,1-.295,5.806,15.884,15.884,0,0,1-.889,2.566,6.524,6.524,0,0,0-.827,3.263c.111.073-.272.061-.287-.05-3.106-1.77-7.089-2.1-9.479-4.979a9.958,9.958,0,0,1-1.972-4.841,14.577,14.577,0,0,1,.111-5.845,5.918,5.918,0,0,1,2.83-3.861,7.2,7.2,0,0,1,5.14-.23C381.465,276.886,383.192,280.643,383.683,283.987Z" transform="translate(-367.147 -275.455)" fill="#ea914e"/>
      <path id="Path_96668" data-name="Path 96668" d="M389.492,312.474q-.632-2.118-1.283-4.232c-.85-2.761-1.735-5.512-2.719-8.231q-.881-2.44-1.858-4.837a29.6,29.6,0,0,1,.383-3c.26-1.2.636-2.367.988-3.543.023-.073-.1-.111-.126-.042a15.689,15.689,0,0,0-1.628,5.623q-1.149-2.712-2.444-5.343a22.793,22.793,0,0,1,.115-4.451.054.054,0,0,0-.1-.019,15.81,15.81,0,0,0-.306,3.926q-1-1.976-2.118-3.9c-.069-.115-.226,0-.169.119,1.168,2.248,2.248,4.542,3.267,6.867a14.905,14.905,0,0,0-4.872-2.819c-.077-.031-.134.084-.057.115a17.723,17.723,0,0,1,5.27,3.489q1.091,2.551,2.087,5.148a16.048,16.048,0,0,0-7.178-3.83c-.088-.023-.111.111-.027.134a19.966,19.966,0,0,1,7.557,4.6c.26.7.521,1.4.766,2.1q1.436,3.991,2.739,8.043.628,1.915,1.233,3.876a43.77,43.77,0,0,0,1.341,4.213c.054.126.283.1.253-.057a39.837,39.837,0,0,0-1.111-3.941Z" transform="translate(-371.363 -280.951)" fill="#263238"/>
      <path id="Path_96669" data-name="Path 96669" d="M395.128,290.567a7.779,7.779,0,0,0-1.118,2.788c0,.027.034.042.046,0a23.835,23.835,0,0,1,1.21-2.735C395.316,290.544,395.182,290.487,395.128,290.567Z" transform="translate(-382.151 -284.755)" fill="#263238"/>
      <path id="Path_96670" data-name="Path 96670" d="M377.932,306.018a8.15,8.15,0,0,0-2.784-.938c-.027,0-.042.034,0,.046.448.184.919.314,1.371.49s.9.383,1.36.548a.08.08,0,0,0,.054-.146Z" transform="translate(-370.497 -293.733)" fill="#263238"/>
      <path id="Path_96671" data-name="Path 96671" d="M376.839,286.311a5.443,5.443,0,0,0-.9-.555.05.05,0,0,0-.054.08,5.621,5.621,0,0,0,.885.571C376.831,286.441,376.9,286.345,376.839,286.311Z" transform="translate(-370.963 -281.808)" fill="#263238"/>
      <path id="Path_96672" data-name="Path 96672" d="M418.051,297.964c-2.237.663-4.485,1.275-6.722,1.934-.2.057-3.976-7.189-2.608-10.923a12.164,12.164,0,0,1,7.6-7.2,10.293,10.293,0,0,1,5.247-.628,4.411,4.411,0,0,1,3.064,2.972,12.569,12.569,0,0,1,.08,6.163,10.759,10.759,0,0,1-2.2,5.029A8.87,8.87,0,0,1,418.051,297.964Z" transform="translate(-391.044 -278.881)" fill="#ea914e"/>
      <path id="Path_96673" data-name="Path 96673" d="M420.7,298.227a29.423,29.423,0,0,1-4.389,1.727,18.471,18.471,0,0,0-2.926,1.061c.946-2.107,1.98-4.167,3.083-6.212a10.017,10.017,0,0,0,4.052-2.091.063.063,0,0,0-.08-.1,20.1,20.1,0,0,1-3.83,1.915c.3-.551.6-1.1.9-1.647.084-.153-.123-.3-.226-.157a47.167,47.167,0,0,0-3.179,5.339,24.255,24.255,0,0,1-.23-4.891c0-.042-.057-.046-.065,0a16.326,16.326,0,0,0,.054,5.362c-.766,1.566-1.5,3.171-2.141,4.8-.253-.977-.586-1.938-.808-2.922a13.463,13.463,0,0,1-.322-4.3c0-.042-.057-.046-.065,0a15.2,15.2,0,0,0,.977,7.913c-.383.977-.732,1.957-1.057,2.942a58.6,58.6,0,0,0-2.972,15.519.1.1,0,1,0,.191,0A76.918,76.918,0,0,1,411,307.159c.647-1.949,1.394-3.83,2.214-5.7,1.321-.383,2.639-.919,3.937-1.367a12.4,12.4,0,0,0,3.627-1.781.057.057,0,0,0-.08-.08Z" transform="translate(-390.462 -286.035)" fill="#263238"/>
      <path id="Path_96674" data-name="Path 96674" d="M440.925,301.794c-1.367.486-2.681,1.168-4.029,1.662-.065.023-.027.123.034.111a9.2,9.2,0,0,0,4.048-1.7C441.02,301.836,440.974,301.775,440.925,301.794Z" transform="translate(-408.59 -291.704)" fill="#263238"/>
      <path id="Path_96675" data-name="Path 96675" d="M417.4,293.963c.019-.073-.088-.115-.111-.038a6.916,6.916,0,0,0-.268,3.888c0,.05.1.054.1,0A21.881,21.881,0,0,1,417.4,293.963Z" transform="translate(-396.241 -286.826)" fill="#263238"/>
      <path id="Path_96676" data-name="Path 96676" d="M432.091,286.428a3.363,3.363,0,0,0-.594,2.145c0,.046.08.073.092.019.169-.724.448-1.379.67-2.08a.1.1,0,0,0-.169-.084Z" transform="translate(-405.276 -282.202)" fill="#263238"/>
      <path id="Path_96677" data-name="Path 96677" d="M363.447,326.38c.655,2.084,2.214,4.96,4.68,4.979,1.6,0,3.21-.176,4.814-.2,1.716-.027,3.447-.023,5.151.08a9.633,9.633,0,0,0-4.332-7.66,12.309,12.309,0,0,0-3.884-1.21,17.96,17.96,0,0,0-4.6-.479c-.95.038-1.739.237-2.076,1.21A5.655,5.655,0,0,0,363.447,326.38Z" transform="translate(-363.048 -304.102)" fill="#ea914e"/>
      <path id="Path_96678" data-name="Path 96678" d="M368.513,325.236c1,.257,2.015.555,3.022.873a11.094,11.094,0,0,0-.831-.812c-.433-.356-.908-.643-1.371-.961-.038-.023,0-.1.034-.08a5.641,5.641,0,0,1,2.432,1.938c1.256.4,2.5.85,3.692,1.34a14.169,14.169,0,0,1,2.367,1.245,9.539,9.539,0,0,0-.858-1.486,8.207,8.207,0,0,0-2-1.609.065.065,0,0,1,.065-.111,5.875,5.875,0,0,1,3.217,3.489,13.872,13.872,0,0,1,2.34,2.126c2.731,3.1,4.883,7.231,4.891,11.44,0,.1-.161.13-.18.023a23.363,23.363,0,0,0-5.209-11.184,8.828,8.828,0,0,0-.6-.655,18.445,18.445,0,0,0-2.256-.169c-.877,0-1.75.13-2.624.2a7.637,7.637,0,0,1-4.336-.59c-.057-.031,0-.13.046-.107,2.9,1.053,5.937-.283,8.84.345a13.558,13.558,0,0,0-4.282-2.761l-.268-.107c-1.858.222-3.83.709-5.63.1a.044.044,0,0,1,.023-.084c1.75.437,3.428-.115,5.155-.2-1.881-.732-3.8-1.314-5.684-2.041C368.344,325.335,368.34,325.19,368.513,325.236Z" transform="translate(-366.34 -305.563)" fill="#263238"/>
      <path id="Path_96679" data-name="Path 96679" d="M366.507,331.6a25.625,25.625,0,0,0,2.708.207.017.017,0,1,1,0,.035,5.6,5.6,0,0,1-2.731-.172C366.442,331.656,366.465,331.591,366.507,331.6Z" transform="translate(-365.154 -310.095)" fill="#263238"/>
      <path id="Path_96680" data-name="Path 96680" d="M382.38,326.936a4.416,4.416,0,0,1,1.341.931.056.056,0,0,1-.069.088c-.226-.165-.46-.322-.7-.471a7.515,7.515,0,0,1-.651-.414.08.08,0,0,1,.077-.134Z" transform="translate(-374.915 -307.217)" fill="#263238"/>
      <path id="Path_96681" data-name="Path 96681" d="M420.581,333.779c-.031.065.069.13.107.057h0a.1.1,0,0,0,.065.042,41.788,41.788,0,0,0,5.04.881,6.446,6.446,0,0,0,4.133-.594c1.62-1.076,2.681-3.945,1.808-5.768-1.034-2.164-4.156-.988-5.722-.218A11.491,11.491,0,0,0,420.581,333.779Z" transform="translate(-398.542 -307.357)" fill="#ea914e"/>
      <path id="Path_96682" data-name="Path 96682" d="M409.294,336.8a15.989,15.989,0,0,1,3.01-2.3,10.342,10.342,0,0,1,3.064-3.114c.061-.042.111.054.057.1a13.868,13.868,0,0,0-2.574,2.7,28.214,28.214,0,0,1,3.776-1.716,5.038,5.038,0,0,1,2.03-2.034s.038,0,.023.027a8.316,8.316,0,0,0-1.835,1.915c.766-.283,1.532-.552,2.317-.808.069-.023.1.084.031.107-1.379.54-2.788,1.107-4.156,1.762a15.958,15.958,0,0,0,5.033,0c.046,0,.065.057,0,.069a9.912,9.912,0,0,1-5.339.08,25.07,25.07,0,0,0-2.532,1.417,6.291,6.291,0,0,1,2.045.169,15.6,15.6,0,0,0,3.6.406.042.042,0,0,1,0,.084c-2.087.356-4.06-.59-6.128-.345a15.818,15.818,0,0,0-2.152,1.762,16.085,16.085,0,0,0-3.141,4.431c-.873,1.773-1.344,3.65-2.049,5.481a.065.065,0,1,1-.126-.034A19.4,19.4,0,0,1,409.294,336.8Z" transform="translate(-388.465 -309.38)" fill="#263238"/>
      <path id="Path_96683" data-name="Path 96683" d="M433.849,332.337a2.422,2.422,0,0,1,.536-.647,2.014,2.014,0,0,1,.617-.46c.019,0,.031,0,.019.034-.172.192-.41.337-.594.521s-.341.406-.529.59a.031.031,0,0,1-.05-.038Z" transform="translate(-406.728 -309.868)" fill="#263238"/>
      <path id="Path_96684" data-name="Path 96684" d="M442.789,336.382c.31-.077.636-.073.95-.138a8.528,8.528,0,0,0,.923-.276.038.038,0,0,1,.031.069,3.064,3.064,0,0,1-1.915.44C442.74,336.47,442.743,336.393,442.789,336.382Z" transform="translate(-412.225 -312.791)" fill="#263238"/>
      <path id="Path_96685" data-name="Path 96685" d="M394.98,361.97l.272,3.11.931,10.5h8.227l1.161-10.5.341-3.11Z" transform="translate(-382.75 -328.834)" fill="#455a64"/>
      <path id="Path_96686" data-name="Path 96686" d="M394.98,361.97l.272,3.11H405.57l.341-3.11Z" transform="translate(-382.75 -328.834)" fill="#263238"/>
      <rect id="Rectangle_10866" data-name="Rectangle 10866" width="12.563" height="2.524" transform="translate(23.981 34.809) rotate(180)" fill="#455a64"/>
    </g>
    <g id="freepik--Floor--inject-5" transform="translate(46.98 152.035)">
      <path id="Path_96687" data-name="Path 96687" d="M46.98,397.138l19.441-.092,19.438-.034,38.879-.061,38.879.061,19.438.034,19.438.092-19.438.1-19.438.035-38.879.061-38.879-.061-19.438-.035Z" transform="translate(-46.98 -396.95)" fill="#263238"/>
    </g>
    <g id="freepik--Screen--inject-5" transform="translate(106.677 20.874)">
      <path id="Path_96688" data-name="Path 96688" d="M273,62.225V186.343a6.119,6.119,0,0,1-5.868,6.346H209.205a6.12,6.12,0,0,1-5.875-6.346V62.225c0-7.147,2.627-7.5,5.875-7.5h11.617c.674,0,1.226.766,1.226,1.716v.41c0,2.225,1.218,2.233,2.712,2.233h26.833c1.509,0,2.719,0,2.719-2.233v-.41c0-.95.544-1.716,1.229-1.716h11.6C270.372,54.73,273,55.68,273,62.225Z" transform="translate(-203.144 -54.642)" fill="#fff"/>
      <path id="Path_96689" data-name="Path 96689" d="M273,62.225V186.343a6.119,6.119,0,0,1-5.868,6.346H209.205a6.12,6.12,0,0,1-5.875-6.346V62.225c0-7.147,2.627-7.5,5.875-7.5h11.617c.674,0,1.226.766,1.226,1.716v.41c0,2.225,1.218,2.233,2.712,2.233h26.833c1.509,0,2.719,0,2.719-2.233v-.41c0-.95.544-1.716,1.229-1.716h11.6C270.372,54.73,273,55.68,273,62.225Z" transform="translate(-203.144 -54.642)" fill="#fff"/>
      <path id="Path_96690" data-name="Path 96690" d="M272.7,62.083l.1,102.876v20.9a8.919,8.919,0,0,1-.119,1.624,6.74,6.74,0,0,1-1.337,2.949,6.615,6.615,0,0,1-1.176,1.149,6.294,6.294,0,0,1-1.444.766,5.489,5.489,0,0,1-1.6.326c-.548.034-1.076,0-1.612.019H246.23l-25.715.027H209.262a7,7,0,0,1-1.639-.146,5.822,5.822,0,0,1-2.846-1.609,6.634,6.634,0,0,1-1.658-2.819,7.109,7.109,0,0,1-.26-1.628c-.031-.552,0-1.076,0-1.616v-3.213l.1-102.876V62.734a26.6,26.6,0,0,1,.146-3.217l.123-.8.184-.789c.077-.257.172-.513.26-.766a7.549,7.549,0,0,1,.383-.724,3.83,3.83,0,0,1,1.115-1.183,4.477,4.477,0,0,1,1.532-.586,18.175,18.175,0,0,1,3.221-.153h10.414a1.4,1.4,0,0,1,.414.031,1.092,1.092,0,0,1,.383.184,1.942,1.942,0,0,1,.663,1.494,5.263,5.263,0,0,0,.142,1.578,1.417,1.417,0,0,0,.383.655A1.532,1.532,0,0,0,223,58.8a7.071,7.071,0,0,0,1.589.1H251.91a2.344,2.344,0,0,0,1.494-.433,1.467,1.467,0,0,0,.44-.659,3.012,3.012,0,0,0,.134-.766v-.8a2.256,2.256,0,0,1,.165-.793,1.57,1.57,0,0,1,.475-.651,1.08,1.08,0,0,1,.36-.188,1.456,1.456,0,0,1,.406-.031h11.253a11.833,11.833,0,0,1,1.6.088A4.485,4.485,0,0,1,271.079,56a5.967,5.967,0,0,1,1.341,2.9,17.544,17.544,0,0,1,.28,3.179Zm0,0a17.552,17.552,0,0,0-.287-3.2,5.975,5.975,0,0,0-1.333-2.876,4.485,4.485,0,0,0-2.842-1.318,11.766,11.766,0,0,0-1.6-.08h-11.26a1.5,1.5,0,0,0-.383.034,1.117,1.117,0,0,0-.349.18,1.532,1.532,0,0,0-.46.632,4.43,4.43,0,0,0-.172,1.578,3.156,3.156,0,0,1-.138.8,1.532,1.532,0,0,1-.414.689,2.375,2.375,0,0,1-1.532.448H224.6a7.354,7.354,0,0,1-1.612-.107,1.659,1.659,0,0,1-.735-.383,1.532,1.532,0,0,1-.425-.7,5.592,5.592,0,0,1-.153-1.555,1.827,1.827,0,0,0-.62-1.375,1.123,1.123,0,0,0-.341-.165,1.559,1.559,0,0,0-.383-.027H209.882a18.469,18.469,0,0,0-3.194.157,4.424,4.424,0,0,0-1.463.567,3.7,3.7,0,0,0-1.069,1.149c-.138.222-.237.471-.356.7a4.077,4.077,0,0,0-.249.766l-.184.766-.115.789a25.475,25.475,0,0,0-.142,3.2V78.828l.1,102.876v4.811a6.794,6.794,0,0,0,.245,1.532,6.247,6.247,0,0,0,1.559,2.681,5.488,5.488,0,0,0,2.681,1.532,6.719,6.719,0,0,0,1.555.142h11.276l25.715.027h20.889a5.266,5.266,0,0,0,1.532-.31,5.787,5.787,0,0,0,1.386-.732,6.353,6.353,0,0,0,1.13-1.092,6.511,6.511,0,0,0,1.3-2.842,9.052,9.052,0,0,0,.115-1.582V164.978Z" transform="translate(-202.844 -54.5)" fill="#263238"/>
      <path id="Path_96691" data-name="Path 96691" d="M273,62.225v14.88H203.33V62.225c0-7.147,2.627-7.5,5.875-7.5h11.617c.674,0,1.226.766,1.226,1.716v.41c0,2.225,1.218,2.233,2.712,2.233h26.833c1.509,0,2.719,0,2.719-2.233v-.41c0-.95.544-1.716,1.229-1.716h11.6C270.372,54.73,273,55.68,273,62.225Z" transform="translate(-203.144 -54.642)" fill="#ea914e"/>
      <g id="freepik--u5Zjqx--inject-5" transform="translate(13.155 2.363)">
        <path id="Path_96692" data-name="Path 96692" d="M239.7,61.179l-.115.111-.061.065a1.532,1.532,0,0,0-2.164,0l-.057-.065-.111-.111h0c.046-.042.092-.084.142-.123a1.739,1.739,0,0,1,.766-.356.539.539,0,0,0,.218-.031h.337a1.776,1.776,0,0,1,.383.1,1.711,1.711,0,0,1,.268.126,2.094,2.094,0,0,1,.26.18l.119.107Z" transform="translate(-237.19 -60.67)" fill="#fff"/>
        <path id="Path_96693" data-name="Path 96693" d="M238.276,62.5l-.176-.176a1.272,1.272,0,0,1,1.8,0l-.176.176A1.026,1.026,0,0,0,238.276,62.5Z" transform="translate(-237.751 -61.46)" fill="#fff"/>
        <path id="Path_96694" data-name="Path 96694" d="M240.088,63.459l-.176.176a.555.555,0,0,0-.766,0l-.176-.176a.766.766,0,0,1,1.118,0Z" transform="translate(-238.288 -62.241)" fill="#fff"/>
        <path id="Path_96695" data-name="Path 96695" d="M240.318,64.468a.157.157,0,0,1-.157.157.161.161,0,1,1,0-.318.157.157,0,0,1,.157.161Z" transform="translate(-238.909 -62.913)" fill="#fff"/>
      </g>
      <path id="Path_96696" data-name="Path 96696" d="M215.19,62.143a.463.463,0,1,1,.463.463A.463.463,0,0,1,215.19,62.143Z" transform="translate(-210.462 -58.93)" fill="#fff"/>
      <path id="Path_96697" data-name="Path 96697" d="M219,62.143a.46.46,0,1,1,.133.327.463.463,0,0,1-.133-.327Z" transform="translate(-212.812 -58.93)" fill="#fff"/>
      <path id="Path_96698" data-name="Path 96698" d="M222.79,62.143a.46.46,0,1,1,.135.329A.463.463,0,0,1,222.79,62.143Z" transform="translate(-215.151 -58.93)" fill="#fff"/>
      <path id="Path_96699" data-name="Path 96699" d="M226.58,62.143a.463.463,0,1,1,.463.463A.463.463,0,0,1,226.58,62.143Z" transform="translate(-217.489 -58.93)" fill="#fff"/>
      <path id="Path_96700" data-name="Path 96700" d="M230.38,62.143a.463.463,0,1,1,.463.463A.463.463,0,0,1,230.38,62.143Z" transform="translate(-219.834 -58.93)" fill="#fff"/>
      <path id="Path_96701" data-name="Path 96701" d="M365.531,62.731H361.77V61h3.761Zm-3.57-.191h3.378V61.184h-3.378Z" transform="translate(-300.9 -58.51)" fill="#fff"/>
      <rect id="Rectangle_10867" data-name="Rectangle 10867" width="2.424" height="1.149" transform="translate(61.184 2.777)" fill="#fff"/>
      <rect id="Rectangle_10868" data-name="Rectangle 10868" width="0.333" height="0.931" transform="translate(64.631 2.888)" fill="#fff"/>
      <path id="Path_96702" data-name="Path 96702" d="M216.6,96.263l-2.057-1.927L216.6,92.41l.318.337-1.693,1.589,1.693,1.589Z" transform="translate(-210.061 -77.89)" fill="#fff"/>
      <path id="Path_96703" data-name="Path 96703" d="M269.156,95.637h-.444v.785a.2.2,0,0,1-.4,0V94.289a.2.2,0,0,1,.2-.2h.647a.766.766,0,0,1,0,1.532Zm-.444-.383h.444a.383.383,0,1,0,0-.743h-.444Z" transform="translate(-243.236 -78.927)" fill="#fff"/>
      <path id="Path_96704" data-name="Path 96704" d="M274.2,96.045h-.877l-.176.471a.211.211,0,0,1-.188.126.184.184,0,0,1-.069,0,.2.2,0,0,1-.119-.26l.8-2.13a.207.207,0,0,1,.383,0l.816,2.122a.2.2,0,0,1-.119.26.183.183,0,0,1-.069,0,.2.2,0,0,1-.184-.126Zm-.149-.383-.291-.766-.295.766Z" transform="translate(-245.98 -78.948)" fill="#fff"/>
      <path id="Path_96705" data-name="Path 96705" d="M278.816,95.879a.191.191,0,0,1,.264-.023,1.149,1.149,0,0,0,.689.276.808.808,0,0,0,.452-.13.329.329,0,0,0,.153-.26.238.238,0,0,0-.031-.119.382.382,0,0,0-.111-.107,1.387,1.387,0,0,0-.494-.169h0a2.052,2.052,0,0,1-.463-.142.766.766,0,0,1-.337-.28.567.567,0,0,1-.084-.3.662.662,0,0,1,.291-.525,1.068,1.068,0,0,1,.624-.191,1.417,1.417,0,0,1,.766.287.188.188,0,0,1,.054.257.184.184,0,0,1-.257.054,1.054,1.054,0,0,0-.582-.23.689.689,0,0,0-.406.123.291.291,0,0,0-.138.226.172.172,0,0,0,.027.1.337.337,0,0,0,.1.092,1.245,1.245,0,0,0,.448.161h0a2,2,0,0,1,.5.149.858.858,0,0,1,.364.3.574.574,0,0,1,.084.306.7.7,0,0,1-.31.559,1.122,1.122,0,0,1-.666.207,1.555,1.555,0,0,1-.927-.383.2.2,0,0,1-.008-.245Z" transform="translate(-249.694 -78.815)" fill="#fff"/>
      <path id="Path_96706" data-name="Path 96706" d="M285.028,95.878a.188.188,0,0,1,.26-.023,1.187,1.187,0,0,0,.693.276.785.785,0,0,0,.448-.13.326.326,0,0,0,.157-.26.207.207,0,0,0-.034-.119.352.352,0,0,0-.107-.107,1.386,1.386,0,0,0-.494-.169h0a1.99,1.99,0,0,1-.463-.142.766.766,0,0,1-.337-.28.567.567,0,0,1-.084-.3.663.663,0,0,1,.291-.525,1.061,1.061,0,0,1,.624-.192,1.417,1.417,0,0,1,.785.287.188.188,0,0,1-.207.31,1.042,1.042,0,0,0-.578-.23.689.689,0,0,0-.406.123.291.291,0,0,0-.138.226.172.172,0,0,0,.027.1.382.382,0,0,0,.1.092,1.294,1.294,0,0,0,.452.161h0a2.053,2.053,0,0,1,.5.149.823.823,0,0,1,.36.3.544.544,0,0,1,.088.306.7.7,0,0,1-.31.559,1.122,1.122,0,0,1-.666.207,1.555,1.555,0,0,1-.927-.383A.191.191,0,0,1,285.028,95.878Z" transform="translate(-253.531 -78.815)" fill="#fff"/>
      <path id="Path_96707" data-name="Path 96707" d="M294.423,94.424l-.885,2.1a.1.1,0,0,1,0,.034h0l-.019.023h-.027a.065.065,0,0,1-.031.023h-.142a.092.092,0,0,1-.031-.023h-.027v-.023h0a.1.1,0,0,1,0-.034l-.471-1.118-.475,1.118v.034l-.019.023h-.023l-.027.023H292.1a.092.092,0,0,1-.031-.023h-.027l-.019-.023h0a.241.241,0,0,0,0-.034l-1.049-2.1a.206.206,0,0,1,.383-.153l.709,1.674.467-1.111a.2.2,0,0,1,.188-.123.211.211,0,0,1,.169.142l.463,1.111.7-1.674a.2.2,0,0,1,.264-.1A.191.191,0,0,1,294.423,94.424Z" transform="translate(-257.212 -78.958)" fill="#fff"/>
      <path id="Path_96708" data-name="Path 96708" d="M303.217,94.293a1.333,1.333,0,0,1,0,1.831,1.191,1.191,0,0,1-.862.383,1.218,1.218,0,0,1-.885-.383,1.344,1.344,0,0,1,0-1.831,1.2,1.2,0,0,1,.885-.383,1.172,1.172,0,0,1,.862.383Zm-.046.915a.953.953,0,0,0-.245-.632.766.766,0,0,0-1.149,0,.915.915,0,0,0-.245.632.892.892,0,0,0,.245.628.766.766,0,0,0,1.149,0A.927.927,0,0,0,303.171,95.208Z" transform="translate(-263.474 -78.815)" fill="#fff"/>
      <path id="Path_96709" data-name="Path 96709" d="M311.02,96.319a.2.2,0,0,1-.126.253.3.3,0,0,1-.08,0h0a.291.291,0,0,1-.142-.038.407.407,0,0,1-.115-.126,1,1,0,0,1-.073-.433.3.3,0,0,0-.046-.157.31.31,0,0,0-.107-.1.624.624,0,0,0-.2-.088H309.7v.785a.2.2,0,0,1-.2.2.2.2,0,0,1-.2-.2V94.289a.2.2,0,0,1,.2-.2h.647a.766.766,0,0,1,.49,1.371.528.528,0,0,1,.126.134.674.674,0,0,1,.119.383.833.833,0,0,0,0,.211A.2.2,0,0,1,311.02,96.319Zm-.506-1.452a.383.383,0,0,0-.383-.383h-.444v.743h.444A.383.383,0,0,0,310.514,94.867Z" transform="translate(-268.527 -78.926)" fill="#fff"/>
      <path id="Path_96710" data-name="Path 96710" d="M315.32,96.423V94.289a.2.2,0,0,1,.2-.2h.444a1.268,1.268,0,0,1,0,2.532h-.425a.2.2,0,0,1-.218-.2Zm.4-.2h.241a.866.866,0,0,0,0-1.727h-.222Z" transform="translate(-272.241 -78.927)" fill="#fff"/>
      <path id="Path_96711" data-name="Path 96711" d="M228.71,268.211v-1.582a.145.145,0,0,1,.149-.149h.877a.149.149,0,0,1,.146.149.153.153,0,0,1-.146.149h-.728v.49h.624a.149.149,0,1,1,0,.3h-.624v.494h.728a.149.149,0,0,1,0,.295h-.877a.146.146,0,0,1-.149-.146Z" transform="translate(-218.803 -185.29)" fill="#263238"/>
      <path id="Path_96712" data-name="Path 96712" d="M233.931,268.475v.643a.142.142,0,0,1-.146.142.146.146,0,0,1-.142-.142v-.643a.28.28,0,0,0-.28-.268.272.272,0,0,0-.268.276v.636a.16.16,0,0,1,0,.019h0v.019h0a.149.149,0,0,1-.134.084h-.027a.145.145,0,0,1-.115-.142v-.636h0v-.4a.142.142,0,0,1,.142-.146.13.13,0,0,1,.126.08.59.59,0,0,1,.287-.08.567.567,0,0,0,.843,0,.559.559,0,0,1,.559.563v.636a.142.142,0,0,1-.142.142.145.145,0,0,1-.146-.142v-.636a.276.276,0,0,0-.548,0Z" transform="translate(-221.339 -186.178)" fill="#263238"/>
      <path id="Path_96713" data-name="Path 96713" d="M240.349,268.594v.525a.142.142,0,0,1-.142.142.146.146,0,0,1-.142-.115.62.62,0,0,1-.812-.08.7.7,0,0,1,0-.942.62.62,0,0,1,.456-.2.613.613,0,0,1,.356.119.149.149,0,0,1,.142-.119.146.146,0,0,1,.142.146Zm-.287,0a.383.383,0,0,0-.1-.276.33.33,0,0,0-.249-.111.322.322,0,0,0-.249.111.419.419,0,0,0,0,.551.333.333,0,0,0,.249.107.337.337,0,0,0,.249-.107A.383.383,0,0,0,240.062,268.594Z" transform="translate(-225.195 -186.178)" fill="#263238"/>
      <path id="Path_96714" data-name="Path 96714" d="M244.071,266.723a.142.142,0,0,1-.146.146.146.146,0,0,1-.146-.146v-.057a.146.146,0,0,1,.146-.146.142.142,0,0,1,.146.146Zm0,.483v1.049a.146.146,0,0,1-.291,0v-1.049a.146.146,0,1,1,.291,0Z" transform="translate(-228.101 -185.315)" fill="#263238"/>
      <path id="Path_96715" data-name="Path 96715" d="M245.766,266.52a.149.149,0,0,1,.149.149v1.566a.149.149,0,0,1-.295,0v-1.582A.149.149,0,0,1,245.766,266.52Z" transform="translate(-229.237 -185.315)" fill="#263238"/>
      <rect id="Rectangle_10869" data-name="Rectangle 10869" width="50.779" height="4.497" transform="translate(9.631 84.993)" fill="#ebebeb"/>
      <path id="Path_96716" data-name="Path 96716" d="M231.371,281.76a.666.666,0,0,1,.655-.67.643.643,0,0,1,.647.624h0a.065.065,0,0,1,0,.027.13.13,0,0,1-.138.107h-.854a.33.33,0,0,0,.092.176.4.4,0,0,0,.257.119.456.456,0,0,0,.28-.065.142.142,0,0,1,.2,0,.122.122,0,0,1,0,.172.678.678,0,0,1-1.149-.494Zm.291-.13h.766a.44.44,0,0,0-.383-.283A.383.383,0,0,0,231.663,281.63Z" transform="translate(-220.438 -194.304)" fill="#c7c7c7"/>
      <path id="Path_96717" data-name="Path 96717" d="M237.041,281.553v.643a.142.142,0,0,1-.142.142.145.145,0,0,1-.146-.142v-.643a.28.28,0,0,0-.276-.268.272.272,0,0,0-.272.276v.636h0a.149.149,0,0,1-.134.084h-.027a.146.146,0,0,1-.115-.142V281.5h0v-.417a.143.143,0,0,1,.272-.065.567.567,0,0,1,.287-.08.552.552,0,0,1,.421.188.54.54,0,0,1,.421-.188.559.559,0,0,1,.555.563v.636a.142.142,0,0,1-.142.142.146.146,0,0,1-.146-.142V281.5a.272.272,0,0,0-.268-.276.28.28,0,0,0-.291.326Z" transform="translate(-223.258 -194.211)" fill="#c7c7c7"/>
      <path id="Path_96718" data-name="Path 96718" d="M243.465,281.764v.525a.142.142,0,0,1-.142.142.149.149,0,0,1-.142-.115.6.6,0,0,1-.356.115.617.617,0,0,1-.456-.2.682.682,0,0,1-.18-.471.674.674,0,0,1,.18-.471.624.624,0,0,1,.456-.2.6.6,0,0,1,.356.119.153.153,0,0,1,.142-.119.146.146,0,0,1,.142.146Zm-.283,0a.383.383,0,0,0-.107-.276.333.333,0,0,0-.5,0,.419.419,0,0,0,0,.552.341.341,0,0,0,.5,0,.383.383,0,0,0,.107-.276Z" transform="translate(-227.12 -194.304)" fill="#c7c7c7"/>
      <path id="Path_96719" data-name="Path 96719" d="M247.184,279.855a.146.146,0,1,1-.287,0V279.8a.146.146,0,1,1,.287,0Zm0,.483v1.049a.146.146,0,0,1-.287,0v-1.049a.146.146,0,1,1,.287,0Z" transform="translate(-230.023 -193.403)" fill="#c7c7c7"/>
      <path id="Path_96720" data-name="Path 96720" d="M248.906,279.69a.153.153,0,0,1,.153.149v1.582a.149.149,0,0,1-.153.146.146.146,0,0,1-.146-.146v-1.582A.149.149,0,0,1,248.906,279.69Z" transform="translate(-231.174 -193.44)" fill="#c7c7c7"/>
      <path id="Path_96721" data-name="Path 96721" d="M251.355,281.764v.525a.138.138,0,0,1-.142.142.142.142,0,0,1-.138-.115.62.62,0,0,1-.812-.08.7.7,0,0,1,0-.942.62.62,0,0,1,.456-.2.612.612,0,0,1,.356.119.146.146,0,0,1,.138-.119.142.142,0,0,1,.142.146Zm-.283,0a.383.383,0,0,0-.1-.276.333.333,0,0,0-.249-.111.322.322,0,0,0-.249.111.419.419,0,0,0,0,.552.333.333,0,0,0,.249.107.344.344,0,0,0,.249-.107A.383.383,0,0,0,251.072,281.764Z" transform="translate(-231.988 -194.304)" fill="#c7c7c7"/>
      <path id="Path_96722" data-name="Path 96722" d="M255.871,281.457a.145.145,0,0,1-.146.142.142.142,0,0,1-.142-.115.632.632,0,0,1-.364.115.67.67,0,1,1,0-1.341.608.608,0,0,1,.356.115v-.506a.149.149,0,0,1,.295,0v1.061h0Zm-.651-.9a.341.341,0,0,0-.253.107.383.383,0,0,0-.107.272.36.36,0,0,0,.107.264.337.337,0,0,0,.5,0,.36.36,0,0,0,.107-.264.383.383,0,0,0-.107-.272.337.337,0,0,0-.264-.107Z" transform="translate(-234.746 -193.473)" fill="#c7c7c7"/>
      <path id="Path_96723" data-name="Path 96723" d="M260.233,281.238a.146.146,0,0,1-.142.146.261.261,0,0,0-.161.05.383.383,0,0,0-.123.126.893.893,0,0,0-.111.226v.509a.142.142,0,0,1-.146.142.138.138,0,0,1-.142-.142v-1.057a.138.138,0,0,1,.142-.138.142.142,0,0,1,.146.138v.019a.384.384,0,0,1,.057-.054.586.586,0,0,1,.337-.1.138.138,0,0,1,.142.138Z" transform="translate(-237.745 -194.31)" fill="#c7c7c7"/>
      <path id="Path_96724" data-name="Path 96724" d="M261.88,281.76a.666.666,0,0,1,.655-.67.643.643,0,0,1,.647.624h0a.066.066,0,0,1,0,.027.13.13,0,0,1-.138.107h-.854a.357.357,0,0,0,.092.176.414.414,0,0,0,.257.119.456.456,0,0,0,.28-.065.149.149,0,0,1,.2,0,.123.123,0,0,1,0,.172.678.678,0,0,1-.483.176.663.663,0,0,1-.659-.666Zm.295-.13h.766a.44.44,0,0,0-.383-.283A.383.383,0,0,0,262.175,281.63Z" transform="translate(-239.269 -194.304)" fill="#c7c7c7"/>
      <path id="Path_96725" data-name="Path 96725" d="M266.152,282.078a.142.142,0,0,1,.2,0,.52.52,0,0,0,.295.119.344.344,0,0,0,.18-.054.107.107,0,0,0,.05-.08.053.053,0,0,0,0-.027.092.092,0,0,0-.034-.031.642.642,0,0,0-.214-.077h0a1.045,1.045,0,0,1-.234-.069.429.429,0,0,1-.184-.157.31.31,0,0,1-.046-.169.383.383,0,0,1,.157-.295.574.574,0,0,1,.329-.1.662.662,0,0,1,.4.149.149.149,0,0,1,.046.2.146.146,0,0,1-.2.034.483.483,0,0,0-.249-.1.276.276,0,0,0-.161.046.08.08,0,0,0-.042.061v.023c0,.023,0,0,.027.027a.667.667,0,0,0,.2.065h0a1.054,1.054,0,0,1,.249.08.383.383,0,0,1,.191.157.36.36,0,0,1,.05.176.383.383,0,0,1-.169.31.6.6,0,0,1-.349.107.766.766,0,0,1-.479-.184.146.146,0,0,1-.015-.218Z" transform="translate(-241.879 -194.335)" fill="#c7c7c7"/>
      <path id="Path_96726" data-name="Path 96726" d="M269.531,282.078a.138.138,0,0,1,.2,0,.521.521,0,0,0,.295.119.361.361,0,0,0,.184-.054.1.1,0,0,0,.046-.08.031.031,0,0,0,0-.027s0-.019-.034-.031a.639.639,0,0,0-.214-.077h0a1.045,1.045,0,0,1-.234-.069.46.46,0,0,1-.188-.157.345.345,0,0,1-.046-.169.383.383,0,0,1,.161-.295.566.566,0,0,1,.329-.1.674.674,0,0,1,.4.149.141.141,0,1,1-.157.234.471.471,0,0,0-.245-.1.268.268,0,0,0-.161.046.08.08,0,0,0-.042.061.043.043,0,0,0,0,.023.119.119,0,0,0,.031.027.628.628,0,0,0,.2.065h0a1.051,1.051,0,0,1,.249.08.383.383,0,0,1,.191.157.322.322,0,0,1,.05.176.383.383,0,0,1-.169.31.59.59,0,0,1-.349.107.766.766,0,0,1-.475-.184.142.142,0,0,1-.019-.218Z" transform="translate(-243.963 -194.335)" fill="#c7c7c7"/>
      <path id="Path_96727" data-name="Path 96727" d="M274.778,280.664a.9.9,0,0,1-.1.429h0a.575.575,0,0,1-.065.1.429.429,0,0,1-.211.126.21.21,0,0,1-.069,0,.23.23,0,0,1-.2-.1.218.218,0,0,1-.046-.08.513.513,0,0,1-.241.061.5.5,0,0,1-.383-.161.563.563,0,0,1-.149-.383.552.552,0,0,1,.149-.383.5.5,0,0,1,.383-.165.517.517,0,0,1,.383.165.548.548,0,0,1,.146.383V281h0a.2.2,0,0,0,.034-.042.651.651,0,0,0,.069-.291.64.64,0,1,0-.643.64.716.716,0,0,0,.161,0,.146.146,0,0,1,.18.1.153.153,0,0,1-.107.184.938.938,0,1,1,.7-.912Zm-.716,0a.261.261,0,0,0-.065-.18.218.218,0,0,0-.31,0,.28.28,0,0,0,0,.36.215.215,0,0,0,.153.065.218.218,0,0,0,.157-.065.26.26,0,0,0,.084-.18Z" transform="translate(-246.062 -193.476)" fill="#c7c7c7"/>
      <path id="Path_96728" data-name="Path 96728" d="M281.211,281.553v.643a.142.142,0,0,1-.142.142.145.145,0,0,1-.146-.142v-.643a.28.28,0,0,0-.276-.268.272.272,0,0,0-.272.276v.636h0a.149.149,0,0,1-.134.084h-.027a.146.146,0,0,1-.115-.142V281.5h0v-.417a.143.143,0,0,1,.272-.065.567.567,0,0,1,.287-.08.552.552,0,0,1,.421.188.532.532,0,0,1,.417-.188.559.559,0,0,1,.559.563v.636a.142.142,0,0,1-.142.142.146.146,0,0,1-.146-.142V281.5a.272.272,0,0,0-.272-.276.28.28,0,0,0-.287.326Z" transform="translate(-250.51 -194.211)" fill="#c7c7c7"/>
      <path id="Path_96729" data-name="Path 96729" d="M287.629,281.764v.525a.142.142,0,0,1-.142.142.149.149,0,0,1-.142-.115.6.6,0,0,1-.356.115.616.616,0,0,1-.456-.2.7.7,0,0,1,0-.942.624.624,0,0,1,.456-.2.6.6,0,0,1,.356.119.153.153,0,0,1,.142-.119.145.145,0,0,1,.142.146Zm-.283,0a.383.383,0,0,0-.107-.276.333.333,0,0,0-.5,0,.419.419,0,0,0,0,.552.341.341,0,0,0,.5,0,.383.383,0,0,0,.126-.276Z" transform="translate(-254.367 -194.304)" fill="#c7c7c7"/>
      <path id="Path_96730" data-name="Path 96730" d="M291.354,279.855a.146.146,0,1,1-.287,0V279.8a.146.146,0,1,1,.287,0Zm0,.483v1.049a.146.146,0,0,1-.287,0v-1.049a.146.146,0,1,1,.287,0Z" transform="translate(-257.276 -193.403)" fill="#c7c7c7"/>
      <path id="Path_96731" data-name="Path 96731" d="M293.076,279.69a.153.153,0,0,1,.153.149v1.582a.149.149,0,0,1-.153.146.146.146,0,0,1-.146-.146v-1.582A.149.149,0,0,1,293.076,279.69Z" transform="translate(-258.427 -193.44)" fill="#c7c7c7"/>
      <path id="Path_96732" data-name="Path 96732" d="M294.77,283.6a.17.17,0,1,1-.18.2A.2.2,0,0,1,294.77,283.6Z" transform="translate(-259.451 -195.853)" fill="#c7c7c7"/>
      <path id="Path_96733" data-name="Path 96733" d="M295.85,281.764a.686.686,0,0,1,.682-.674.7.7,0,0,1,.425.149.142.142,0,0,1-.172.226.406.406,0,0,0-.253-.088.383.383,0,1,0,0,.766.436.436,0,0,0,.253-.084.142.142,0,1,1,.172.226.724.724,0,0,1-.425.142A.678.678,0,0,1,295.85,281.764Z" transform="translate(-260.228 -194.304)" fill="#c7c7c7"/>
      <path id="Path_96734" data-name="Path 96734" d="M300.007,282.235a.651.651,0,0,1-.188-.471.681.681,0,0,1,.188-.471.632.632,0,0,1,.46-.2.609.609,0,0,1,.448.2.666.666,0,0,1,.188.471.636.636,0,0,1-.188.471.6.6,0,0,1-.448.207A.624.624,0,0,1,300.007,282.235Zm.107-.471a.429.429,0,0,0,.1.283.352.352,0,0,0,.257.1.337.337,0,0,0,.245-.1.421.421,0,0,0,0-.563.366.366,0,0,0-.5,0,.425.425,0,0,0-.1.28Z" transform="translate(-262.677 -194.304)" fill="#c7c7c7"/>
      <path id="Path_96735" data-name="Path 96735" d="M305.5,281.553v.643a.142.142,0,0,1-.142.142.145.145,0,0,1-.146-.142v-.643a.28.28,0,0,0-.276-.268.272.272,0,0,0-.272.276v.636h0a.149.149,0,0,1-.134.084H304.5a.146.146,0,0,1-.115-.142V281.5h0v-.417a.143.143,0,0,1,.272-.065.568.568,0,0,1,.287-.08.552.552,0,0,1,.421.188.533.533,0,0,1,.418-.188.559.559,0,0,1,.559.563v.636a.142.142,0,0,1-.142.142.146.146,0,0,1-.146-.142V281.5a.272.272,0,0,0-.272-.276.28.28,0,0,0-.287.326Z" transform="translate(-265.497 -194.211)" fill="#c7c7c7"/>
      <path id="Path_96736" data-name="Path 96736" d="M233.99,238.386l5.772-.046,5.772-.015,11.548-.034,11.544.034,5.772.015,5.772.046-5.772.046-5.772.019-11.544.031-11.548-.031-5.772-.019Z" transform="translate(-222.061 -167.897)" fill="#263238"/>
      <path id="Path_96737" data-name="Path 96737" d="M245.12,245.066l4.707-.046,4.707-.015,9.414-.034,9.414.034,4.7.015,4.707.046-4.707.046-4.7.019-9.414.031-9.414-.031-4.707-.019Z" transform="translate(-228.928 -172.018)" fill="#263238"/>
      <path id="Path_96738" data-name="Path 96738" d="M227.99,310.186l6.346-.05,6.346-.015,12.7-.031,12.693.031,6.35.015,6.346.05-6.346.046-6.35.015-12.693.031-12.7-.031-6.346-.015Z" transform="translate(-218.359 -212.197)" fill="#ebebeb"/>
      <rect id="Rectangle_10870" data-name="Rectangle 10870" width="39.737" height="6.17" transform="translate(15.15 104.642)" fill="#ea914e"/>
      <path id="Path_96739" data-name="Path 96739" d="M261.859,334.247a.437.437,0,0,0-.2-.364.692.692,0,0,0-.28-.119h-.605v.954a.084.084,0,0,1-.168,0V332.47a.08.08,0,0,1,.077-.08h.689a.689.689,0,0,1,.291,1.31h.034a.609.609,0,0,1,.322.536.99.99,0,0,0,.031.28.141.141,0,0,0,.038.061.092.092,0,0,1,.092.054.1.1,0,0,1-.057.111h-.046a.191.191,0,0,1-.157-.111A.847.847,0,0,1,261.859,334.247Zm-.483-1.7h-.6v1.042h.613a.521.521,0,1,0,0-1.042Z" transform="translate(-238.485 -225.956)" fill="#fff"/>
      <path id="Path_96740" data-name="Path 96740" d="M265.86,335.176a.82.82,0,0,1,1.635-.061h0a.08.08,0,0,1-.084.077h-1.387a.666.666,0,0,0,.655.651.628.628,0,0,0,.544-.31.088.088,0,0,1,.111-.027.092.092,0,0,1,.031.119.812.812,0,0,1-.686.383A.831.831,0,0,1,265.86,335.176Zm.176-.134h1.279a.647.647,0,0,0-1.279,0Z" transform="translate(-241.725 -227.179)" fill="#fff"/>
      <path id="Path_96741" data-name="Path 96741" d="M271.306,335.621a.084.084,0,0,1,.119,0,.885.885,0,0,0,.517.2.483.483,0,0,0,.318-.107.253.253,0,0,0,.13-.207.268.268,0,0,0-.123-.207.847.847,0,0,0-.36-.123h0a.938.938,0,0,1-.383-.13.352.352,0,0,1-.184-.3.425.425,0,0,1,.184-.333.728.728,0,0,1,.414-.111.911.911,0,0,1,.5.18.092.092,0,0,1,.027.119.08.08,0,0,1-.115.023.766.766,0,0,0-.414-.169.517.517,0,0,0-.322.1.26.26,0,0,0-.107.2.207.207,0,0,0,.1.169.881.881,0,0,0,.345.115h0a1.23,1.23,0,0,1,.41.138.425.425,0,0,1,.191.345.437.437,0,0,1-.2.345.689.689,0,0,1-.417.134,1.015,1.015,0,0,1-.624-.241.08.08,0,0,1-.008-.126Z" transform="translate(-245.068 -227.134)" fill="#fff"/>
      <path id="Path_96742" data-name="Path 96742" d="M275.77,335.176a.82.82,0,0,1,1.635-.061h0a.08.08,0,0,1-.084.077h-1.387a.666.666,0,0,0,.655.651.628.628,0,0,0,.544-.31.084.084,0,1,1,.138.092.8.8,0,0,1-.682.383A.831.831,0,0,1,275.77,335.176Zm.176-.134h1.279a.647.647,0,0,0-1.279,0Z" transform="translate(-247.839 -227.179)" fill="#fff"/>
      <path id="Path_96743" data-name="Path 96743" d="M281.537,333.193a.088.088,0,0,1-.08.084h-.2v1.229a.134.134,0,0,0,.126.126.084.084,0,0,1,0,.169.287.287,0,0,1-.3-.295v-1.229h-.211c-.08,0-.08-.042-.08-.084s0-.08.08-.08h.211v-.628a.092.092,0,0,1,.084-.084.1.1,0,0,1,.088.084v.628h.218A.084.084,0,0,1,281.537,333.193Z" transform="translate(-250.936 -225.962)" fill="#fff"/>
      <path id="Path_96744" data-name="Path 96744" d="M287.575,332.45a.08.08,0,0,1,.084-.08h.682a.689.689,0,0,1,0,1.375l-.613.015v.946a.084.084,0,1,1-.169,0Zm.766,1.13a.521.521,0,1,0,0-1.042h-.613v1.042Z" transform="translate(-255.113 -225.943)" fill="#fff"/>
      <path id="Path_96745" data-name="Path 96745" d="M293.889,334.353v1.532a.084.084,0,1,1-.165,0v-.253a.766.766,0,0,1-.636.337.846.846,0,0,1,0-1.689.785.785,0,0,1,.636.329v-.249a.083.083,0,0,1,.165-.008Zm-.165.766a.636.636,0,1,0-.636.682.659.659,0,0,0,.628-.686Z" transform="translate(-258.037 -227.122)" fill="#fff"/>
      <path id="Path_96746" data-name="Path 96746" d="M297.973,335.621a.08.08,0,0,1,.115,0,.9.9,0,0,0,.517.2.5.5,0,0,0,.322-.107.249.249,0,0,0,.126-.207.276.276,0,0,0-.119-.207.865.865,0,0,0-.36-.123h0a.98.98,0,0,1-.383-.13.356.356,0,0,1-.18-.3.433.433,0,0,1,.18-.333.766.766,0,0,1,.417-.111.923.923,0,0,1,.5.18.084.084,0,0,1,.023.119.077.077,0,0,1-.111.023.766.766,0,0,0-.414-.169.509.509,0,0,0-.322.1.261.261,0,0,0-.107.2.207.207,0,0,0,.1.169.881.881,0,0,0,.345.115h0a1.26,1.26,0,0,1,.41.138.425.425,0,0,1,.192.345.437.437,0,0,1-.2.345.7.7,0,0,1-.421.134,1.027,1.027,0,0,1-.632-.272A.077.077,0,0,1,297.973,335.621Z" transform="translate(-261.528 -227.134)" fill="#fff"/>
      <path id="Path_96747" data-name="Path 96747" d="M302.309,335.621a.084.084,0,0,1,.119,0,.892.892,0,0,0,.517.2.5.5,0,0,0,.322-.107.257.257,0,0,0,.126-.207.276.276,0,0,0-.119-.207.867.867,0,0,0-.36-.123h0a.98.98,0,0,1-.383-.13.349.349,0,0,1-.18-.3.421.421,0,0,1,.18-.333.728.728,0,0,1,.414-.111.939.939,0,0,1,.506.18.088.088,0,0,1,.023.119.081.081,0,0,1-.115.023.766.766,0,0,0-.414-.169.5.5,0,0,0-.318.1.261.261,0,0,0-.107.2.207.207,0,0,0,.1.169.858.858,0,0,0,.345.115h0a1.261,1.261,0,0,1,.41.138.421.421,0,0,1,.188.345.433.433,0,0,1-.191.345.709.709,0,0,1-.421.134,1.026,1.026,0,0,1-.624-.241.08.08,0,0,1-.012-.126Z" transform="translate(-264.198 -227.134)" fill="#fff"/>
      <path id="Path_96748" data-name="Path 96748" d="M307.341,335.954a.058.058,0,0,1-.034-.038l-.636-1.509a.084.084,0,0,1,.042-.107.08.08,0,0,1,.107.046l.563,1.329.383-.927a.088.088,0,0,1,.077-.054.1.1,0,0,1,.084.054l.383.927.555-1.329a.084.084,0,0,1,.107-.046.08.08,0,0,1,.046.107l-.632,1.5a.088.088,0,0,1-.031.042.062.062,0,0,1-.042.019h0a.084.084,0,0,1-.065-.054h0l-.383-.935-.383.931h0a.088.088,0,0,1-.073.054h-.031Z" transform="translate(-266.901 -227.13)" fill="#fff"/>
      <path id="Path_96749" data-name="Path 96749" d="M315.07,334.258a.846.846,0,1,1-.8.843A.823.823,0,0,1,315.07,334.258Zm0,1.532a.682.682,0,1,0-.636-.682.663.663,0,0,0,.636.674Z" transform="translate(-271.593 -227.108)" fill="#fff"/>
      <path id="Path_96750" data-name="Path 96750" d="M319.92,334.344a.084.084,0,0,1,.088-.084.08.08,0,0,1,.077.084v.383l.027-.042a.816.816,0,0,1,.674-.414.084.084,0,0,1,0,.169.613.613,0,0,0-.49.276,1.662,1.662,0,0,0-.2.383.058.058,0,0,0,0,.031v.739a.08.08,0,0,1-.077.084.084.084,0,0,1-.088-.084Z" transform="translate(-275.079 -227.11)" fill="#fff"/>
      <path id="Path_96751" data-name="Path 96751" d="M324.865,334.447a.809.809,0,0,1-.647.329.846.846,0,0,1,0-1.689.808.808,0,0,1,.647.329v-.973a.084.084,0,0,1,.169,0v2.248a.084.084,0,1,1-.168,0Zm0-.486v-.054a.674.674,0,1,0,0,.054Z" transform="translate(-277.244 -225.937)" fill="#fff"/>
      <circle id="Ellipse_3750" data-name="Ellipse 3750" cx="8.874" cy="8.874" r="8.874" transform="translate(36.533 32.192)" fill="#455a64"/>
      <circle id="Ellipse_3751" data-name="Ellipse 3751" cx="6.063" cy="6.063" r="6.063" transform="translate(15.755 47.803)" fill="#ebebeb"/>
      <path id="Path_96752" data-name="Path 96752" d="M288.267,147.275v6.358h-1.8v-6.358a4.108,4.108,0,1,0-8.2,0v6.358h-1.8v-6.358a5.91,5.91,0,1,1,11.8,0Z" transform="translate(-248.271 -107.864)" fill="#c7c7c7"/>
      <path id="Path_96753" data-name="Path 96753" d="M276.47,161.72l1.8.073v4.638h-1.8Z" transform="translate(-248.271 -120.654)" fill="#a6a6a6"/>
      <path id="Path_96754" data-name="Path 96754" d="M304.37,162.857v4.228h-1.8V162.78Z" transform="translate(-264.374 -121.308)" fill="#a6a6a6"/>
      <rect id="Rectangle_10871" data-name="Rectangle 10871" width="16.408" height="14.884" transform="translate(25.893 42.154)" fill="#ea914e"/>
      <rect id="Rectangle_10872" data-name="Rectangle 10872" width="8.204" height="14.884" transform="translate(34.097 42.154)" opacity="0.1"/>
      <path id="Path_96755" data-name="Path 96755" d="M290.083,181.058l.689,3.259h-2.919l.689-3.259a1.459,1.459,0,1,1,1.532,0Z" transform="translate(-255.292 -130.919)" fill="#263238"/>
      <path id="Path_96756" data-name="Path 96756" d="M279.568,379.843a.969.969,0,1,1-.282-.688A.969.969,0,0,1,279.568,379.843Z" transform="translate(-248.987 -254.634)" fill="#dbdbdb"/>
      <path id="Path_96757" data-name="Path 96757" d="M293.384,379.041a1.467,1.467,0,1,1-1.467-1.471,1.467,1.467,0,0,1,1.467,1.471Z" transform="translate(-256.896 -253.832)" fill="#c7c7c7"/>
      <path id="Path_96758" data-name="Path 96758" d="M307.8,379.843a.973.973,0,1,1-.973-.973.973.973,0,0,1,.973.973Z" transform="translate(-266.398 -254.634)" fill="#dbdbdb"/>
      <path id="Path_96759" data-name="Path 96759" d="M255.83,222.845v-2.038a.188.188,0,0,1,.191-.188h1.126a.192.192,0,0,1,.188.188.2.2,0,0,1-.188.2h-.935v.632h.8a.191.191,0,1,1,0,.383h-.8v.827a.192.192,0,0,1-.191.188.188.188,0,0,1-.191-.188Z" transform="translate(-235.536 -156.995)" fill="#263238"/>
      <path id="Path_96760" data-name="Path 96760" d="M260.547,223.891a.866.866,0,0,1-.237-.605.915.915,0,0,1,.237-.605.812.812,0,0,1,.594-.26.766.766,0,0,1,.578.26.881.881,0,0,1,.241.605.835.835,0,0,1-.241.605.766.766,0,0,1-.578.264A.8.8,0,0,1,260.547,223.891Zm.138-.605a.544.544,0,0,0,.126.364.456.456,0,0,0,.329.13.448.448,0,0,0,.318-.13.555.555,0,0,0,0-.724.483.483,0,0,0-.318-.13.49.49,0,0,0-.329.13A.548.548,0,0,0,260.685,223.286Z" transform="translate(-238.3 -158.105)" fill="#263238"/>
      <path id="Path_96761" data-name="Path 96761" d="M267.025,222.61a.184.184,0,0,1-.184.18.341.341,0,0,0-.207.065.509.509,0,0,0-.157.169,1,1,0,0,0-.142.287v.655a.188.188,0,0,1-.191.184.184.184,0,0,1-.184-.184V222.61a.184.184,0,0,1,.184-.18.188.188,0,0,1,.191.18v.038a.385.385,0,0,1,.069-.069.766.766,0,0,1,.437-.134.18.18,0,0,1,.184.165Z" transform="translate(-241.786 -158.111)" fill="#263238"/>
      <path id="Path_96762" data-name="Path 96762" d="M271.274,223.268v.64a.827.827,0,0,1-1.191.743.184.184,0,0,1-.08-.249.191.191,0,0,1,.249-.088.383.383,0,0,0,.2.05.463.463,0,0,0,.452-.383.82.82,0,0,1-.452.138.785.785,0,0,1-.586-.264.85.85,0,0,1-.241-.605.9.9,0,0,1,.241-.613.808.808,0,0,1,.586-.257.766.766,0,0,1,.463.146.18.18,0,0,1,.18-.146.184.184,0,0,1,.184.184v.686Zm-.383,0a.54.54,0,0,0-.134-.352.429.429,0,0,0-.326-.149.417.417,0,0,0-.318.149.506.506,0,0,0-.138.352.494.494,0,0,0,.138.356.421.421,0,0,0,.318.138.433.433,0,0,0,.326-.138.525.525,0,0,0,.157-.36Z" transform="translate(-244.044 -158.08)" fill="#263238"/>
      <path id="Path_96763" data-name="Path 96763" d="M275.887,223.891a.846.846,0,0,1-.237-.605.9.9,0,0,1,.237-.605.808.808,0,0,1,.594-.26.766.766,0,0,1,.575.26.866.866,0,0,1,.241.605.82.82,0,0,1-.241.605.766.766,0,0,1-.575.264A.8.8,0,0,1,275.887,223.891Zm.138-.605a.563.563,0,0,0,.123.364.471.471,0,0,0,.333.13.456.456,0,0,0,.318-.13.555.555,0,0,0,0-.724.494.494,0,0,0-.318-.13.509.509,0,0,0-.333.13A.567.567,0,0,0,276.025,223.286Z" transform="translate(-247.765 -158.105)" fill="#263238"/>
      <path id="Path_96764" data-name="Path 96764" d="M281.8,221.491a.2.2,0,0,1-.191.192h-.084v.961a.191.191,0,0,1,.188.2.184.184,0,0,1-.188.188.383.383,0,0,1-.383-.383v-.961h-.1a.192.192,0,0,1-.188-.192.188.188,0,0,1,.188-.188h.1v-.5a.192.192,0,0,1,.383,0v.5h.084a.191.191,0,0,1,.191.188Z" transform="translate(-250.973 -156.988)" fill="#263238"/>
      <path id="Path_96765" data-name="Path 96765" d="M288.514,222.116h-.421v.766a.191.191,0,0,1-.2.188.188.188,0,0,1-.188-.188v-2.038a.188.188,0,0,1,.188-.188h.617a.739.739,0,1,1,0,1.475Zm-.421-.383h.421a.356.356,0,1,0,0-.709h-.421Z" transform="translate(-255.206 -157.016)" fill="#263238"/>
      <path id="Path_96766" data-name="Path 96766" d="M294.018,223.269v.674a.18.18,0,0,1-.18.184.184.184,0,0,1-.18-.149.766.766,0,0,1-.46.149.8.8,0,0,1-.586-.253.9.9,0,0,1,0-1.214.8.8,0,0,1,.586-.257.766.766,0,0,1,.46.153.181.181,0,0,1,.36.034Zm-.383,0a.521.521,0,0,0-.134-.356.433.433,0,0,0-.322-.142.425.425,0,0,0-.322.142.521.521,0,0,0-.13.356.532.532,0,0,0,.13.356.448.448,0,0,0,.322.134.456.456,0,0,0,.322-.134.536.536,0,0,0,.153-.356Z" transform="translate(-258.086 -158.088)" fill="#263238"/>
      <path id="Path_96767" data-name="Path 96767" d="M298.163,223.643a.184.184,0,0,1,.26-.027.624.624,0,0,0,.383.153.467.467,0,0,0,.234-.065.15.15,0,0,0,.061-.1.042.042,0,0,0,0-.035.084.084,0,0,0-.042-.042.8.8,0,0,0-.276-.1h0a1.467,1.467,0,0,1-.3-.092.59.59,0,0,1-.237-.2.415.415,0,0,1-.057-.218.487.487,0,0,1,.2-.383.766.766,0,0,1,.425-.126.912.912,0,0,1,.517.188.192.192,0,0,1,.054.257.18.18,0,0,1-.253.05.593.593,0,0,0-.318-.13.349.349,0,0,0-.207.065c-.046.031-.057.061-.057.077v.027a.084.084,0,0,0,.038.035.617.617,0,0,0,.253.084h0a1.28,1.28,0,0,1,.318.1.525.525,0,0,1,.245.2.445.445,0,0,1,.065.23.494.494,0,0,1-.214.383.766.766,0,0,1-.448.138,1,1,0,0,1-.617-.237A.188.188,0,0,1,298.163,223.643Z" transform="translate(-261.638 -158.099)" fill="#263238"/>
      <path id="Path_96768" data-name="Path 96768" d="M302.5,223.643a.18.18,0,0,1,.257-.027.632.632,0,0,0,.383.153.471.471,0,0,0,.237-.065.15.15,0,0,0,.061-.1.042.042,0,0,0,0-.035s0-.027-.046-.042a.743.743,0,0,0-.276-.1h0a1.467,1.467,0,0,1-.3-.092.563.563,0,0,1-.237-.2.413.413,0,0,1-.057-.218.486.486,0,0,1,.2-.383.766.766,0,0,1,.425-.126.911.911,0,0,1,.517.188.192.192,0,0,1,.054.257.184.184,0,0,1-.257.05.582.582,0,0,0-.314-.13.341.341,0,0,0-.207.065c-.046.031-.057.061-.057.077v.027a.085.085,0,0,0,.038.035.617.617,0,0,0,.253.084h0a1.258,1.258,0,0,1,.322.1.544.544,0,0,1,.245.2.445.445,0,0,1,.065.23.486.486,0,0,1-.218.383.766.766,0,0,1-.448.138,1,1,0,0,1-.613-.237A.184.184,0,0,1,302.5,223.643Z" transform="translate(-264.314 -158.099)" fill="#263238"/>
      <path id="Path_96769" data-name="Path 96769" d="M309.452,222.767l-.571,1.337v.031h0l-.019.023h-.157a.042.042,0,0,0-.023,0h-.031a.043.043,0,0,1-.019,0h0v-.023h0a.156.156,0,0,1,0-.031l-.253-.594-.245.594v.031h0l-.023.023h0v.019c0,.019-.023,0-.031,0h-.107a.038.038,0,0,1-.031,0h-.019v-.023h0v-.031l-.567-1.337a.18.18,0,0,1,.1-.237.172.172,0,0,1,.23.1l.406.927.241-.575a.184.184,0,0,1,.169-.111.176.176,0,0,1,.168.111l.245.575.406-.927a.176.176,0,0,1,.234-.1A.18.18,0,0,1,309.452,222.767Z" transform="translate(-267.319 -158.176)" fill="#263238"/>
      <path id="Path_96770" data-name="Path 96770" d="M314.611,223.891a.85.85,0,0,1-.241-.605.9.9,0,0,1,.241-.605.8.8,0,0,1,.59-.26.766.766,0,0,1,.578.26.881.881,0,0,1,.241.605.835.835,0,0,1-.241.605.766.766,0,0,1-.578.264A.789.789,0,0,1,314.611,223.891Zm.138-.605a.544.544,0,0,0,.123.364.464.464,0,0,0,.329.13.444.444,0,0,0,.318-.13.555.555,0,0,0,0-.724.475.475,0,0,0-.318-.13.5.5,0,0,0-.329.13A.548.548,0,0,0,314.749,223.286Z" transform="translate(-271.655 -158.105)" fill="#263238"/>
      <path id="Path_96771" data-name="Path 96771" d="M321.091,222.61a.184.184,0,0,1-.184.18.36.36,0,0,0-.207.065.552.552,0,0,0-.157.169.993.993,0,0,0-.142.287v.655a.188.188,0,0,1-.192.184.18.18,0,0,1-.18-.184V222.61a.18.18,0,0,1,.18-.18.188.188,0,0,1,.192.18v.038a.309.309,0,0,1,.073-.069.766.766,0,0,1,.433-.134A.18.18,0,0,1,321.091,222.61Z" transform="translate(-275.147 -158.111)" fill="#263238"/>
      <path id="Path_96772" data-name="Path 96772" d="M325.09,222.845a.186.186,0,0,1-.368.038.831.831,0,0,1-.471.149.862.862,0,1,1,0-1.724.8.8,0,0,1,.463.146V220.8a.188.188,0,0,1,.191-.184.184.184,0,0,1,.184.184v1.367h0Zm-.839-1.149a.448.448,0,0,0-.322.142.486.486,0,0,0-.138.349.475.475,0,0,0,.138.341.44.44,0,0,0,.647,0,.49.49,0,0,0,.138-.341.5.5,0,0,0-.138-.349.448.448,0,0,0-.326-.153Z" transform="translate(-277.22 -156.995)" fill="#263238"/>
      <path id="Path_96773" data-name="Path 96773" d="M330.066,222.086v.222a.165.165,0,0,1-.169.169.168.168,0,0,1-.168-.169v-.356h0a.176.176,0,0,1,.168-.169.383.383,0,1,0-.329-.575.172.172,0,0,1-.234.061.169.169,0,0,1-.061-.23.724.724,0,1,1,.793,1.069Zm0,.766v.061a.165.165,0,0,1-.169.169.168.168,0,0,1-.168-.169v-.061a.169.169,0,0,1,.168-.169.165.165,0,0,1,.169.157Z" transform="translate(-280.837 -157.032)" fill="#263238"/>
    </g>
    <g id="freepik--Character--inject-5" transform="translate(48.432 66.54)">
      <path id="Path_96774" data-name="Path 96774" d="M149.48,329.51l.908,5.45,6.159,33.253h.992l-4.477-33.253-.663-5.45Z" transform="translate(-111.673 -269.846)" fill="#dbdbdb"/>
      <path id="Path_96775" data-name="Path 96775" d="M152.4,329.51H149.48l.908,5.45h2.673Z" transform="translate(-111.673 -269.846)" fill="#a6a6a6"/>
      <path id="Path_96776" data-name="Path 96776" d="M98.99,368.213h.992l6.159-33.253.908-5.45H104.13l-.663,5.45Z" transform="translate(-80.521 -269.846)" fill="#dbdbdb"/>
      <path id="Path_96777" data-name="Path 96777" d="M111.343,329.51l-.663,5.45h2.673l.908-5.45Z" transform="translate(-87.734 -269.846)" fill="#a6a6a6"/>
      <path id="Path_96778" data-name="Path 96778" d="M50.77,368.213h.992l6.159-33.253.908-5.45H55.91l-.663,5.45Z" transform="translate(-50.77 -269.846)" fill="#dbdbdb"/>
      <path id="Path_96779" data-name="Path 96779" d="M62.46,334.96h2.673l.908-5.45H63.123Z" transform="translate(-57.983 -269.846)" fill="#a6a6a6"/>
      <path id="Path_96780" data-name="Path 96780" d="M54.88,288.651H100V283.9H83.108L77.431,259.14H56.6Z" transform="translate(-53.306 -226.428)" fill="#dbdbdb"/>
      <path id="Path_96781" data-name="Path 96781" d="M54.88,288.651h2.459l1.6-29.511H56.6Z" transform="translate(-53.306 -226.428)" fill="#a6a6a6"/>
      <path id="Path_96782" data-name="Path 96782" d="M131.763,397.4c-.85.107-24.08-5.312-24.834-6.044-.092-.08.724-4.577.724-4.577.383-1.835,6.695-16.783,6.695-16.783l15.2,3.746-6.45,13.872s2.9,1.961,5.385,3.83a33.576,33.576,0,0,1,3.148,2.52C132.372,394.872,132.613,397.3,131.763,397.4Z" transform="translate(-85.415 -294.828)" fill="#c95f50"/>
      <path id="Path_96783" data-name="Path 96783" d="M106.918,409.031c.766.732,23.988,6.151,24.838,6.044s.609-2.532-.126-3.416a33.785,33.785,0,0,0-3.148-2.516h0c-2.486-1.869-5.381-3.83-5.381-3.83l1.425-3.087L109.81,398.64c-1.115,2.777-2.03,5.167-2.164,5.833C107.646,404.458,106.826,408.951,106.918,409.031Z" transform="translate(-85.409 -312.498)" fill="#ebebeb"/>
      <path id="Path_96784" data-name="Path 96784" d="M131.5,419.262c-.877.092-24.3-5.155-25.06-5.921-.295-.287.272-3.738,1.076-7.89a.229.229,0,0,1,.027-.13l15.144,3.217-.061.257s8.062,6.013,8.809,6.944S132.364,419.173,131.5,419.262Z" transform="translate(-85.071 -316.62)" fill="#ea914e"/>
      <path id="Path_96785" data-name="Path 96785" d="M133.4,430.753c-3.926-.98-19.851-4.569-23.808-5.243-.031,0-.034,0,0,.023,3.868,1.061,19.824,4.52,23.8,5.286C133.479,430.834,133.479,430.773,133.4,430.753Z" transform="translate(-87.047 -329.077)" fill="#263238"/>
      <path id="Path_96786" data-name="Path 96786" d="M145.417,413.93a5.676,5.676,0,0,0-4.876,0c-.057.034,0,.111.046.107a22.413,22.413,0,0,1,4.78.077.1.1,0,0,0,.05-.184Z" transform="translate(-106.143 -321.592)" fill="#263238"/>
      <path id="Path_96787" data-name="Path 96787" d="M147.947,416.35a5.676,5.676,0,0,0-4.876,0c-.057.034,0,.111.046.107a22.667,22.667,0,0,1,4.78.073.1.1,0,0,0,.05-.18Z" transform="translate(-107.704 -323.085)" fill="#263238"/>
      <path id="Path_96788" data-name="Path 96788" d="M150.477,418.765a5.7,5.7,0,0,0-4.876,0c-.057.034,0,.111.046.107a22.414,22.414,0,0,1,4.78.073.1.1,0,0,0,.05-.18Z" transform="translate(-109.265 -324.576)" fill="#263238"/>
      <path id="Path_96789" data-name="Path 96789" d="M151.53,405.96c-.421-.977-1.643-.854-2.413-.456a8.472,8.472,0,0,0-3.19,3.018.038.038,0,0,0,.023.061.2.2,0,0,0,.2.249,14.126,14.126,0,0,0,4.19-.82C151.09,407.656,151.928,406.883,151.53,405.96Zm-3.332,2.16c-.682.107-1.364.184-2.041.318a25.321,25.321,0,0,1,1.915-1.724,9.285,9.285,0,0,1,1.023-.7c.555-.318,2.585-.8,1.915.839-.356.9-2,1.138-2.811,1.268Z" transform="translate(-109.476 -316.551)" fill="#263238"/>
      <path id="Path_96790" data-name="Path 96790" d="M134.22,406.013a13.655,13.655,0,0,0,3.968,1.57.2.2,0,0,0,.245-.207.041.041,0,0,0,.034-.057,8.487,8.487,0,0,0-2.585-3.55c-.686-.532-1.865-.873-2.459,0S133.546,405.527,134.22,406.013Zm-.452-1.264c-.345-1.731,1.563-.889,2.053-.475a9.075,9.075,0,0,1,.877.881,25.084,25.084,0,0,1,1.555,2.038c-.64-.257-1.3-.452-1.946-.682C135.53,406.235,133.96,405.707,133.768,404.749Z" transform="translate(-101.63 -315.333)" fill="#263238"/>
      <path id="Path_96791" data-name="Path 96791" d="M154.12,430.565c3.681.8,6.534,1.379,6.829,1.348.881-.088.686-2.6-.061-3.527a33.505,33.505,0,0,0-3.064-2.566Z" transform="translate(-114.536 -329.268)" opacity="0.2"/>
      <path id="Path_96792" data-name="Path 96792" d="M107.272,326.038l-16.121-3.8s13.451-30.836,12.256-32.4c-.594-.785-15.6-1.015-20.376-5.06-6.2-5.255-2.041-13.283-2.041-13.283L97.77,271s-.2,3.5.452,4.025c.429.352,20.4,2.034,22.6,8.763C123.508,292.042,107.272,326.038,107.272,326.038Z" transform="translate(-68.573 -233.745)" fill="#37474f"/>
      <path id="Path_96793" data-name="Path 96793" d="M128.43,402.155c-.421-.2-4.6-1.425-5.534-1.662-1.884-.483-3.776-.957-5.672-1.39-.992-.226-3.114-.716-3.244-.693-.061,0-.073.115,0,.134,1.838.605,3.7,1.118,5.569,1.639s8.288,2.064,8.851,2.1C128.441,402.289,128.51,402.181,128.43,402.155Z" transform="translate(-89.738 -312.355)" fill="#263238"/>
      <path id="Path_96794" data-name="Path 96794" d="M109.586,291.081a2.586,2.586,0,0,0-1.264-.383l-7.277-1.214c-2.264-.383-4.542-.716-6.795-1.149a15.4,15.4,0,0,1-5.362-1.858,7.783,7.783,0,0,1-3.3-4.309,13.93,13.93,0,0,1-.425-5.523c.042-.452.126-.9.211-1.344a.027.027,0,1,0-.054,0c-.617,3.447-.67,7.415,1.915,10.154a10.329,10.329,0,0,0,4.738,2.624,53.9,53.9,0,0,0,6.1,1.184l7.277,1.21c1.149.2,2.348.345,3.5.586a1.207,1.207,0,0,1,.628.28.892.892,0,0,1,.1.839c-.115.571-.272,1.149-.433,1.693-1.321,4.508-11.073,27.5-11.333,27.994a.046.046,0,0,0,.08.042c2.221-3.953,9.518-22.05,10.985-26.313a27.254,27.254,0,0,0,.95-3.317C109.877,291.839,109.942,291.384,109.586,291.081Z" transform="translate(-71.872 -236.381)" fill="#263238"/>
      <path id="Path_96795" data-name="Path 96795" d="M191.968,406.181c-.812.272-24.06-.054-24.945-.62-.969-.923-1.383-22.858-1.383-22.858l14.956-.123.935,15.749s3.229,1.344,6.04,2.681h0a33.8,33.8,0,0,1,3.585,1.842C192.064,403.576,192.78,405.913,191.968,406.181Z" transform="translate(-121.644 -302.59)" fill="#c95f50"/>
      <path id="Path_96796" data-name="Path 96796" d="M166.7,416.78c.222,4.929.54,9.476.973,9.882.885.567,24.129.9,24.949.62s.1-2.6-.8-3.321a33.6,33.6,0,0,0-3.589-1.842h0c-2.811-1.337-6.04-2.681-6.04-2.681l-.157-2.65Z" transform="translate(-122.298 -323.691)" fill="#ebebeb"/>
      <path id="Path_96797" data-name="Path 96797" d="M193.113,430.407c-.843.28-24.842.165-25.75-.421-.352-.215-.54-3.708-.643-7.936v-.134l15.481-.1v.26s9.165,4.148,10.1,4.895S193.952,430.135,193.113,430.407Z" transform="translate(-122.31 -326.8)" fill="#ea914e"/>
      <path id="Path_96798" data-name="Path 96798" d="M195.617,441.6c-4.045-.119-20.372-.214-24.378-.027-.034,0-.034.027,0,.027,4.006.207,20.334.169,24.378.069C195.7,441.669,195.7,441.6,195.617,441.6Z" transform="translate(-125.082 -338.92)" fill="#263238"/>
      <path id="Path_96799" data-name="Path 96799" d="M203.941,421.805a5.653,5.653,0,0,0-4.761,1.057c-.046.046,0,.111.069.1a22.428,22.428,0,0,1,4.688-.95.1.1,0,0,0,0-.2Z" transform="translate(-142.327 -326.717)" fill="#263238"/>
      <path id="Path_96800" data-name="Path 96800" d="M206.938,423.575a5.65,5.65,0,0,0-4.761,1.057c-.05.046,0,.111.065.1a22.43,22.43,0,0,1,4.688-.95.1.1,0,0,0,.008-.2Z" transform="translate(-144.175 -327.809)" fill="#263238"/>
      <path id="Path_96801" data-name="Path 96801" d="M209.928,425.4a5.65,5.65,0,0,0-4.761,1.057c-.05.046,0,.111.065.1a22.432,22.432,0,0,1,4.688-.95.1.1,0,0,0,.008-.2Z" transform="translate(-146.02 -328.931)" fill="#263238"/>
      <path id="Path_96802" data-name="Path 96802" d="M209.151,412.109c-.62-.866-1.789-.483-2.455.073a8.479,8.479,0,0,0-2.47,3.627.042.042,0,0,0,.038.057.2.2,0,0,0,.249.2,14.087,14.087,0,0,0,3.914-1.7C209.086,413.859,209.741,412.925,209.151,412.109Zm-2.788,2.823c-.643.253-1.295.471-1.915.747a24.261,24.261,0,0,1,1.49-2.087,9.025,9.025,0,0,1,.846-.908c.475-.429,2.355-1.337,2.068.406C208.68,414.051,207.125,414.633,206.363,414.932Z" transform="translate(-145.449 -320.494)" fill="#263238"/>
      <path id="Path_96803" data-name="Path 96803" d="M191.473,416.933a14.182,14.182,0,0,0,4.213.686.207.207,0,0,0,.2-.257.042.042,0,0,0,0-.065,8.488,8.488,0,0,0-3.286-2.911c-.785-.383-2.007-.456-2.4.532S190.707,416.6,191.473,416.933Zm-.716-1.149c-.709-1.62,1.337-1.2,1.915-.9a9.33,9.33,0,0,1,1.046.67,25.274,25.274,0,0,1,1.957,1.658c-.682-.111-1.363-.161-2.049-.249-.827-.092-2.478-.272-2.869-1.164Z" transform="translate(-136.738 -322.052)" fill="#263238"/>
      <path id="Path_96804" data-name="Path 96804" d="M125.531,328.624H108.678s.211-30.438-1.111-32.123c-1.762-2.252-26.427-2.2-31.717-9.541-4.749-6.6-.739-15.925-.739-15.925l18.679-.555a38.952,38.952,0,0,1-1.731,5.875s22.5,4.148,28.8,11.038C125.1,292.051,125.531,328.624,125.531,328.624Z" transform="translate(-64.813 -233.425)" fill="#37474f"/>
      <path id="Path_96805" data-name="Path 96805" d="M120.566,282.489a9.165,9.165,0,0,0-1.582.506c-.536.207-1.065.437-1.582.689a31.552,31.552,0,0,0-2.953,1.67c-.031,0,0,.057.031.042,1.007-.525,2.053-1,3.1-1.444l1.509-.651a15.485,15.485,0,0,0,1.532-.674.077.077,0,0,0-.054-.138Z" transform="translate(-90.052 -240.834)" fill="#263238"/>
      <path id="Path_96806" data-name="Path 96806" d="M123.3,270.376c-.214.85-.383,1.708-.647,2.555a10.365,10.365,0,0,1-.383,1.149c-.123.314-.31.678-.678.747s-.544-.28-.509-.628.138-.766.214-1.149c.088-.44.18-.885.26-1.325.038-.222.08-.444.119-.666a5.666,5.666,0,0,1,.08-.605.019.019,0,0,0,.023.019h0s.027,0,.027-.023a.077.077,0,0,0-.023-.065c-.023-.023-.023,0-.038,0-.08.046-.084.157-.111.237-.069.215-.138.433-.2.647-.119.406-.234.816-.337,1.226s-.2.82-.3,1.229a1.915,1.915,0,0,0-.084.946.728.728,0,0,0,.67.548l-.046.08c-.038.084-.065.172-.1.26s-.061.176-.088.264a.819.819,0,0,0-.023.134v.146c0,.05.1.122.134.05a1.351,1.351,0,0,1,.08-.123.789.789,0,0,0,.061-.142c.027-.084.054-.169.073-.257s.05-.172.065-.26a1.039,1.039,0,0,0,0-.157.958.958,0,0,0,.494-.188,1.647,1.647,0,0,0,.509-.766c.126-.352.226-.72.326-1.084a15.584,15.584,0,0,0,.544-2.742C123.464,270.311,123.326,270.277,123.3,270.376Z" transform="translate(-93.907 -233.325)" fill="#263238"/>
      <path id="Path_96807" data-name="Path 96807" d="M88.616,275.86c-.077.421-.126.85-.226,1.268s-.207.82-.341,1.218a4.321,4.321,0,0,1-.521,1.1,4.107,4.107,0,0,1-.827.843,7.033,7.033,0,0,1-2,1.111,9.235,9.235,0,0,1-1.111.326,5.624,5.624,0,0,1-.594.107,1.248,1.248,0,0,0-.479.107.1.1,0,0,0,0,.168,1.773,1.773,0,0,0,.885.027,7.08,7.08,0,0,0,.946-.165,6.9,6.9,0,0,0,1.789-.766,5.6,5.6,0,0,0,1.517-1.21,4.213,4.213,0,0,0,.8-1.75,8.56,8.56,0,0,0,.26-2.375C88.693,275.822,88.624,275.814,88.616,275.86Z" transform="translate(-70.328 -236.725)" fill="#263238"/>
      <path id="Path_96808" data-name="Path 96808" d="M114.346,310.031q-.249-3.976-.659-7.932c-.069-.651-.134-1.306-.214-1.953a6,6,0,0,0-.329-1.486,2.922,2.922,0,0,0-2.214-1.743c-1.18-.3-2.4-.479-3.6-.67s-2.459-.383-3.692-.548c-2.493-.349-4.979-.67-7.472-1.088a59.182,59.182,0,0,1-7.335-1.647,16.713,16.713,0,0,1-6.235-3.018c-3.8-3.29-3.941-8.809-3.478-13.405.065-.651.146-1.3.226-1.949a.027.027,0,1,0-.054,0,36.216,36.216,0,0,0-.383,7.829,12.8,12.8,0,0,0,2.076,6.067,11.389,11.389,0,0,0,5.251,3.865,41.381,41.381,0,0,0,7,2.011c4.929,1.034,9.958,1.471,14.918,2.317.613.1,1.222.214,1.831.333a7.709,7.709,0,0,1,1.655.444,3.046,3.046,0,0,1,1.574,2.731c.326,2.627.544,5.27.735,7.913.383,5.32.586,10.671.578,16.006v3.535c0,.057.088.05.088,0C114.752,322.264,114.683,315.366,114.346,310.031Z" transform="translate(-68.071 -235.943)" fill="#263238"/>
      <path id="Path_96809" data-name="Path 96809" d="M183.119,415.11c-3.83-.26-14.807-.153-14.937-.1-.057.027-.042.13.019.134,1.915.138,14.344.2,14.9.1C183.162,415.236,183.185,415.114,183.119,415.11Z" transform="translate(-123.19 -322.557)" fill="#263238"/>
      <path id="Path_96810" data-name="Path 96810" d="M121.975,285.994a62.855,62.855,0,0,1,10.188,2.087,71.346,71.346,0,0,1,9.832,3.558c1.789.8,3.52,1.7,5.232,2.639.034.019,0,.069-.031.054a78.966,78.966,0,0,0-9.575-4.171,77.5,77.5,0,0,0-9.958-2.888c-1.915-.414-3.83-.735-5.745-1.053C121.81,286.178,121.845,285.96,121.975,285.994Z" transform="translate(-94.628 -242.994)" fill="#263238"/>
      <path id="Path_96811" data-name="Path 96811" d="M148.787,341.832c-.119-1.831-.31-3.662-.609-5.477-.123-.732-.153-1.678-.923-2.041a83.609,83.609,0,0,0-8.53-1.394.05.05,0,0,0-.023.092c.1.042,6.894,1.325,7.752,1.532a1.356,1.356,0,0,1,.954.5,3.487,3.487,0,0,1,.287,1.176,75.51,75.51,0,0,1,.95,10.759q.042,1.5.05,2.991c0,1.026-.034,2.064.042,3.083a.084.084,0,0,0,.169,0c.077-.927.05-1.873.054-2.8s0-1.869,0-2.807C148.955,345.567,148.913,343.7,148.787,341.832Z" transform="translate(-105.009 -271.949)" fill="#263238"/>
      <path id="Path_96812" data-name="Path 96812" d="M122.015,220.025c4.83,6.423,16.3,15.454,18.993,13.352,3.309-2.581,2.681-12.08,2.765-13.3.073-1.306-10.778-.977-10.341.356.257.789.383,1.635.172,1.555-.64-.253-2.061-1.532-8.223-4.979C121.954,215.08,118.817,215.774,122.015,220.025Z" transform="translate(-93.906 -199.803)" fill="#c95f50"/>
      <path id="Path_96813" data-name="Path 96813" d="M130.982,219.117l-2.539,2.493-3.187,3.125a34.44,34.44,0,0,1-5.2-6.415c-1.149-2.133-1.187-3.933-.046-4.324a2.558,2.558,0,0,1,1.7.161A57.056,57.056,0,0,1,130.982,219.117Z" transform="translate(-92.976 -198.527)" fill="#ea914e"/>
      <path id="Path_96814" data-name="Path 96814" d="M138.109,225.786a55.7,55.7,0,0,0-4.979,4.979s.027.046.042.042a59.525,59.525,0,0,0,5-4.941C138.186,225.828,138.128,225.771,138.109,225.786Z" transform="translate(-101.586 -205.847)" fill="#263238"/>
      <path id="Path_96815" data-name="Path 96815" d="M128.443,221.734l-3.187,3.125a34.439,34.439,0,0,1-5.2-6.415c-1.149-2.133-1.187-3.934-.046-4.324Z" transform="translate(-92.976 -198.651)" fill="#263238"/>
      <path id="Path_96816" data-name="Path 96816" d="M162.737,205.964a17.764,17.764,0,0,1-.333,7.932c-.536,1.107-8.633.682-9.353-.36s-2.244-8.2-1.406-10.253S162.093,203.807,162.737,205.964Z" transform="translate(-112.858 -191.502)" fill="#c95f50"/>
      <path id="Path_96817" data-name="Path 96817" d="M151.524,186.918c-.349-.942-2.049-3.642-2.869-3.328s-.088,2.451.234,3.309a16.721,16.721,0,0,1,.617,5.638c-.031,1.264,2.922,0,2.922,0A18.831,18.831,0,0,0,151.524,186.918Z" transform="translate(-110.933 -179.798)" fill="#c95f50"/>
      <path id="Path_96818" data-name="Path 96818" d="M153.635,200.919s-.115,2.225,1.069,2.681,1.6-1.325,1.632-1.448c0,.115-.057,2.164,1.184,2.5s1.44-1.494,1.448-1.612c.031.111.456,1.6,1.452,1.643,1.72.077.739-3.75,1.5-4.918,0,0,2.126,1.061,2.191,1.08,0,0-.858-3.662-2.486-4.6a1.2,1.2,0,0,0-1.49.211,1.879,1.879,0,0,0-1.115-1.509c-.494-.153-1.18.506-1.18.506a1.5,1.5,0,0,0-1.034-1.176,1.6,1.6,0,0,0-1.532.8A16.66,16.66,0,0,0,153.635,200.919Z" transform="translate(-114.235 -186.396)" fill="#c95f50"/>
      <path id="Path_96819" data-name="Path 96819" d="M155.373,195.94h-.031a10.7,10.7,0,0,0-1.785,6.105.063.063,0,0,0,.126,0,21.884,21.884,0,0,1,1.689-6.105Z" transform="translate(-114.188 -187.434)" fill="#263238"/>
      <path id="Path_96820" data-name="Path 96820" d="M161.932,197.294c0-.019-.027-.038-.042,0a10.008,10.008,0,0,0-1.532,6.783c0,.084.111.142.1.046A17.978,17.978,0,0,1,161.932,197.294Z" transform="translate(-118.331 -188.256)" fill="#263238"/>
      <path id="Path_96821" data-name="Path 96821" d="M167.123,206.842a13.767,13.767,0,0,1,1.026-6.664c0-.031-.031-.042-.046-.023a9.023,9.023,0,0,0-1.272,3.531,6.128,6.128,0,0,0,.211,3.167C167.058,206.892,167.131,206.892,167.123,206.842Z" transform="translate(-122.307 -190.029)" fill="#263238"/>
      <path id="Path_96822" data-name="Path 96822" d="M153.623,209.836a7.052,7.052,0,0,0,.169,1.272,2.371,2.371,0,0,0,.532,1.111.766.766,0,0,0,.5.234,1.111,1.111,0,0,0,.559-.111,1.363,1.363,0,0,0,.647-.912l.226-.919.107.938a3.771,3.771,0,0,0,.333,1.206,1.39,1.39,0,0,0,.8.789.789.789,0,0,0,.935-.329,2.375,2.375,0,0,0,.329-1.149l.069-1.115.3,1.069a3.711,3.711,0,0,0,.36.854,1.479,1.479,0,0,0,.609.609.7.7,0,0,0,.743-.077,1.532,1.532,0,0,0,.406-.766,12.057,12.057,0,0,0,.26-1.915c.031-.326.061-.651.107-.977a2.3,2.3,0,0,1,.283-.938,2.509,2.509,0,0,0-.2.95c-.019.322-.023.647-.027.977a10.8,10.8,0,0,1-.165,1.973,1.854,1.854,0,0,1-.46.95,1.011,1.011,0,0,1-1.1.153,1.827,1.827,0,0,1-.766-.739,3.915,3.915,0,0,1-.414-.942l.383-.042a2.765,2.765,0,0,1-.383,1.36,1.149,1.149,0,0,1-.609.479,1.291,1.291,0,0,1-.766,0,1.739,1.739,0,0,1-1.023-1,4.359,4.359,0,0,1-.345-1.333l.333.023a1.639,1.639,0,0,1-.858,1.088,1.429,1.429,0,0,1-.7.1,1.011,1.011,0,0,1-.628-.329,2.424,2.424,0,0,1-.494-1.229A5.867,5.867,0,0,1,153.623,209.836Z" transform="translate(-114.223 -195.313)" fill="#263238"/>
      <path id="Path_96823" data-name="Path 96823" d="M149.122,215.069s-5.868-7.093-1.972-8.043c1.149-.28,6.243-.038,6.216.984-.038,1.318-2.179,1.616-3.554,1.586,0,0,2.336,2.133,1.337,4.213A2.3,2.3,0,0,1,149.122,215.069Z" transform="translate(-109.412 -194.207)" fill="#c95f50"/>
      <path id="Path_96824" data-name="Path 96824" d="M148.47,206.961a4.787,4.787,0,0,1,1.371-.287,10.82,10.82,0,0,1,1.409-.031,16.24,16.24,0,0,1,2.8.337,2.47,2.47,0,0,1,.7.257.968.968,0,0,1,.326.28.765.765,0,0,1,.107.211.815.815,0,0,1,.027.23,1.2,1.2,0,0,1-.318.766,2.276,2.276,0,0,1-.624.452,4.29,4.29,0,0,1-1.4.383,9.815,9.815,0,0,1-1.421.054l.107-.287a5.665,5.665,0,0,1,.7.827,5.457,5.457,0,0,1,.525.935,3.741,3.741,0,0,1,.268,1.034,2.779,2.779,0,0,1-.088,1.053,3.118,3.118,0,0,0-.023-1.034,3.669,3.669,0,0,0-.345-.965,5.1,5.1,0,0,0-.552-.866,5.8,5.8,0,0,0-.7-.739l-.318-.272h.429a10.116,10.116,0,0,0,1.367-.1,4.213,4.213,0,0,0,1.279-.36,1.133,1.133,0,0,0,.724-.866c0-.36-.44-.506-.862-.617a12.971,12.971,0,0,0-1.352-.264c-.456-.073-.915-.142-1.375-.184A8.929,8.929,0,0,0,148.47,206.961Z" transform="translate(-111.05 -194.032)" fill="#263238"/>
      <path id="Path_96825" data-name="Path 96825" d="M154.42,231.65l.318.908.306.912.62,1.812c.207.605.417,1.206.64,1.8.111.3.222.6.345.892s.249.59.383.889a12.255,12.255,0,0,1-.923-1.693c-.268-.586-.494-1.191-.709-1.8s-.383-1.222-.555-1.842A16.742,16.742,0,0,1,154.42,231.65Z" transform="translate(-114.721 -209.467)" fill="#263238"/>
      <path id="Path_96826" data-name="Path 96826" d="M95.2,239.274c-.575.46-23.321.716-23.417.555-.26-.437,5.91-21.188,15.608-27.638,1.708-1.149,4.313-.349,5.439.532.567.444,2.21,3.8,2.436,6.549S95.568,238.979,95.2,239.274Z" transform="translate(-63.733 -197.109)" fill="#ea914e"/>
      <path id="Path_96827" data-name="Path 96827" d="M101.492,243.6v.169c-.107-.065-.218-.138-.322-.214a9.46,9.46,0,0,1-2.107-2.3c-.6-.846-1.149-1.731-1.678-2.6a23.769,23.769,0,0,0-2.535-3.516l-.119-.126a9.691,9.691,0,0,0-1.226-1.084,6.618,6.618,0,0,0-5.795-1.007,6.3,6.3,0,0,0-2.3,1.348l.28-.467a6.258,6.258,0,0,1,1.957-1.057,6.806,6.806,0,0,1,3.1-.192,6.687,6.687,0,0,1,2.85,1.26,9.721,9.721,0,0,1,1.333,1.2c.042.046.084.088.123.134a24.1,24.1,0,0,1,2.459,3.447c.544.877,1.076,1.758,1.666,2.6a9.4,9.4,0,0,0,2.064,2.248C101.335,243.5,101.411,243.554,101.492,243.6Zm-2.145.981a7.825,7.825,0,0,1-3.121-.766,20.833,20.833,0,0,1-5.14-3.987c-.575-.544-1.149-1.088-1.75-1.6l-.1-.084c-.2-.169-.383-.333-.613-.494a7.591,7.591,0,0,0-2.926-1.494,4.757,4.757,0,0,0-1.275-.115l-.088.153a4.6,4.6,0,0,1,1.333.107,7.476,7.476,0,0,1,2.861,1.475c.2.153.383.31.582.471a1.05,1.05,0,0,1,.1.084c.605.513,1.183,1.069,1.762,1.616a20.989,20.989,0,0,0,5.171,4.029,7.912,7.912,0,0,0,3.2.8,8.283,8.283,0,0,0,2.149-.226c0-.065,0-.126,0-.191a8.258,8.258,0,0,1-2.145.226Zm2.13-5.362c-.234-.383-.475-.766-.732-1.149a8.614,8.614,0,0,0-2.152-2.241,5.083,5.083,0,0,0-2.968-.858,3.98,3.98,0,0,0-.674.038l-.214.027a6.5,6.5,0,0,0-.663.123,7.706,7.706,0,0,0-1.459.548,17.761,17.761,0,0,0-3.374,2.428c-.042.034-.084.073-.126.1-.475.41-.954.812-1.444,1.191a12.707,12.707,0,0,1-2.616,1.616,8.492,8.492,0,0,1-2.976.712H81.6c0,.034-.031.069-.042.1l.525-.019a8.61,8.61,0,0,0,3.01-.712,13.072,13.072,0,0,0,2.647-1.62c.5-.383.988-.793,1.471-1.2l.123-.1a17.266,17.266,0,0,1,3.34-2.39,7.408,7.408,0,0,1,1.432-.532,6.1,6.1,0,0,1,.766-.134h.218c.184-.019.383-.027.552-.031a4.979,4.979,0,0,1,2.884.843,8.426,8.426,0,0,1,2.107,2.206c.306.44.59.892.866,1.356a1.812,1.812,0,0,1-.027-.318Z" transform="translate(-69.767 -209.965)" fill="#fff"/>
      <path id="Path_96828" data-name="Path 96828" d="M120.947,209.551c-1.333-.057-2.938-2.578-3.347-4.362-.027-.123,1.616-4.24,1.858-5.09.05-.172,4.979,2.811,4.979,2.811a14.011,14.011,0,0,0-1.44,3.114C122.95,206.146,122.238,209.608,120.947,209.551Z" transform="translate(-92.003 -189.995)" fill="#c95f50"/>
      <path id="Path_96829" data-name="Path 96829" d="M122.827,200.23c-.119,1.444-.149,5.282,2.731,6.174a3.336,3.336,0,0,0,.532.115c.057-.234.092-.383.1-.414a14.038,14.038,0,0,1,1.44-3.11h0a.383.383,0,0,0-.08-.05h0c-.034-.027-.08-.05-.134-.084l-.057-.035c-.031-.023-.069-.042-.107-.065l-.138-.084-.23-.134-.084-.054-.176-.107-.7-.414-.264-.157c-.115-.065-.23-.13-.341-.2l-.341-.2-.042-.023-.578-.337-.192-.111-.383-.207-.249-.138-.49-.26-.111-.054Z" transform="translate(-95.205 -190.081)" fill="#263238"/>
      <path id="Path_96830" data-name="Path 96830" d="M124.107,180.75c-1.256,1.624-2.3,7.277-1.436,8.974,1.245,2.432,4.286,3.773,6.607,2.049,2.252-1.67,3.478-9.085,2.424-10.724A4.929,4.929,0,0,0,124.107,180.75Z" transform="translate(-94.938 -177.047)" fill="#c95f50"/>
      <path id="Path_96831" data-name="Path 96831" d="M135.729,197.58s-.034,0-.034.027c-.084.383-.245.82-.624.862v.023C135.507,198.538,135.713,197.963,135.729,197.58Z" transform="translate(-102.782 -188.446)" fill="#263238"/>
      <path id="Path_96832" data-name="Path 96832" d="M135.066,196.275c-.609-.2-.965,1.03-.383,1.218S135.576,196.443,135.066,196.275Z" transform="translate(-102.361 -187.627)" fill="#263238"/>
      <path id="Path_96833" data-name="Path 96833" d="M142.222,198.78s.027.027,0,.042c-.123.383-.2.827.1,1.057h0C141.931,199.715,142.034,199.117,142.222,198.78Z" transform="translate(-107.092 -189.186)" fill="#263238"/>
      <path id="Path_96834" data-name="Path 96834" d="M142.758,197.989c.624.138.306,1.379-.272,1.252S142.234,197.878,142.758,197.989Z" transform="translate(-107.169 -188.694)" fill="#263238"/>
      <path id="Path_96835" data-name="Path 96835" d="M133.9,205.72c.061.119.111.268.241.326a1,1,0,0,0,.437.042s.023.019,0,.027a.54.54,0,0,1-.548.042.425.425,0,0,1-.184-.433.027.027,0,1,1,.054,0Z" transform="translate(-102.024 -193.453)" fill="#263238"/>
      <path id="Path_96836" data-name="Path 96836" d="M136.71,196.93s-.08.594-.153.862a6.062,6.062,0,0,0-1.62-.2c-.13,0-.1-.092.054-.134a2.371,2.371,0,0,1,1.4.038c.042-.069.107-.915.149-.9a2.409,2.409,0,0,1,.575.306c.2-1.229.2-2.486.421-3.707a.038.038,0,0,1,.073,0,19.993,19.993,0,0,1-.283,4.01C137.3,197.362,136.825,197.006,136.71,196.93Z" transform="translate(-102.649 -185.72)" fill="#263238"/>
      <path id="Path_96837" data-name="Path 96837" d="M134.616,193.551c.176-.027.341-.027.517-.038a.858.858,0,0,1,.536.065.268.268,0,0,1,.088.314.667.667,0,0,1-.586.326.981.981,0,0,1-.682-.161.283.283,0,0,1,.126-.506Z" transform="translate(-102.355 -185.926)" fill="#263238"/>
      <path id="Path_96838" data-name="Path 96838" d="M144.671,193.581a4.726,4.726,0,0,0-.41-.322.835.835,0,0,0-.475-.249.261.261,0,0,0-.249.207.659.659,0,0,0,.3.6.965.965,0,0,0,.655.249.283.283,0,0,0,.18-.486Z" transform="translate(-108.006 -185.626)" fill="#263238"/>
      <path id="Path_96839" data-name="Path 96839" d="M130.075,192.471c.471.18.559-.8.582-1.149a6.089,6.089,0,0,1,.264-1.042,5.77,5.77,0,0,1-.506.95C130.2,191.494,129.6,192.283,130.075,192.471Z" transform="translate(-99.591 -183.942)" fill="#fff"/>
      <path id="Path_96840" data-name="Path 96840" d="M121.389,183.032s-.9-3.991-.073-5.849c.383-.839,1.75-1.026,1.75-1.026a2.068,2.068,0,0,1,1.279-1.766c1.348-.624,3.761.425,3.761.425s2.386-1.789,4.355-.107-.383,3.773-.383,3.773.44,1.463-1.915,1.708c-2.3.241-6.059-2.007-6.059-2.007a14.9,14.9,0,0,1-1.471,4.19A1.352,1.352,0,0,1,121.389,183.032Z" transform="translate(-94.081 -173.89)" fill="#263238"/>
      <path id="Path_96841" data-name="Path 96841" d="M131.7,174.819a4.213,4.213,0,0,0-1.505-.827,4.482,4.482,0,0,0-1.532-.257,2.524,2.524,0,0,0-2.3,1.233,1.769,1.769,0,0,0-.1,1.367c0,.019.034,0,.027,0a1.845,1.845,0,0,1,1.034-2.114,3.792,3.792,0,0,1,2.681-.084,7.356,7.356,0,0,1,1.62.735.047.047,0,0,0,.077-.054Z" transform="translate(-97.292 -173.732)" fill="#263238"/>
      <path id="Path_96842" data-name="Path 96842" d="M145.716,176.395a2.064,2.064,0,0,0-.935-1.7,3.5,3.5,0,0,0-2.183-.643,4.378,4.378,0,0,0-2.2.716v.027a3.876,3.876,0,0,1,3.96-.134,1.915,1.915,0,0,1,.509,3.16,3.972,3.972,0,0,1-1.957.977v.027a4.026,4.026,0,0,0,1.877-.766A2.3,2.3,0,0,0,145.716,176.395Z" transform="translate(-106.071 -173.929)" fill="#263238"/>
      <path id="Path_96843" data-name="Path 96843" d="M134.153,186.186a7.3,7.3,0,0,1-3.03-.463,14.8,14.8,0,0,1-2.88-1.421c-.529-.329-1.046-.682-1.555-1.042,0,0-.031,0,0,.027a16.257,16.257,0,0,0,2.765,1.984,8.151,8.151,0,0,0,2.987.965,6.894,6.894,0,0,0,1.731-.027S134.168,186.182,134.153,186.186Z" transform="translate(-97.602 -179.611)" fill="#263238"/>
      <path id="Path_96844" data-name="Path 96844" d="M122,192.564s-.594-2.16-1.532-2.007-.923,2.98-.123,3.65a.992.992,0,0,0,1.417-.038Z" transform="translate(-93.334 -184.108)" fill="#c95f50"/>
      <path id="Path_96845" data-name="Path 96845" d="M121.631,192.68v.023a2.526,2.526,0,0,1,.7,1.915.552.552,0,0,0-.728-.417v.038a.617.617,0,0,1,.563.429,3.063,3.063,0,0,1,.123.62c0,.069.123.077.126,0h0A2.236,2.236,0,0,0,121.631,192.68Z" transform="translate(-94.472 -185.423)" fill="#263238"/>
      <path id="Path_96846" data-name="Path 96846" d="M106.691,218.185c-1.122,6.266-.448,19.4,2.405,21.605,3.305,2.547,17.775,3.064,20.993,2.122,1.283-.383-1.77-8.859-3.194-8.847-5.986.042-11.027-.647-11.54-1.356-.789-1.084-2.853-8.725-4.263-13.512C109.326,212.184,107.193,215.374,106.691,218.185Z" transform="translate(-84.955 -199.059)" fill="#c95f50"/>
      <path id="Path_96847" data-name="Path 96847" d="M187.1,239.324l-9.192,6.006a.383.383,0,0,0-.057.643l4.274,3.21a.862.862,0,0,0,.923,0l9.192-6.006a.383.383,0,0,0,.057-.647l-4.274-3.206a.862.862,0,0,0-.923,0Z" transform="translate(-129.085 -214.119)" fill="#263238"/>
      <path id="Path_96848" data-name="Path 96848" d="M186.069,238.624l-9.192,6.006a.383.383,0,0,0-.057.643l4.274,3.21a.862.862,0,0,0,.923,0l9.192-6.006a.383.383,0,0,0,.057-.647l-4.274-3.206A.862.862,0,0,0,186.069,238.624Z" transform="translate(-128.45 -213.687)" fill="#37474f"/>
      <path id="Path_96849" data-name="Path 96849" d="M186.78,239.756l-8.426,5.508c-.26.169-.295.437-.08.6l3.83,2.869a.816.816,0,0,0,.858,0l8.426-5.511c.529-.341.471-.548.257-.709l-.766-.575a.2.2,0,0,0-.207.023h-.031a.249.249,0,0,1-.345-.027l-1.773-1.329c-.1-.077-.176-.138,0-.245l.027-.019c.073-.046.092-.107.046-.142l-.766-.575C187.6,239.469,187.274,239.442,186.78,239.756Z" transform="translate(-129.352 -214.317)" fill="#fff"/>
      <path id="Path_96850" data-name="Path 96850" d="M207.441,243.236l.483.383a.065.065,0,0,0,.065,0h0a.031.031,0,0,0,0-.046l-.486-.36a.05.05,0,0,0-.061,0h0C207.426,243.205,207.426,243.224,207.441,243.236Z" transform="translate(-147.428 -216.595)" fill="#fff"/>
      <path id="Path_96851" data-name="Path 96851" d="M189.49,246.143l3.248,2.436,3.623-2.359-3.252-2.44Z" transform="translate(-136.359 -216.951)" fill="#ea914e"/>
      <path id="Path_96852" data-name="Path 96852" d="M191.47,253.388l1.9,1.425.214-.142-1.9-1.421Z" transform="translate(-137.581 -222.794)" fill="#a6a6a6"/>
      <path id="Path_96853" data-name="Path 96853" d="M189.65,253.409l2.244,1.685.107-.069-2.248-1.685Z" transform="translate(-136.458 -222.849)" fill="#a6a6a6"/>
      <path id="Path_96854" data-name="Path 96854" d="M189.14,253.739l2.244,1.685.107-.069-2.248-1.685Z" transform="translate(-136.143 -223.053)" fill="#a6a6a6"/>
      <path id="Path_96855" data-name="Path 96855" d="M188.63,254.073l2.244,1.681.107-.069L188.737,254Z" transform="translate(-135.829 -223.257)" fill="#a6a6a6"/>
      <path id="Path_96856" data-name="Path 96856" d="M209.25,247.387l.406.3.084-.057-.4-.3Z" transform="translate(-148.551 -219.141)" fill="#a6a6a6"/>
      <path id="Path_96857" data-name="Path 96857" d="M208.83,247.657l.4.3.088-.057-.4-.3Z" transform="translate(-148.292 -219.308)" fill="#a6a6a6"/>
      <path id="Path_96858" data-name="Path 96858" d="M208.41,247.927l.406.306.084-.057-.4-.306Z" transform="translate(-148.033 -219.474)" fill="#a6a6a6"/>
      <path id="Path_96859" data-name="Path 96859" d="M188.174,250.709a.3.3,0,0,0,0,.149.721.721,0,0,0,.218,0c.142,0,.249-.092.172-.153a.172.172,0,0,0-.18,0s.088-.073.023-.119S188.2,250.61,188.174,250.709Z" transform="translate(-135.542 -221.142)" fill="#ea914e"/>
      <path id="Path_96860" data-name="Path 96860" d="M182.23,254.954l2.62,1.969.839-.544-2.624-1.969Z" transform="translate(-131.88 -223.51)" fill="#ea914e"/>
      <path id="Path_96861" data-name="Path 96861" d="M160.487,265.082a38.616,38.616,0,0,0,8.426-2.478,20.076,20.076,0,0,0,5.155-3.937c2.344-2.513,3.727-4.474,3.773-5.557.05-1.26,0-1.482-4.738,2.382-2.681,2.183-4.4,1.915-5.783,1.394a19.911,19.911,0,0,0-11.13-.686S157.776,265.074,160.487,265.082Z" transform="translate(-115.813 -222.201)" fill="#c95f50"/>
      <path id="Path_96862" data-name="Path 96862" d="M168.962,257.149c-1.444-.494,4.278-1.727,4.937-3.34s-1.138-1.67-2.708-1.21c-5.515,1.635-8.752.295-12.065,2.562-.352.237-1.39.766-1.409.935C157.56,257.682,168.962,257.149,168.962,257.149Z" transform="translate(-116.755 -222.239)" fill="#c95f50"/>
      <path id="Path_96863" data-name="Path 96863" d="M168.468,255.5a12.1,12.1,0,0,0-3.064.088,7.418,7.418,0,0,0-2.6,1.118c-.034.019,0,.077.031.057a11.776,11.776,0,0,1,5.63-1.218.023.023,0,0,0,0-.046Z" transform="translate(-119.887 -224.144)" fill="#263238"/>
      <path id="Path_96864" data-name="Path 96864" d="M104.508,226.046l3.485-.655,4.389-.823a56.164,56.164,0,0,0-2.3-7.936c-1.295-3.133-3.447-4.156-4.631.149A35.787,35.787,0,0,0,104.508,226.046Z" transform="translate(-83.917 -198.52)" fill="#ea914e"/>
      <path id="Path_96865" data-name="Path 96865" d="M105.316,239.447a58.977,58.977,0,0,1,6.917-1.249s.023.05,0,.057a58.362,58.362,0,0,1-6.913,1.272C105.3,239.531,105.29,239.455,105.316,239.447Z" transform="translate(-84.416 -213.503)" fill="#263238"/>
      <path id="Path_96866" data-name="Path 96866" d="M104.989,234.894c-.207.061-.414.115-.62.169h-.057V235c-.054-.548-.061-1.1-.061-1.647s.027-1.1.065-1.647.088-1.1.165-1.639.157-1.084.272-1.624c0,.552-.038,1.1-.065,1.643s-.061,1.092-.092,1.639c-.057,1.088-.134,2.179-.18,3.271l-.061-.046C104.56,234.936,104.775,234.909,104.989,234.894Z" transform="translate(-83.767 -207.486)" fill="#263238"/>
      <path id="Path_96867" data-name="Path 96867" d="M103.765,231.65a6.461,6.461,0,0,1,.245,1.019c.027.172.054.345.069.517a4.84,4.84,0,0,1,.027.529,4.13,4.13,0,0,1-.283-1.015A4.358,4.358,0,0,1,103.765,231.65Z" transform="translate(-83.461 -209.467)" fill="#263238"/>
      <path id="Path_96868" data-name="Path 96868" d="M122.491,232.909l.283-.084-.023.038c-.149-.456-.268-.915-.4-1.371l-.356-1.379c-.23-.919-.444-1.838-.643-2.773a11.275,11.275,0,0,1,.517,1.333,12.592,12.592,0,0,1,.383,1.371c.1.46.222.927.314,1.394s.172.935.23,1.409v.034h-.031A2.415,2.415,0,0,1,122.491,232.909Z" transform="translate(-94.317 -206.808)" fill="#263238"/>
      <path id="Path_96869" data-name="Path 96869" d="M123.119,229.75a2.59,2.59,0,0,1,.13.8,2.41,2.41,0,0,1-.027.406,1.429,1.429,0,0,1-.1.383,5.664,5.664,0,0,1-.061-.8A3.8,3.8,0,0,1,123.119,229.75Z" transform="translate(-95.37 -208.295)" fill="#263238"/>
    </g>
    <g id="freepik--speech-bubble--inject-5" transform="translate(88.596 40.133)">
      <path id="Path_96870" data-name="Path 96870" d="M168.7,161.968a2.359,2.359,0,1,1-.831-1.606A2.363,2.363,0,0,1,168.7,161.968Z" transform="translate(-160.786 -138.733)" fill="#fff"/>
      <path id="Path_96871" data-name="Path 96871" d="M168.547,161.823a2.411,2.411,0,1,1-2.566-2.249A2.463,2.463,0,0,1,168.547,161.823Zm0,0A2.264,2.264,0,0,0,166,159.767a2.3,2.3,0,0,0-1.969,2.447,2.266,2.266,0,1,0,4.516-.391Z" transform="translate(-160.633 -138.588)" fill="#263238"/>
      <path id="Path_96872" data-name="Path 96872" d="M158.775,174.881a1.314,1.314,0,1,1-1.425-1.2A1.314,1.314,0,0,1,158.775,174.881Z" transform="translate(-155.955 -147.29)" fill="#fff"/>
      <path id="Path_96873" data-name="Path 96873" d="M158.457,174.761a1.413,1.413,0,1,1-1.013-1.222A1.421,1.421,0,0,1,158.457,174.761Zm0,0a1.252,1.252,0,0,0-.483-.873,1.222,1.222,0,1,0,.157,1.815,1.252,1.252,0,0,0,.326-.942Z" transform="translate(-155.637 -147.171)" fill="#263238"/>
      <path id="Path_96874" data-name="Path 96874" d="M181.5,117.146a6.894,6.894,0,0,1-9.529,7.189,5.787,5.787,0,0,1-9.192-.019,4.334,4.334,0,0,1-.766.161,4.7,4.7,0,0,1-4.428-7.354,6.894,6.894,0,0,1,9.292-9.981,5.787,5.787,0,0,1,9.935,1.578,3.671,3.671,0,0,1,.743-.169,3.784,3.784,0,0,1,3.256,6.308A6.737,6.737,0,0,1,181.5,117.146Z" transform="translate(-155.909 -104.899)" fill="#fff"/>
      <path id="Path_96875" data-name="Path 96875" d="M181.223,117.031a7,7,0,0,1-.494,3.531,7.369,7.369,0,0,1-.908,1.559,7.135,7.135,0,0,1-1.283,1.26,6.967,6.967,0,0,1-6.867.892h.065a5.891,5.891,0,0,1-9.353.027l.138.046a4.773,4.773,0,0,1-1.471.2,4.551,4.551,0,0,1-1.467-.245,4.86,4.86,0,0,1-2.382-1.743,5.2,5.2,0,0,1-.678-1.333,5.082,5.082,0,0,1-.245-1.475,4.86,4.86,0,0,1,.877-2.83v.2a7.059,7.059,0,0,1,.383-9.192,7.135,7.135,0,0,1,4.382-2.2,7.028,7.028,0,0,1,4.734,1.2l-.169.027a5.886,5.886,0,0,1,10.081,1.651l-.05-.023a3.857,3.857,0,0,1,2.467.031,3.8,3.8,0,0,1,1.532,6.155h0A6.733,6.733,0,0,1,181.223,117.031Zm0,0a6.757,6.757,0,0,0-.7-2.3h0a3.765,3.765,0,0,0-1.559-6.09,3.719,3.719,0,0,0-2.421,0H176.5V108.6a5.745,5.745,0,0,0-1.762-2.405,5.693,5.693,0,0,0-8.039.9l-.069.092-.1-.069a6.75,6.75,0,0,0-9.073,9.767l.08.1-.077.111a4.485,4.485,0,0,0-.823,2.62,4.649,4.649,0,0,0,.218,1.375,4.8,4.8,0,0,0,.624,1.245,4.627,4.627,0,0,0,2.21,1.651,4.319,4.319,0,0,0,1.379.249,4.385,4.385,0,0,0,1.39-.172l.084-.027.057.073a5.783,5.783,0,0,0,1.976,1.658,5.707,5.707,0,0,0,7.082-1.593l.027-.034h.038a6.8,6.8,0,0,0,6.8-.82,7.223,7.223,0,0,0,1.287-1.249,7.305,7.305,0,0,0,.912-1.532A6.978,6.978,0,0,0,181.223,117.031Z" transform="translate(-155.637 -104.783)" fill="#263238"/>
      <path id="Path_96876" data-name="Path 96876" d="M194.515,125.141l-.218,1.046a.766.766,0,0,1-.95.624.8.8,0,0,1-.624-.954l.349-1.674.023-.027c.023-.027,0,0,0-.038a.827.827,0,0,1,.954-.62,1.844,1.844,0,1,0-.965-3.041.808.808,0,1,1-1.2-1.076,3.447,3.447,0,1,1,2.662,5.745Zm-.732,3.524-.061.291a.789.789,0,0,1-.954.624.812.812,0,0,1-.624-.954l.061-.291a.816.816,0,0,1,.954-.617A.8.8,0,0,1,193.783,128.665Z" transform="translate(-177.853 -113.082)" fill="#ea914e"/>
      <path id="Path_96877" data-name="Path 96877" d="M173.743,123.04,173.632,122a.766.766,0,0,1,.7-.9.808.808,0,0,1,.9.7l.211,1.7v.034c0,.034,0,0,.019.031a.823.823,0,0,1-.7.9,1.842,1.842,0,1,0,.452,3.654,1.808,1.808,0,0,0,1.455-1.088.812.812,0,0,1,1.072-.433.8.8,0,0,1,.414,1.057,3.447,3.447,0,1,1-4.378-4.6Zm-.44-3.57-.038-.295a.766.766,0,0,1,.7-.9.8.8,0,0,1,.9.7l.038.291a.82.82,0,0,1-.7.9.8.8,0,0,1-.9-.7Z" transform="translate(-165.45 -113.107)" fill="#ea914e"/>
    </g>
  </g>
</svg>
