<svg xmlns="http://www.w3.org/2000/svg" xmlns:xlink="http://www.w3.org/1999/xlink" width="90" height="90" viewBox="0 0 90 90">
  <defs>
    <filter id="Rectangle_10688" x="0" y="0" width="90" height="90" filterUnits="userSpaceOnUse">
      <feOffset input="SourceAlpha"/>
      <feGaussianBlur stdDeviation="10" result="blur"/>
      <feFlood flood-opacity="0.078"/>
      <feComposite operator="in" in2="blur"/>
      <feComposite in="SourceGraphic"/>
    </filter>
  </defs>
  <g id="Group_36799" data-name="Group 36799" transform="translate(4 -216)">
    <g transform="matrix(1, 0, 0, 1, -4, 216)" filter="url(#Rectangle_10688)">
      <rect id="Rectangle_10688-2" data-name="Rectangle 10688" width="30" height="30" rx="5" transform="translate(30 30)" fill="#fff"/>
    </g>
    <g id="heart_linear" data-name="heart/linear" transform="translate(29 249)">
      <g id="vuesax_linear_heart" data-name="vuesax/linear/heart">
        <g id="heart">
          <path id="Vector" d="M10.62,17.71a2.181,2.181,0,0,1-1.24,0C6.48,16.72,0,12.59,0,5.59A5.574,5.574,0,0,1,5.56,0,5.515,5.515,0,0,1,10,2.24,5.547,5.547,0,0,1,20,5.59C20,12.59,13.52,16.72,10.62,17.71Z" transform="translate(2 3.1)" fill="none" stroke="#fff" stroke-linecap="round" stroke-linejoin="round" stroke-width="1.5"/>
          <path id="Vector-2" data-name="Vector" d="M0,0H24V24H0Z" fill="none" opacity="0"/>
        </g>
      </g>
    </g>
  </g>
</svg>
