<svg xmlns="http://www.w3.org/2000/svg" width="46.408" height="44" viewBox="0 0 46.408 44">
  <g id="Group_28776" data-name="Group 28776" transform="translate(0)">
    <g id="Rectangle_5627" data-name="Rectangle 5627" transform="translate(0.408)" fill="#4497ad" stroke="#707070" stroke-width="0.3" opacity="0.9">
      <rect width="46" height="44" rx="10" stroke="none"/>
      <rect x="0.15" y="0.15" width="45.7" height="43.7" rx="9.85" fill="none"/>
    </g>
    <path id="direct" d="M26.475,1.122,18.369,25.93a.856.856,0,0,1-1.553.164l-5.451-9.375a.855.855,0,0,1,.052-.94l1.957-2.635L10.74,15.1a.855.855,0,0,1-.94.052L.425,9.7A.856.856,0,0,1,.589,8.15L25.4.043a.856.856,0,0,1,1.079,1.079Z" transform="matrix(0.719, 0.695, -0.695, 0.719, 18.422, 3.36)" fill="#fff"/>
  </g>
</svg>
