<svg xmlns="http://www.w3.org/2000/svg" width="293.346" height="289.217" viewBox="0 0 293.346 289.217">
  <g id="Ok-amico_1_" data-name="Ok-amico (1)" transform="translate(-18.472 -30.19)">
    <g id="freepik--Floor--inject-4" transform="translate(18.472 150.093)">
      <path id="freepik--floor--inject-4-2" data-name="freepik--floor--inject-4" d="M61.428,363.985c-57.274-33.068-57.274-86.686,0-119.729s150.136-33.068,207.429,0,57.273,86.686,0,119.729S118.707,397.06,61.428,363.985Z" transform="translate(-18.472 -219.465)" fill="#f5f5f5"/>
    </g>
    <g id="freepik--Shadow--inject-4" transform="translate(62.264 171.38)">
      <ellipse id="freepik--shadow--inject-4-2" data-name="freepik--shadow--inject-4" cx="45.003" cy="25.979" rx="45.003" ry="25.979" transform="translate(0 72.872)" fill="#e0e0e0"/>
      <ellipse id="freepik--shadow--inject-4-3" data-name="freepik--shadow--inject-4" cx="64.198" cy="31.947" rx="64.198" ry="31.947" transform="translate(62.184 60.949) rotate(-28.34)" fill="#e0e0e0"/>
    </g>
    <g id="freepik--Plants--inject-4" transform="translate(63.943 193.708)">
      <g id="freepik--plants--inject-4-2" data-name="freepik--plants--inject-4" transform="translate(173.245)">
        <path id="Path_96878" data-name="Path 96878" d="M368.874,315.8c6.24-7.437,16.015-12.283,27.006-15.147,10.858-2.819,12.8-9.5,5.606-11.663-8.153-2.458-18.327,2.052-24.89,8.33-11.428,10.94-12.866,19.3-12.866,19.3Z" transform="translate(-363.73 -288.313)" fill="#ea914e"/>
        <path id="Path_96879" data-name="Path 96879" d="M368.874,315.8c6.24-7.437,16.015-12.283,27.006-15.147,10.858-2.819,12.8-9.5,5.606-11.663-8.153-2.458-18.327,2.052-24.89,8.33-11.428,10.94-12.866,19.3-12.866,19.3Z" transform="translate(-363.73 -288.313)" opacity="0.15"/>
        <path id="Path_96880" data-name="Path 96880" d="M366.6,317.249a.343.343,0,0,1-.139,0,.317.317,0,0,1-.146-.424c9.262-19,29.774-23.68,34.74-23.325a.317.317,0,0,1,.291.336.323.323,0,0,1-.342.291c-4.865-.367-25,4.263-34.12,22.977a.329.329,0,0,1-.285.146Z" transform="translate(-364.664 -290.207)" fill="#fff"/>
        <path id="Path_96881" data-name="Path 96881" d="M363.73,327.621a1.729,1.729,0,0,0,2.616,1.482c5.8-3.376,14.266-5.245,27.962-1.343,7.285,2.071,10.871.684,12.4-2.281,1.71-3.294-1.9-6.481-6.018-7.982-14.019-5.125-26.67-1.628-36.964,8.6Z" transform="translate(-363.73 -298.153)" fill="#ea914e"/>
        <path id="Path_96882" data-name="Path 96882" d="M364.808,330.358a.326.326,0,0,1-.241-.551c12.106-10.82,30.857-8.71,37.952-4.491a.317.317,0,0,1,.114.431.323.323,0,0,1-.437.114c-6.968-4.137-25.339-6.2-37.2,4.434a.342.342,0,0,1-.184.063Z" transform="translate(-364.003 -300.618)" fill="#fff"/>
      </g>
      <g id="freepik--plants--inject-4-3" data-name="freepik--plants--inject-4" transform="translate(0 23.987)">
        <path id="Path_96883" data-name="Path 96883" d="M130.267,356.885c-5.321-8.121-14.456-14.089-25.035-18.225-10.44-4.08-11.586-10.94-4.187-12.245,8.387-1.476,17.959,4.206,23.737,11.213,10.06,12.214,10.5,20.7,10.5,20.7Z" transform="translate(-92.468 -326.179)" fill="#ea914e"/>
        <path id="Path_96884" data-name="Path 96884" d="M130.267,356.885c-5.321-8.121-14.456-14.089-25.035-18.225-10.44-4.08-11.586-10.94-4.187-12.245,8.387-1.476,17.959,4.206,23.737,11.213,10.06,12.214,10.5,20.7,10.5,20.7Z" transform="translate(-92.468 -326.179)" opacity="0.15"/>
        <path id="Path_96885" data-name="Path 96885" d="M136.634,358.575a.362.362,0,0,0,.139,0,.323.323,0,0,0,.2-.405c-6.968-19.961-26.758-27.025-31.75-27.24a.317.317,0,0,0-.329.3.329.329,0,0,0,.3.336c4.878.2,24.326,7.177,31.174,26.834A.317.317,0,0,0,136.634,358.575Z" transform="translate(-95.616 -327.92)" fill="#fff"/>
        <path id="Path_96886" data-name="Path 96886" d="M133.106,368.261a2.635,2.635,0,0,1-4.086,1.9c-5.372-3.6-13.373-5.936-26.48-3.8-7.475,1.2-10.871-.633-12.036-3.731-1.3-3.471,2.661-6.2,6.924-7.209,14.526-3.434,26.676,1.533,35.691,12.891Z" transform="translate(-90.251 -336.504)" fill="#ea914e"/>
        <path id="Path_96887" data-name="Path 96887" d="M134.854,372.438a.3.3,0,0,0,.247-.076.323.323,0,0,0,0-.45c-10.769-12.169-29.616-12.29-37.16-8.938a.319.319,0,1,0,.26.583c7.393-3.288,25.891-3.167,36.425,8.774A.291.291,0,0,0,134.854,372.438Z" transform="translate(-93 -338.977)" fill="#fff"/>
      </g>
    </g>
    <g id="freepik--check-mark--inject-4" transform="translate(125.631 71.332)">
      <g id="freepik--check-mark--inject-4-2" data-name="freepik--check-mark--inject-4">
        <g id="freepik--Circle--inject-4" transform="translate(0 15.096)">
          <path id="Path_96888" data-name="Path 96888" d="M310.013,136.2h0l-.1-.051h0l-24.148-13.9h0l-.146-.07h0c-11.282-5.7-26.334-3.985-42.526,6.481-32.523,21.032-57.305,69.443-55.354,108.13.969,19.277,8.406,32.5,19.638,38.313h0l.1.051h0l24.155,13.905h0l.114.063h0c11.282,5.7,26.347,4.01,42.551-6.468,32.523-21.032,57.305-69.443,55.354-108.13C328.688,155.235,321.251,142.015,310.013,136.2Z" transform="translate(-187.63 -118.966)" fill="#37474f"/>
          <path id="Path_96889" data-name="Path 96889" d="M230.8,325.16,207.51,311.692h0l-.114-.07c-11.232-5.828-18.663-19.049-19.638-38.3-.868-17.256,3.586-36.432,11.656-54.239l.158-.393,24,14.291c-8.083,17.807-12.524,36.983-11.656,54.239C212.831,306.092,219.971,319.155,230.8,325.16Z" transform="translate(-187.638 -155.516)" fill="#263238"/>
          <path id="Path_96890" data-name="Path 96890" d="M288.268,290.678c32.523-21.032,57.305-69.443,55.354-108.13s-29.9-52.991-62.424-31.959-57.312,69.443-55.36,108.123S255.745,311.709,288.268,290.678Z" transform="translate(-201.594 -127.001)" fill="#455a64"/>
        </g>
        <path id="freepik--shadow--inject-4-4" data-name="freepik--shadow--inject-4" d="M324.793,141.43l-40.765,83.981-8.774-9.5a14.423,14.423,0,1,0-21.192,19.57l23.118,25.04a14.349,14.349,0,0,0,9.813,4.612h.8a14.636,14.636,0,0,0,2.09-.152,14.4,14.4,0,0,0,10.883-7.969l46.751-96.29C342.721,150.026,334.739,143.4,324.793,141.43Z" transform="translate(-210.575 -112.103)" fill="#37474f"/>
        <path id="Path_96891" data-name="Path 96891" d="M360.445,96.8c-.253-.146-.519-.285-.786-.412a12.537,12.537,0,0,0-16.737,5.79l-51.87,106.844-2.952-3.167a12.181,12.181,0,0,0-2.939-2.35c-1.546-.887-8.121-4.694-9.186-5.309a12.524,12.524,0,0,0-15.47,19.34l23.116,25.035a12.448,12.448,0,0,0,2.984,2.376c1.508.855,8.058,4.656,9.135,5.277a12.524,12.524,0,0,0,17.541-5.366l61.366-126.4a12.543,12.543,0,0,0-5-16.319Z" transform="translate(-213.121 -95.135)" fill="#ea914e"/>
        <path id="Path_96892" data-name="Path 96892" d="M360.445,96.8c-.253-.146-.519-.285-.786-.412a12.537,12.537,0,0,0-16.737,5.79l-51.87,106.844-2.952-3.167a12.181,12.181,0,0,0-2.939-2.35c-1.546-.887-8.121-4.694-9.186-5.309a12.524,12.524,0,0,0-15.47,19.34l23.116,25.035a12.448,12.448,0,0,0,2.984,2.376c1.508.855,8.058,4.656,9.135,5.277a12.524,12.524,0,0,0,17.541-5.366l61.366-126.4a12.543,12.543,0,0,0-5-16.319Z" transform="translate(-213.121 -95.135)" opacity="0.15"/>
        <path id="Path_96893" data-name="Path 96893" d="M296.236,318.809c-1.064-.633-7.6-4.434-9.129-5.277a12.479,12.479,0,0,1-2.984-2.376l-23.116-25.035a12.48,12.48,0,0,1-2.388-3.8l9.192,5.3a12.169,12.169,0,0,0,2.4,3.8l23.11,25.035a12.739,12.739,0,0,0,2.914,2.35Z" transform="translate(-213.649 -163.741)" opacity="0.15"/>
        <path id="Path_96894" data-name="Path 96894" d="M374.619,105.489a12.518,12.518,0,0,0-2.9,3.852l-53.352,109.9-7.716-8.362,51.87-106.844a12.365,12.365,0,0,1,2.908-3.852Z" transform="translate(-232.718 -96.984)" opacity="0.15"/>
        <path id="freepik--Check--inject-4" d="M374.347,104.775a12.549,12.549,0,0,0-16.737,5.79l-53.352,109.9L293.6,208.907a12.518,12.518,0,0,0-18.371,16.99l23.11,25.042a12.524,12.524,0,0,0,20.462-3.028l61.366-126.4a12.537,12.537,0,0,0-5.815-16.737Z" transform="translate(-218.611 -98.209)" fill="#ea914e"/>
      </g>
    </g>
    <g id="freepik--Character--inject-4" transform="translate(57.459 50.056)">
      <g id="freepik--character--inject-4-2" data-name="freepik--character--inject-4" transform="translate(0 0)">
        <path id="Path_96895" data-name="Path 96895" d="M128.93,115.249c-4.834,0-8.14,1.267-11.574,6.145-3.167,4.485-11.808,19.435-11.808,19.435s-6.335-13-6.968-15.59-.6-3.744,0-4.872a10.174,10.174,0,0,0,1.6-4.434c.247-3.117,1.007-5.784.31-5.872-1.932-.108-2.008,2.376-3.022,3.839a1.216,1.216,0,0,1-1.951-.209c-.424-.868-.2-2.293-.4-3.319a13.608,13.608,0,0,1,.272-1.7,7.449,7.449,0,0,0,2.217.063c.836,1.311,1.406,1.862,2.572,1.33.152-.241-.5-1.9-1.267-3.167a.861.861,0,0,0-.519-.393,9.844,9.844,0,0,0-4.3-.12.8.8,0,0,0-.551.3,10.5,10.5,0,0,0-1.267,2.534c-.082.272-.336.266-.4.032a52.683,52.683,0,0,1-.633-9.439c0-1.6-2.338-1.856-2.42.437a74.176,74.176,0,0,0,.158,9.23c0,.279-.279.412-.393.108a38.386,38.386,0,0,1-1.818-10.009c-.114-1.52-2.572-1.767-2.534.367a54.208,54.208,0,0,0,1.47,11.232c.076.266-.171.5-.355.2A36.469,36.469,0,0,1,82.6,104.41c-.526-1.837-2.977-1.368-2.534.919.767,4.1,1.983,9.281,3.8,12.986,1.938,3.959,3.611,5.942,4.574,9.053s4.948,20.728,9.211,27.595c3.338,5.385,7.158,4.884,11.27,2.046s18.8-23.306,18.8-23.306Z" transform="translate(-80.016 -75.054)" fill="#9e6767"/>
        <path id="Path_96896" data-name="Path 96896" d="M120.32,164.454a19.9,19.9,0,0,1,2.376,6.284,10.959,10.959,0,0,0-1.457-7.868Z" transform="translate(-94.788 -98.685)" fill="#874c4c"/>
        <path id="Path_96897" data-name="Path 96897" d="M145.806,124.926a13.023,13.023,0,0,0-8.926,1.812c-3.408,2.148-4.6,5.138-6.253,7.754s-7.367,11.884-7.367,11.884,2.1,8.8,10.434,10.611l12.486-16.939Z" transform="translate(-95.865 -84.731)" fill="#455a64"/>
        <path id="Path_96898" data-name="Path 96898" d="M161.367,369.229c.633-.082,1.476,2.078,1.489,2.781a9.058,9.058,0,0,1-1.628,3.636,25.555,25.555,0,0,0-3.072,5.467,18.448,18.448,0,0,1-3.37,5.784c-2.217,2.844-7.424,7.6-15.33,5.537a7.311,7.311,0,0,1-3.6-1.818,2.35,2.35,0,0,1-.551-2.42Z" transform="translate(-100.233 -174.317)" fill="#263238"/>
        <path id="Path_96899" data-name="Path 96899" d="M145.8,362.98v.07a4.96,4.96,0,0,0,.051,1.78,12.448,12.448,0,0,1-3,9.749,18.758,18.758,0,0,1-3.7,2.99c-4,2.534-4.434,4.263-3.871,6.848,1.343,3.009,10.421,4.84,15.641.361a15.375,15.375,0,0,0,4.973-6.759,47.813,47.813,0,0,1,2.635-5.575c1.007-1.9,2.92-4.042,2.977-6,.032-1.077-1.033-3.079-2.065-4.726-.95-1.514-1.932-2.952-2.787-2.787l.241.855c-.716.741-1.748,1.02-2.369,1.9-.773,1.071-.748,2.534-1.223,3.738a.431.431,0,0,1-.234.285.317.317,0,0,1-.336-.171.919.919,0,0,1-.07-.393l-.057-1.843a1.552,1.552,0,0,0-.266-1c-.494-.557-1.71-.494-2.388-.519a26.1,26.1,0,0,0-2.73.165,1.311,1.311,0,0,0-.887.234A1.565,1.565,0,0,0,145.8,362.98Z" transform="translate(-100.199 -170.54)" fill="#37474f"/>
        <path id="Path_96900" data-name="Path 96900" d="M130.382,273.628c2.11,6.937,11.973,30.952,12.562,32.4l1.964,4.764a7.38,7.38,0,0,0,4,.171c.209,2.3.557,5.9.691,7.722a30.54,30.54,0,0,1-.222,6.8c-.386,1.774-.836,3.636-1.172,5.416-.146.785-.291,1.577-.412,2.369a3.965,3.965,0,0,0,.2,2.49,3.085,3.085,0,0,0,.786.887,6.968,6.968,0,0,0,4.967,1.457,5.163,5.163,0,0,0,2.635-.874c1.533-1.1,2.072-3,2.851-4.624.849-1.755.576-1.951.633-3.833.051-1.318.418-4.662.944-8.159s2.794-15.786,3.883-28.032a100.418,100.418,0,0,0,0-16.344c8.653-23.509,12.505-37.49,13.639-45.294,1.147-7.931.6-10.769.45-15.324L136.7,216.634C133.327,238.387,127.55,264.329,130.382,273.628ZM150.938,236.329Z" transform="translate(-98.198 -118.018)" fill="#9e6767"/>
        <path id="Path_96901" data-name="Path 96901" d="M129.352,257.385c.868-7.995,6.848-38.725,6.848-38.725h42.393s.272,5.9.2,8.609a80.8,80.8,0,0,1-2.464,13.937c-1.514,6.278-7.127,24-8.235,26.606s-3.167,10.18-3.167,10.18c1.039,14.215-1.666,26.974-3.693,43.932,0,0-.589,2.287-6.595,1.837-5.841-.443-7.019-2.6-7.019-2.6l-.386-14.627s-3.167.976-5.068.532c0,0-12.549-30.984-13.158-32.846S128.484,265.38,129.352,257.385Z" transform="translate(-97.827 -119.133)" fill="#ea914e"/>
        <path id="Path_96902" data-name="Path 96902" d="M129.352,257.385c.868-7.995,6.848-38.725,6.848-38.725h42.393s.272,5.9.2,8.609a80.8,80.8,0,0,1-2.464,13.937c-1.514,6.278-7.127,24-8.235,26.606s-3.167,10.18-3.167,10.18c1.039,14.215-1.666,26.974-3.693,43.932,0,0-.589,2.287-6.595,1.837-5.841-.443-7.019-2.6-7.019-2.6l-.386-14.627s-3.167.976-5.068.532c0,0-12.549-30.984-13.158-32.846S128.484,265.38,129.352,257.385Z" transform="translate(-97.827 -119.133)" opacity="0.45"/>
        <path id="Path_96903" data-name="Path 96903" d="M153.922,244.658c-6.005-5.41-7.342-9.718-7.342-9.718a40.164,40.164,0,0,0,10.573,8.47s-5.7,30.1-5.283,36.292,1.945,32.8,1.945,32.8c0,.253-4.042-28.146-4.162-30.407C149.38,276.11,153.922,244.658,153.922,244.658Z" transform="translate(-104.412 -125.099)" opacity="0.2"/>
        <path id="Path_96904" data-name="Path 96904" d="M162.685,405.46c.589.171.513,1.932.247,2.591a8.026,8.026,0,0,1-2.718,2.819,13.3,13.3,0,0,0-4.023,4.327,20.366,20.366,0,0,1-6.3,6.158,15.2,15.2,0,0,1-11.086,1.552c-3.978-1.128-4.346-2.1-4.314-3.6Z" transform="translate(-99.98 -187.597)" fill="#263238"/>
        <path id="Path_96905" data-name="Path 96905" d="M150.061,390.859c-1.045,5.068-2.863,8.793-7.076,11.922-3.357,2.5-5.79,3.763-8.47,5.986-1.134.95-1.229,2.971-.361,5.15,1.812,1.451,4.384,2.287,7.836,2.281,3.864,0,5.347-.691,7.564-2.2a20.339,20.339,0,0,0,3.028-2.534c1.856-1.862,3.167-4.162,4.485-5.638s4.238-2.984,5.068-4.764c.456-.976.266-3.237-.038-5.163-.279-1.767.26-4.872-.589-5.068l-.12,1.267c-.07.285-.247.431-.843.633a4.4,4.4,0,0,1-1.628.044.976.976,0,0,0-1.1.31c-.57.672-.722,1.622-1.457,2.179a.417.417,0,0,1-.165.089.177.177,0,0,1-.184-.006.26.26,0,0,1-.032-.209l.209-1.9a2.153,2.153,0,0,0,0-.57,1.267,1.267,0,0,0-.633-.836,6.809,6.809,0,0,0-1.7-.7,9.973,9.973,0,0,0-1.9-.323A6.038,6.038,0,0,0,150.061,390.859Z" transform="translate(-99.646 -182.207)" fill="#455a64"/>
        <path id="Path_96906" data-name="Path 96906" d="M178.992,126.822a25.428,25.428,0,0,1,3.167,7.329,120.14,120.14,0,0,1,2.661,24.655c0,11.194-1.508,29.33-1.508,29.33-12.993,6.512-33.949,2.661-43.172-3.693.374-2.014.69-12.606,1.419-19.594.488-11.986.893-18.263.976-23.6.171-10.655,5.473-16.16,9.5-16.243l10.174.158Z" transform="translate(-102.052 -84.809)" fill="#ea914e"/>
        <path id="Path_96907" data-name="Path 96907" d="M201.674,219.47c-1.932,1.59-5.7,4.643-6.417,6.183-.8,1.761-1.267,4.434-1.805,5.435s.272,1.508,1.387,1.147,1.78-1.3,2.642-3.611a10.94,10.94,0,0,1,3.256-4.111Z" transform="translate(-121.529 -119.429)" fill="#874c4c"/>
        <path id="Path_96908" data-name="Path 96908" d="M195.362,206.631c.462.893,1.539.9,2.534.976a8.045,8.045,0,0,0,3.592-.405,6.557,6.557,0,0,0,3.453-2.4c.976-1.406,1.229-3.167,1.786-4.783,1.166-3.389,4.637-5.834,5.207-9.426a23.525,23.525,0,0,1,.633-4.149c.247-.545,5.955-10.37,7.995-14.627,1.951-4.092,3.414-6.018,1.641-10.934s-7.811-22.216-12.087-28.228c-2.42-3.408-6.265-4.384-10.928-4.783-3.548,9.236.576,18.783.576,18.783l9.414,18.105s-3.649,12.467-5.929,19.4c-.633,1.9-1.9,3.117-3.351,5.252a42.342,42.342,0,0,0-2.572,3.541,12.4,12.4,0,0,0-.95,3.9C195.882,199.7,195.115,206.207,195.362,206.631Z" transform="translate(-122.274 -85.857)" fill="#9e6767"/>
        <path id="Path_96909" data-name="Path 96909" d="M199.809,127.79c2.452.1,5.974.513,8.077,1.577s3.567,2.376,5.986,7.228,5.961,14.279,5.961,14.279-1.172,7.114-12.423,8.957l-7.6-14.019A28.028,28.028,0,0,1,199.809,127.79Z" transform="translate(-123.369 -85.827)" fill="#455a64"/>
        <path id="Path_96910" data-name="Path 96910" d="M150.9,80.871a14.073,14.073,0,0,1,.862,1.869,10.979,10.979,0,0,0,1.425,2.35,23.989,23.989,0,0,0,5.372,4.1,5.743,5.743,0,0,0,3.8,1.2,19.765,19.765,0,0,1,4.346.228l4.986.45-.279,5.239s.633-1.387,1.463-3.047c.722-1.425,3.75-8.653,3.763-8.685,1.5-3.579,3.281-8.356,1.489-12.119a4.973,4.973,0,0,0-1.951-2.236,4.523,4.523,0,0,0,.165-1.786,5.739,5.739,0,0,0-2.648-4.194,12.6,12.6,0,0,0-4.7-1.938,29.634,29.634,0,0,0-6.8-.754,40.15,40.15,0,0,0-6.677.767,23.655,23.655,0,0,1-3.719.386,7.165,7.165,0,0,1-1.609-.076,18.3,18.3,0,0,1-1.945-.7.45.45,0,0,0-.348,0,.418.418,0,0,0-.184.3,5.644,5.644,0,0,0,1.033,4.567,2.9,2.9,0,0,1-.824-.241,6.658,6.658,0,0,1-.855-.475,4.834,4.834,0,0,1-1.2-1.153.348.348,0,0,0-.2-.146.4.4,0,0,0-.3.19,4.434,4.434,0,0,0-.633,3.5,7.6,7.6,0,0,0,1.647,3.237,4.434,4.434,0,0,0-.228,4.251,5.923,5.923,0,0,0,1.121,1.609c.57.583,1.267,1.058,1.843,1.6a10.769,10.769,0,0,1,1.793,1.7Z" transform="translate(-103.686 -61.549)" fill="#37474f"/>
        <path id="Path_96911" data-name="Path 96911" d="M167.83,78.2a9.591,9.591,0,0,0,.361,2.8,5.467,5.467,0,0,0,1.413,2.1,16.121,16.121,0,0,1,1.964,1.983,8.362,8.362,0,0,1,1.1,3.649,2.534,2.534,0,0,0,.963,1.964c1.356.843,2.167-.786,2.889-1.584.931-.862,3.7-1.9,4.979,1.026,1.324,3.041-1.121,7.07-3.345,7.691-3.833,1.071-4.669-1.539-4.669-1.539l-.735,13.683c-2.16,4.1-7.241,5.4-10.579,4.751-2.882-.564-4.466-2.585-1.755-5.511l.146-4.168a23.784,23.784,0,0,1-5.125.1c-2.781-.519-4.156-2.882-4.91-5.929-1.2-4.9-1.748-10.047-.26-21.076.678-.374,3.421,1.761,7.6,2.046A19.29,19.29,0,0,0,167.83,78.2Z" transform="translate(-105.435 -67.612)" fill="#9e6767"/>
        <path id="Path_96912" data-name="Path 96912" d="M166.967,117.714s6.272-1.052,8.489-2.141a7.177,7.177,0,0,0,3.1-2.882,9.825,9.825,0,0,1-1.824,3.459c-1.66,1.983-9.825,3.224-9.825,3.224Z" transform="translate(-111.864 -80.293)" fill="#874c4c"/>
        <path id="Path_96913" data-name="Path 96913" d="M172.15,85.349l2.92.893a1.6,1.6,0,0,0-1.052-1.957,1.5,1.5,0,0,0-1.869,1.064Z" transform="translate(-113.784 -69.86)" fill="#263238"/>
        <path id="Path_96914" data-name="Path 96914" d="M168.061,107.84l-4.3,1.457a2.236,2.236,0,0,0,2.838,1.5,2.382,2.382,0,0,0,1.463-2.958Z" transform="translate(-110.709 -78.515)" fill="#874c4c"/>
        <path id="Path_96915" data-name="Path 96915" d="M168.582,109.5a2.534,2.534,0,0,0-2.452,1.9,2.141,2.141,0,0,0,1.337,0A2.338,2.338,0,0,0,169,109.538,2.344,2.344,0,0,0,168.582,109.5Z" transform="translate(-111.578 -79.124)" fill="#f28f8f"/>
        <path id="Path_96916" data-name="Path 96916" d="M151.566,85.765l2.971-.386a1.451,1.451,0,0,0-1.647-1.267A1.527,1.527,0,0,0,151.566,85.765Z" transform="translate(-106.238 -69.813)" fill="#263238"/>
        <path id="Path_96917" data-name="Path 96917" d="M180.4,88.73l9.8,3.338a3.586,3.586,0,0,0-2.825,1.432l-6.937-2.635Z" transform="translate(-116.808 -71.511)" fill="#263238"/>
        <path id="Path_96918" data-name="Path 96918" d="M153.878,94.085a1.185,1.185,0,0,0,1.128,1.267,1.2,1.2,0,0,0,1.21-1.185,1.185,1.185,0,0,0-1.128-1.267,1.2,1.2,0,0,0-1.21,1.185Z" transform="translate(-107.086 -73.04)" fill="#263238"/>
        <path id="Path_96919" data-name="Path 96919" d="M171.55,94.088a1.172,1.172,0,1,0,1.21-1.178A1.2,1.2,0,0,0,171.55,94.088Z" transform="translate(-113.564 -73.043)" fill="#263238"/>
        <path id="Path_96920" data-name="Path 96920" d="M144.749,89.1a2.648,2.648,0,0,0,.633,1.381,1.267,1.267,0,0,1,.247.494,24.158,24.158,0,0,0,.874,3.731,4.1,4.1,0,0,0,4.01,2.648,5.7,5.7,0,0,0,1.368-.114h.1A4.219,4.219,0,0,0,153.1,96.8l.063-.044.1-.057.12-.082.108-.089.12-.1a.589.589,0,0,0,.114-.1,2.364,2.364,0,0,0,.215-.222,5.068,5.068,0,0,0,.893-1.413c.583-1.3.431-3.129,1.381-3.345h.241c1.267,0,1.153,2.008,1.9,3.427a4.845,4.845,0,0,0,4.732,2.844h.361a2.18,2.18,0,0,0,.291,0,4.37,4.37,0,0,0,.678-.1l.209-.051a1.9,1.9,0,0,0,.2-.057l.133-.038a4.022,4.022,0,0,0,.76-.361,2.223,2.223,0,0,0,.253-.171,3.167,3.167,0,0,0,.437-.386,4.434,4.434,0,0,0,.855-1.318,23.037,23.037,0,0,0,.767-3.7,1.571,1.571,0,0,1,.215-.538,2.534,2.534,0,0,0,.633-1.33,1.166,1.166,0,0,0-.786-1.172l-.691-.089a20.935,20.935,0,0,0-6.835.082c-2.167.589-2.92,1.267-4.13,1.267s-1.862-.748-3.921-1.419a18.551,18.551,0,0,0-6.4-.323l-.633.063A1.1,1.1,0,0,0,144.749,89.1Zm14.266,1.362a1.818,1.818,0,0,1,.633-.5.635.635,0,0,1,.108-.063h.063c.1-.051.2-.1.3-.146l.285-.114a8.359,8.359,0,0,1,.925-.291l.367-.089c.317-.063.633-.114.95-.146a1.444,1.444,0,0,1,.228,0,5.542,5.542,0,0,1,3.864.748c.475.424.266,2.376.07,3.357v.146a1.762,1.762,0,0,1-.089.4c-.038.146-.044.158-.07.241h0c-.044.133-.089.266-.139.405h0a1.357,1.357,0,0,1-.063.139.707.707,0,0,1-.032.082l-.044.1-.057.114-.07.133c0,.044-.057.089-.089.133a1.039,1.039,0,0,1-.089.139,3.288,3.288,0,0,1-2.92,1.381,4.042,4.042,0,0,1-3.079-1.178h0a4.371,4.371,0,0,1-1.007-1.976C158.755,92.364,158.609,91.059,159.015,90.464Zm-12.277-1.02a1.9,1.9,0,0,1,.507-.323h.038l.228-.089.139-.044h.336a4.04,4.04,0,0,0,.481-.082h1.1a7.455,7.455,0,0,1,.963.089,5.913,5.913,0,0,1,3.452,1.52,4.818,4.818,0,0,1,.12,2.971,4.513,4.513,0,0,1-.19.735.289.289,0,0,0,0,.057v.12l-.038.089-.076.177c0,.051-.051.108-.082.158a.375.375,0,0,1,0,.051l-.063.108-.057.089a3.288,3.288,0,0,1-3.1,1.419,3.712,3.712,0,0,1-1.558-.38A4.4,4.4,0,0,1,146.9,92.94c-.317-1.134-.608-3.079-.165-3.5Z" transform="translate(-103.74 -71.173)" fill="#263238"/>
        <path id="Path_96921" data-name="Path 96921" d="M161,93.417l-.222,8.147-4.542-1.318,4.238-6.9a1.178,1.178,0,0,1,.526.07Z" transform="translate(-107.953 -73.202)" fill="#874c4c"/>
      </g>
    </g>
    <g id="freepik--speech-bubble--inject-4" transform="translate(148.437 30.19)">
      <g id="freepik--speech-bubble--inject-4-2" data-name="freepik--speech-bubble--inject-4">
        <g id="freepik--speech-bubble--inject-4-3" data-name="freepik--speech-bubble--inject-4">
          <ellipse id="Ellipse_3761" data-name="Ellipse 3761" cx="23.471" cy="20.557" rx="23.471" ry="20.557" transform="translate(2.116)" fill="#ea914e"/>
          <path id="Path_96922" data-name="Path 96922" d="M230.484,81.41c-.133,2.756-2.464,7.684-6.677,9.5a.291.291,0,0,0,.044.551,12.67,12.67,0,0,0,12.986-4.916Z" transform="translate(-223.63 -48.963)" fill="#ea914e"/>
        </g>
        <path id="Path_96923" data-name="Path 96923" d="M238.856,56.192a7.526,7.526,0,0,1,.633-2.61A6.132,6.132,0,0,1,241,51.46a7.19,7.19,0,0,1,2.357-1.438,10.016,10.016,0,0,1,6.443,0,7.254,7.254,0,0,1,2.382,1.438,6.214,6.214,0,0,1,1.5,2.154,7.525,7.525,0,0,1,.633,2.61c.032.71.044,1.451.044,2.224s0,1.5-.044,2.173a7.525,7.525,0,0,1-.633,2.61,6.335,6.335,0,0,1-1.508,2.135,6.968,6.968,0,0,1-2.382,1.438,10.25,10.25,0,0,1-6.443,0,6.886,6.886,0,0,1-2.369-1.438,6.24,6.24,0,0,1-1.508-2.135,7.526,7.526,0,0,1-.633-2.61c-.032-.671-.051-1.4-.051-2.173S238.824,56.9,238.856,56.192Zm10.833,4.276c0-.3.032-.633.051-.988s0-.735,0-1.115v-1.1c0-.355-.038-.633-.051-.95a3.764,3.764,0,0,0-.26-1.134,2.75,2.75,0,0,0-.6-.906,2.686,2.686,0,0,0-.95-.6,4.124,4.124,0,0,0-2.667,0,2.768,2.768,0,0,0-.957.6,2.73,2.73,0,0,0-.589.906,3.763,3.763,0,0,0-.26,1.134,8.426,8.426,0,0,0-.063.95q0,.532,0,1.1V59.48a9.154,9.154,0,0,0,.063.988,3.313,3.313,0,0,0,.849,2.052,3,3,0,0,0,2.287.811,2.946,2.946,0,0,0,2.274-.811,3.484,3.484,0,0,0,.868-2.052Z" transform="translate(-229.183 -37.264)" fill="#fafafa"/>
        <path id="Path_96924" data-name="Path 96924" d="M282.508,66.367a.437.437,0,0,1,.07.272.519.519,0,0,1-.158.38.526.526,0,0,1-.38.165h-3.966a1.007,1.007,0,0,1-.57-.152,2.427,2.427,0,0,1-.443-.418l-4.688-5.891v5.784a.684.684,0,0,1-.633.671H268.5a.682.682,0,0,1-.665-.671V50.549a.682.682,0,0,1,.665-.671h3.243a.684.684,0,0,1,.633.671v5.214l4.352-5.34a4.579,4.579,0,0,1,.317-.342.925.925,0,0,1,.672-.2h3.852a.526.526,0,0,1,.386.165.52.52,0,0,1,.158.38.424.424,0,0,1-.076.272l-6.081,7.494Z" transform="translate(-239.83 -37.404)" fill="#fafafa"/>
      </g>
    </g>
    <g id="freepik--Icons--inject-4" transform="translate(39.571 54.031)">
      <g id="freepik--like-icon--inject-4" transform="translate(188.895 0)">
        <path id="Path_96925" data-name="Path 96925" d="M356.079,88.365l-3.554,1.071-2.566-8.571L353.5,79.8Z" transform="translate(-349.96 -72.214)" fill="#e0e0e0"/>
        <path id="Path_96926" data-name="Path 96926" d="M369.939,76.367a1.647,1.647,0,0,1-1.007,1.66,2.4,2.4,0,0,1,.5.906c.2.633-.336,1.552-1.406,1.9L359.9,83.279l-2.388-7.963h0s1.375-3.516,1.444-4.048a13.257,13.257,0,0,0-.855-2.851c-.114-.367,1.2-.849,2.243-.431a1.863,1.863,0,0,1,.633.462,5.619,5.619,0,0,1,.931,1.337,4.77,4.77,0,0,1,.494,2.243l4.922-1.5a1.546,1.546,0,0,1,1.052,0,1.387,1.387,0,0,1,.393,2.344,1.311,1.311,0,0,1,1.343.906,1.444,1.444,0,0,1-.811,1.641A1.527,1.527,0,0,1,369.939,76.367Z" transform="translate(-352.727 -67.824)" fill="#e0e0e0"/>
      </g>
      <g id="freepik--like-icon--inject-4-2" data-name="freepik--like-icon--inject-4" transform="translate(241.379 87.301)">
        <path id="Path_96927" data-name="Path 96927" d="M437.365,226.621l-4.555-1.1,2.654-10.985,4.555,1.1Z" transform="translate(-432.81 -208.898)" fill="#e0e0e0"/>
        <path id="Path_96928" data-name="Path 96928" d="M457.893,222.121a2.084,2.084,0,0,1-2.154,1.172,3.1,3.1,0,0,1-.032,1.3,2.144,2.144,0,0,1-2.73,1.147l-10.427-2.534,2.458-10.205h0s3.744-2.958,4.156-3.5.767-3.167.881-3.655,1.856-.158,2.724.963a2.313,2.313,0,0,1,.431.925,7.089,7.089,0,0,1,.165,2.046,6.113,6.113,0,0,1-.887,2.768l6.3,1.52a1.945,1.945,0,0,1,1.128.7,1.818,1.818,0,0,1,.336,1.457,1.844,1.844,0,0,1-1.4,1.349,1.653,1.653,0,0,1,.887,1.843,1.837,1.837,0,0,1-1.932,1.267,1.9,1.9,0,0,1,.1,1.425Z" transform="translate(-436.38 -205.634)" fill="#e0e0e0"/>
      </g>
      <g id="freepik--like-icon--inject-4-3" data-name="freepik--like-icon--inject-4" transform="translate(0 75.763)">
        <path id="Path_96929" data-name="Path 96929" d="M76.82,216.3l4.973,1.5,3.6-12-4.967-1.5Z" transform="translate(-60.956 -193.608)" fill="#e0e0e0"/>
        <path id="Path_96930" data-name="Path 96930" d="M52.1,199.45a2.306,2.306,0,0,0,1.413,2.325,3.446,3.446,0,0,0-.7,1.267c-.285.931.475,2.179,1.964,2.623l11.4,3.427,3.332-11.168h0s-1.932-4.929-2.027-5.7,1.045-3.472,1.2-3.991c.127-.418-1.685-1.185-3.167-.6a2.489,2.489,0,0,0-.925.633,7.83,7.83,0,0,0-1.3,1.9,6.772,6.772,0,0,0-.7,3.167l-6.842-2.065a2.141,2.141,0,0,0-1.476.051,1.938,1.938,0,0,0-.545,3.281,1.831,1.831,0,0,0-1.9,1.267,2.034,2.034,0,0,0,1.134,2.306,2.154,2.154,0,0,0-.862,1.273Z" transform="translate(-51.777 -187.421)" fill="#e0e0e0"/>
      </g>
    </g>
  </g>
</svg>
