<svg xmlns="http://www.w3.org/2000/svg" xmlns:xlink="http://www.w3.org/1999/xlink" width="247.771" height="251.577" viewBox="0 0 247.771 251.577">
  <defs>
    <clipPath id="clip-path">
      <path id="Path_97045" data-name="Path 97045" d="M274.1,214.635a.818.818,0,0,0,0-.12,13.848,13.848,0,0,0-.671-4.284,50.039,50.039,0,0,0-1.222-5.123,12.056,12.056,0,0,0-5.465-7.256,4.514,4.514,0,0,0-.539-.336.491.491,0,0,0-.12-.072l-.126-.066c-3.416-1.882-7.256-1-10.187.336a9.5,9.5,0,0,0-3.685,2.948,14.71,14.71,0,0,0-2.66,4.71,14.039,14.039,0,0,0-2.037,15.106,20.224,20.224,0,0,0,.174,2.169c0,.1.144.078.144,0V221.13a11.379,11.379,0,0,0,.6.971v.743c0,.348.515.725,1.39,1.1a14.045,14.045,0,0,0,21.086-.324,14.141,14.141,0,0,0,2.457-1.462c.378-.282.5-1.8.389-3.919a11.564,11.564,0,0,0,.336-1.516c.168,1.576.3,3.158.425,4.74,0,.114.18.1.18,0A67.8,67.8,0,0,0,274.1,214.635Zm-4.656-14c-.126-.186-.264-.366-.4-.539a14.637,14.637,0,0,1,3.158,6.31c.156.6.3,1.234.431,1.852a14,14,0,0,0-.767-1.336h0A21.387,21.387,0,0,0,269.443,200.631Z" transform="translate(-246.05 -196.297)" fill="none"/>
    </clipPath>
    <clipPath id="clip-path-2">
      <path id="Path_97067" data-name="Path 97067" d="M284.08,138.088A14.045,14.045,0,1,1,262.886,126c.653-2.1,2.343-4.093,6.112-5.039,7.376-1.84,8.988,3.481,9.168,4.057h0a20.5,20.5,0,0,1,.653,2.085,13.973,13.973,0,0,1,5.261,10.983Z" transform="translate(-255.987 -120.578)" fill="none"/>
    </clipPath>
  </defs>
  <g id="Online_Review-cuate" data-name="Online Review-cuate" transform="translate(-42.723 -41.3)">
    <g id="freepik--background-complete--inject-9" transform="translate(64.704 68.287)">
      <circle id="Ellipse_3762" data-name="Ellipse 3762" cx="21.332" cy="21.332" r="21.332" transform="translate(0 49.646) rotate(-80.52)" fill="#c7c7c7"/>
      <circle id="Ellipse_3763" data-name="Ellipse 3763" cx="20.355" cy="20.355" r="20.355" transform="translate(5.173 12.231)" fill="#a6a6a6"/>
      <circle id="Ellipse_3764" data-name="Ellipse 3764" cx="19.073" cy="19.073" r="19.073" transform="translate(6.456 13.513)" fill="#fff"/>
      <rect id="Rectangle_10889" data-name="Rectangle 10889" width="0.366" height="2.888" transform="translate(25.343 14.903)" fill="#dbdbdb"/>
      <rect id="Rectangle_10890" data-name="Rectangle 10890" width="0.372" height="2.888" transform="translate(16.529 17.36) rotate(-30)" fill="#dbdbdb"/>
      <rect id="Rectangle_10891" data-name="Rectangle 10891" width="0.366" height="2.888" transform="translate(10.114 23.902) rotate(-60)" fill="#dbdbdb"/>
      <rect id="Rectangle_10892" data-name="Rectangle 10892" width="2.888" height="0.372" transform="translate(7.84 32.4)" fill="#dbdbdb"/>
      <rect id="Rectangle_10893" data-name="Rectangle 10893" width="2.888" height="0.366" transform="translate(10.124 41.265) rotate(-30.01)" fill="#dbdbdb"/>
      <rect id="Rectangle_10894" data-name="Rectangle 10894" width="2.888" height="0.372" transform="translate(16.527 47.818) rotate(-60.03)" fill="#dbdbdb"/>
      <rect id="Rectangle_10895" data-name="Rectangle 10895" width="0.366" height="2.888" transform="translate(25.343 47.38)" fill="#dbdbdb"/>
      <rect id="Rectangle_10896" data-name="Rectangle 10896" width="0.372" height="2.888" transform="translate(32.761 45.488) rotate(-30)" fill="#dbdbdb"/>
      <rect id="Rectangle_10897" data-name="Rectangle 10897" width="0.366" height="2.888" transform="translate(38.244 40.135) rotate(-60)" fill="#dbdbdb"/>
      <rect id="Rectangle_10898" data-name="Rectangle 10898" width="2.888" height="0.372" transform="translate(40.323 32.4)" fill="#dbdbdb"/>
      <rect id="Rectangle_10899" data-name="Rectangle 10899" width="2.888" height="0.366" transform="translate(38.245 25.036) rotate(-30)" fill="#dbdbdb"/>
      <rect id="Rectangle_10900" data-name="Rectangle 10900" width="2.888" height="0.372" transform="translate(32.766 19.685) rotate(-60.03)" fill="#dbdbdb"/>
      <rect id="Rectangle_10901" data-name="Rectangle 10901" width="18.456" height="0.366" transform="translate(20.042 42.958) rotate(-63.03)" fill="#dbdbdb"/>
      <rect id="Rectangle_10902" data-name="Rectangle 10902" width="0.491" height="18.174" transform="translate(23.995 26.151) rotate(-11.32)" fill="#263238"/>
      <g id="freepik--xsrjP0--inject-9" transform="translate(71.062 0)">
        <path id="Path_96931" data-name="Path 96931" d="M211.62,105.226c-.467-.294-.869-.719-1.5-.659-.24,0-.186-.174-.186-.306V97.209a.383.383,0,0,1,.2-.407c1.8-.9,2.571-2.684,3.673-4.194a7.017,7.017,0,0,0,1.3-5.333c-.072-.533.174-.767.653-.875a1.2,1.2,0,0,1,1.336.419,9.444,9.444,0,0,1,1.031,3.08,11.01,11.01,0,0,1-.33,2.643c-.084.647-.234,1.288-.354,1.941.156.114.342.054.509.054h5.956c.839,0,1.246.24,1.366.791a1.6,1.6,0,0,1-.869,1.726c-.144.072-.414,0-.431.24s.258.21.4.306c.719.5.6,1.51-.246,2.1-.2.144-.6.078-.6.372s.36.234.521.4a1.327,1.327,0,0,1-.6,2.079,3.46,3.46,0,0,0-.348.132c-.1.066-.2.144,0,.276a1.179,1.179,0,0,1,0,2.1l-.258.186a1.7,1.7,0,0,1-1.049.228h-9.342A1.1,1.1,0,0,1,211.62,105.226Z" transform="translate(-202.781 -86.338)" fill="#dbdbdb" fill-rule="evenodd"/>
        <path id="Path_96932" data-name="Path 96932" d="M198,107.641v-4.482c0-.3,0-.449.4-.449h5.465c.36,0,.413.12.413.437v8.988c0,.377-.1.491-.485.479h-5.3c-.443,0-.5-.15-.5-.533Z" transform="translate(-197.999 -92.9)" fill="#dbdbdb" fill-rule="evenodd"/>
      </g>
      <g id="freepik--xsrjp0--inject-9-2" data-name="freepik--xsrjp0--inject-9" transform="translate(194.939 81.553)">
        <path id="Path_96933" data-name="Path 96933" d="M418.405,223.707c.467.294.875.719,1.5.659.24,0,.186.174.192.306v7.053c0,.168,0,.312-.192.407-1.8.9-2.577,2.684-3.679,4.194a7.04,7.04,0,0,0-1.3,5.333c.078.533-.174.767-.647.875a1.2,1.2,0,0,1-1.342-.419,9.43,9.43,0,0,1-1.025-3.08,11,11,0,0,1,.324-2.643c.084-.647.234-1.282.36-1.941-.162-.114-.342-.054-.509-.054h-5.962c-.839,0-1.246-.24-1.36-.791a1.594,1.594,0,0,1,.863-1.726c.15-.072.42,0,.438-.24s-.264-.21-.4-.306c-.719-.5-.6-1.51.246-2.1.2-.144.6-.078.6-.372s-.354-.234-.521-.4a1.33,1.33,0,0,1,.6-2.079,2.617,2.617,0,0,0,.348-.132c.1-.066.2-.144,0-.276a1.183,1.183,0,0,1,0-2.1l.258-.186a1.7,1.7,0,0,1,1.049-.228h9.342A1.1,1.1,0,0,1,418.405,223.707Z" transform="translate(-404.734 -222.85)" fill="#dbdbdb" fill-rule="evenodd"/>
        <path id="Path_96934" data-name="Path 96934" d="M438.13,227.443v4.482c0,.3,0,.449-.4.449q-2.732-.036-5.465,0c-.359,0-.413-.12-.413-.437v-9.018c0-.378.1-.485.485-.479h5.3c.437,0,.5.15.5.533C438.118,224.453,438.13,225.945,438.13,227.443Z" transform="translate(-415.602 -222.44)" fill="#dbdbdb" fill-rule="evenodd"/>
      </g>
      <path id="Path_96935" data-name="Path 96935" d="M291.81,284.69v82.277h49.734V284.69Zm45.21,51.9h-40.7v-21.41h40.7Zm0-26.509h-40.7v-21.41h40.7Z" transform="translate(-164.536 -165.836)" fill="#ebebeb"/>
      <rect id="Rectangle_10903" data-name="Rectangle 10903" width="19.882" height="82.247" transform="translate(176.996 118.854)" fill="#dbdbdb"/>
      <rect id="Rectangle_10904" data-name="Rectangle 10904" width="9.671" height="21.41" transform="translate(131.792 122.827)" fill="#dbdbdb"/>
      <path id="Path_96936" data-name="Path 96936" d="M340.31,399.788H299.27V378.78h41.04Zm-40.44-.6h39.841v-19.81H299.869Z" transform="translate(-167.526 -203.547)" fill="#dbdbdb"/>
      <rect id="Rectangle_10905" data-name="Rectangle 10905" width="8.029" height="4.063" transform="translate(146.55 181.273)" fill="#dbdbdb"/>
      <path id="Path_96937" data-name="Path 96937" d="M336.075,392.921H327.44V388.87h8.635Zm-8.035-.6h7.436v-2.852h-7.436Z" transform="translate(-178.816 -207.591)" fill="#dbdbdb"/>
      <rect id="Rectangle_10906" data-name="Rectangle 10906" width="9.671" height="21.41" transform="translate(131.792 149.342)" fill="#dbdbdb"/>
    </g>
    <g id="freepik--Floor--inject-9" transform="translate(65.365 268.999)">
      <path id="Path_96938" data-name="Path 96938" d="M80.51,421.594l26.629-.144,26.623-.054,53.258-.1,53.252.1,26.629.054,26.629.144-26.629.15-26.629.054-53.252.1-53.258-.1-26.623-.054Z" transform="translate(-80.51 -421.3)" fill="#263238"/>
    </g>
    <g id="freepik--Shadows--inject-9" transform="translate(46.946 273.571)">
      <ellipse id="Ellipse_3765" data-name="Ellipse 3765" cx="85.046" cy="9.653" rx="85.046" ry="9.653" transform="translate(0)" fill="#ebebeb"/>
      <ellipse id="Ellipse_3766" data-name="Ellipse 3766" cx="42.484" cy="5.549" rx="42.484" ry="5.549" transform="translate(158.58 4.105)" fill="#ebebeb"/>
    </g>
    <g id="freepik--Puff--inject-9" transform="translate(42.723 158.433)">
      <path id="Path_96939" data-name="Path 96939" d="M67.7,361.145l98.27.425c23.884-18.761,26.365-46.552,9.312-63.4-10.312-10.186-23.411-8.131-35.881-9.755h-.036a36.705,36.705,0,0,1-12.649-3.709c-12.841-6.777-20.079-22.77-30.883-36.2-1.348-1.684-2.756-3.326-4.23-4.9-8.886-9.486-26.569-9.8-35.815,3.541C32.3,281.031,43.063,331.467,67.7,361.145Z" transform="translate(-42.723 -236.779)" fill="#dbdbdb"/>
      <path id="Path_96940" data-name="Path 96940" d="M80.659,289.857c2.577,40.321,49.135,55.373,78.227,43.293,25.287-10.5,17.012-34.472-4.332-38.487h-.048a36.7,36.7,0,0,1-12.649-3.709c-12.841-6.777-20.079-22.77-30.883-36.2C94.89,246.391,78.771,260.334,80.659,289.857Z" transform="translate(-57.867 -243.023)" fill="#c7c7c7"/>
    </g>
    <g id="freepik--Character--inject-9" transform="translate(74.913 134.15)">
      <path id="Path_96941" data-name="Path 96941" d="M195.207,401.114c-1.36-.5-32.094-25.065-32.675-26.743-.228-.635,3.092-5.321,7.262-10.87.9-1.2,1.834-2.4,2.792-3.673,6.214-8.1,12.991-16.538,12.991-16.538l20.607,16.376-13.554,16.083-3,3.535s7.562,14.669,8,16.574S196.568,401.611,195.207,401.114Z" transform="translate(-122.927 -255.186)" fill="#ad6359"/>
      <path id="Path_96942" data-name="Path 96942" d="M195.208,412.175c-1.36-.5-32.094-25.065-32.675-26.743-.27-.773,4.68-7.532,10.055-14.543l20.044,15.921-3,3.535s7.562,14.669,8,16.574S196.568,412.673,195.208,412.175Z" transform="translate(-122.928 -266.247)" fill="#fff"/>
      <path id="Path_96943" data-name="Path 96943" d="M195.207,414.632c-1.36-.5-32.094-25.065-32.675-26.743-.228-.635,3.092-5.321,7.262-10.87L189.653,392.8s7.562,14.669,8,16.574S196.568,415.13,195.207,414.632Z" transform="translate(-122.927 -268.704)" fill="#ea914e"/>
      <path id="Path_96944" data-name="Path 96944" d="M197.13,420.621c-5.051-4.242-25.826-20.888-31.159-24.7-.048-.03-.066,0,0,.036,4.913,4.314,25.826,20.786,31.1,24.747C197.16,420.789,197.22,420.711,197.13,420.621Z" transform="translate(-124.293 -276.275)" fill="#263238"/>
      <path id="Path_96945" data-name="Path 96945" d="M214.356,425.709a5.291,5.291,0,0,0-4.087-1.2,5.1,5.1,0,0,0-3.35,1.833c0,.03.03.078.06.048a6.124,6.124,0,0,1,7.322-.6.05.05,0,0,0,.054-.084Z" transform="translate(-140.722 -287.721)" fill="#263238"/>
      <path id="Path_96946" data-name="Path 96946" d="M205.3,405.285c-2.043-1.678-5.015-2.858-7.646-2.2-.1.03-.06.174,0,.192a36.589,36.589,0,0,1,7.454,2.289.17.17,0,1,0,.192-.282Z" transform="translate(-136.985 -279.077)" fill="#263238"/>
      <path id="Path_96947" data-name="Path 96947" d="M207.129,408.4c-2.037-1.678-5.009-2.858-7.64-2.2-.1.03-.06.174,0,.192a36.7,36.7,0,0,1,7.472,2.313.174.174,0,1,0,.168-.305Z" transform="translate(-137.719 -280.327)" fill="#263238"/>
      <path id="Path_96948" data-name="Path 96948" d="M208.957,411.6c-2.037-1.678-5.009-2.858-7.64-2.2-.1,0-.066.174,0,.186a36.924,36.924,0,0,1,7.448,2.295.17.17,0,0,0,.192-.282Z" transform="translate(-138.451 -281.61)" fill="#263238"/>
      <path id="Path_96949" data-name="Path 96949" d="M210.787,414.765c-2.037-1.678-5.009-2.858-7.64-2.2-.1,0-.066.168,0,.186a36.544,36.544,0,0,1,7.448,2.295.17.17,0,0,0,.192-.282Z" transform="translate(-139.184 -282.876)" fill="#263238"/>
      <path id="Path_96950" data-name="Path 96950" d="M172.23,389.169c-2.319-1.84-5.183,1.762-2.864,3.6S174.555,391.015,172.23,389.169Z" transform="translate(-125.327 -273.37)" fill="#263238"/>
      <path id="Path_96951" data-name="Path 96951" d="M214.937,399.542c-.348-1.7-2.343-1.905-3.7-1.522a13.867,13.867,0,0,0-6.088,3.775.072.072,0,0,0,0,.114.318.318,0,0,0,.24.461c2.277.156,4.7.6,6.957.06C213.679,402.137,215.273,401.148,214.937,399.542Zm-6.028,2.361c-1.127-.048-2.241-.156-3.362-.168,1.2-.731,2.337-1.51,3.6-2.127a15.342,15.342,0,0,1,1.864-.785c.995-.324,4.4-.431,2.81,1.977C212.948,402.137,210.245,401.963,208.909,401.9Z" transform="translate(-139.997 -277.055)" fill="#263238"/>
      <path id="Path_96952" data-name="Path 96952" d="M194.825,395.927c1.576,1.708,3.835,2.679,5.818,3.811a.317.317,0,0,0,.455-.252c.042,0,.084,0,.078-.078a13.824,13.824,0,0,0-2.966-6.525c-.917-1.079-2.684-2.013-3.925-.8S193.9,394.926,194.825,395.927Zm-.306-2.169c0-2.888,2.786-.9,3.433-.09a14.468,14.468,0,0,1,1.109,1.7,36.181,36.181,0,0,1,1.8,3.769c-.941-.6-1.923-1.15-2.888-1.732C196.863,396.706,194.508,395.346,194.52,393.758Z" transform="translate(-135.41 -274.513)" fill="#263238"/>
      <path id="Path_96953" data-name="Path 96953" d="M209.109,305.515c-.036,3.08-3.116,8.7-7.334,14.98-8.113,12.1-20.463,26.629-23.513,30.176l-.7.8L155.744,334.7l.252-.324,19.217-25.167-57.332-.336,21.769-16.928s1.768,1.019,5.435.479c12.655-1.852,41.184-5.95,47.907-5.681C201.667,287.113,209.241,295.6,209.109,305.515Z" transform="translate(-105.035 -232.516)" fill="#455a64"/>
      <path id="Path_96954" data-name="Path 96954" d="M227.269,335.543c-8.113,12.1-20.463,26.629-23.513,30.176L181.49,349.427l19.217-25.167Z" transform="translate(-130.53 -247.559)" fill="#263238"/>
      <path id="Path_96955" data-name="Path 96955" d="M219.84,308.636a25.554,25.554,0,0,0-1.983,2.541l-2.043,2.66v.03c.12-.264.24-.527.366-.785.425-.887.767-1.8,1.276-2.648.03-.054-.048-.1-.078-.048-.521.839-1.127,1.642-1.57,2.529-.21.413-.407.839-.6,1.264-.1.234-.21.473-.3.707-.042.114-.09.228-.126.348-.3.413-.6.827-.893,1.252-.647.935-1.2,1.923-1.876,2.858-.036.048.048.1.084.048.659-.875,1.4-1.69,2.079-2.559s1.336-1.8,1.977-2.708,1.24-1.8,1.87-2.684a27.423,27.423,0,0,0,1.887-2.762.042.042,0,0,0-.072-.042Z" transform="translate(-142.76 -241.288)" fill="#263238"/>
      <path id="Path_96956" data-name="Path 96956" d="M130.287,250.762c4.063,5,18.815,19.306,28.025,21.4,5.075,1.156,29.6,4.59,32.956,1.528,3.943-3.6,2.115-17.083-1.019-17.209-9.551-.378-27.228,1.492-31.644.521-2-.443-12.583-7.274-23.9-12.733C130.467,242.205,127.548,247.358,130.287,250.762Z" transform="translate(-109.581 -215.31)" fill="#ad6359"/>
      <path id="Path_96957" data-name="Path 96957" d="M185.793,254.94s-.054.521-.144,1.408a1.787,1.787,0,0,1-.042.461c-.054.509-.114,1.109-.18,1.768v.234q-.078.827-.18,1.762c0,.15-.036.306-.048.461-.06.569-.126,1.162-.186,1.768v.234c-.066.6-.126,1.2-.192,1.8,0,.15-.036.306-.048.455-.066.6-.132,1.2-.2,1.768a.628.628,0,0,1-.03.234c-.066.6-.132,1.2-.2,1.768l-.054.455c-.048.377-.09.749-.132,1.108-.03.222-.06.443-.084.659v.234q-.066.5-.126.971c-.036.276-.072.545-.1.8a2.783,2.783,0,0,1-.072.455c-.12.821-.222,1.438-.312,1.8a.86.86,0,0,1-.078.234s-.03.036-.042.036l-.306-.036-.851-.09-.461-.048-.983-.1-.779-.078h-.24l-1.762-.18-.461-.048-1.762-.18h-.24l-1.762-.186-.461-.048-1.762-.192h-.24l-1.762-.192-.461-.054-1.762-.2h-.24l-1.762-.21-.461-.054-.378-.048-1.384-.174-.24-.03-1.762-.234h-.114l-.348-.048-1.762-.252-.24-.036q-.953-.144-1.762-.288l-.461-.084c-.7-.126-1.294-.246-1.762-.366l-.24-.06-.126-.036a7.416,7.416,0,0,1-1.414-.6l-.222-.114-.216-.12-.246-.138c-.545-.324-1.133-.7-1.762-1.138-.078-.048-.156-.108-.24-.168l-.455-.324-.629-.455-.677-.509-.461-.354-1.138-.9-.294-.234-.33-.27-.24-.2-.318-.258c-.407-.342-.827-.683-1.24-1.043a2.624,2.624,0,0,1-.2-.174l-.336-.282-.126-.108c-.6-.5-1.2-1.013-1.762-1.534l-.144-.126-.1-.084-.168-.15-1.594-1.432-.371-.336-.09-.084-.419-.378c-.455-.413-.9-.833-1.348-1.246l-.336-.366-.324-.3-.252-.234-1.2-1.121-.461-.437-.222-.21-.485-.461-1.061-1.019-.234-.228-.527-.515-.246-.24-.983-.995-.455-.455-.33-.324-.383-.389-.066-.072a9.839,9.839,0,0,1-.989-1.168c-.084-.108-.162-.222-.234-.336s-.114-.174-.168-.258a1.954,1.954,0,0,1-.144-.24,8.174,8.174,0,0,1-.8-1.762,4.484,4.484,0,0,1-.138-.461,5.9,5.9,0,0,1-.192-1.762v-.24a3.469,3.469,0,0,1,.653-1.762,2.924,2.924,0,0,1,.443-.461,2.546,2.546,0,0,1,.318-.234,2.171,2.171,0,0,1,.234-.138,4.069,4.069,0,0,1,1.768-.425h.479a8.45,8.45,0,0,1,1.486.2h0l.282.072a1.672,1.672,0,0,1,.234.06,13.736,13.736,0,0,1,1.384.455l.383.156.461.2.228.108c.306.138.6.294.947.467l.6.306.234.126,1.612.863.156.084.288.156a1.628,1.628,0,0,1,.174.1c.6.318,1.2.641,1.762.965l.24.132,1.019.6.743.419.078.042.384.216,1.762,1,.24.138.713.407.419.24.6.36.461.27,1.762,1.007.216.126h0l.779.449.983.551.461.264,1.714.947h.048l.24.126.168.09c.6.306,1.109.6,1.594.821l.461.216a11.753,11.753,0,0,0,1.762.7h.09l.15.036a2.193,2.193,0,0,0,.252.042,14.317,14.317,0,0,0,1.51.03h.461c.515,0,1.109,0,1.762-.054h.24l.713-.03,1.049-.048h.461l1.762-.1h.24l1.762-.1h.461l1.762-.108h.24l1.762-.108.461-.03,1.762-.114h.24l1.762-.12.461-.03,1.762-.12h.24l1.762-.12.461-.036,1.762-.126h.24Z" transform="translate(-108.888 -214.946)" fill="#ea914e"/>
      <path id="Path_96958" data-name="Path 96958" d="M129.228,243.315v7.652c-.084-.108-.162-.222-.234-.336v-7.191A2.185,2.185,0,0,1,129.228,243.315Zm3.991-.144v11.942l.234.228v-12.11a1.668,1.668,0,0,0-.228-.06ZM131,242.89v10.031l.455.455V242.89Zm4.224.953v13.183l.461.437V244.04Zm2.223,1.079v14.213l.234.216v-14.3Zm4.224,2.289v15.753l.1.084.144.126V247.342Zm-1.935-1.061-.288-.156v15.052h.09l.372.336V246.246A1.612,1.612,0,0,0,139.732,246.15Zm4.015,2.223-.078-.042v16.376l.126.108.336.282V248.588Zm2.145,1.2v16.982l.24.2V249.727Zm4.44,2.547-.216-.126V269.8c.084.06.162.12.24.168V252.136Zm-2.439-1.372v17.443l.461.354V251Zm4.224,2.4v18.114h.246l.216.12V253.4Zm2.223,1.234v17.748l.24.06V254.509Zm4.314,1.977h-.09v16.562l.24.036V256.36Zm-2.313-.941v17.137l.461.084v-17Zm4.194,1.049V273.24H161V256.456Zm2.223-.066v17.119l.24.03V256.39Zm4.194-.21v17.838h.24V256.18Zm-2.223.12v17.455l.461.054V256.288Zm4.194-.234v18.18l.461.054V256.055Zm2.223-.132v18.575h.24V255.941Zm4.224-.27v19.283h.24V255.659Zm-2.223.144v18.9l.461.048V255.791Zm4.224-.282v19.618l.461.048v-19.66Zm2.223-.15v20h.24V255.371Zm4.224-.3v17.377q.06-.467.126-.971v-.234a5.09,5.09,0,0,1,.084-.659V255.072Zm-2.223.162v20.331l.461.048V255.216Zm-.983,20.235.983.1.461.048.851.09h.348a.858.858,0,0,0,.078-.234Zm-19.774-2.223h.114l1.762.234.24.03,1.384.174h19.4a2.559,2.559,0,0,1,.072-.455Zm-8.551-2,.216.12.222.114h31.309v-.234Zm-5.9-4.224.294.234h37.75a.628.628,0,0,1,.03-.234Zm2.571,2,.629.455h34.622l.054-.455Zm-5.237-4.194.336.282a2.619,2.619,0,0,0,.2.174h40.494a3.914,3.914,0,0,1,.048-.455Zm-2.295-2,.168.15.1.084H184.93v-.234Zm-4.632-4.224.252.234h48.32v-.234Zm2.157,2,.419.378v.084H185.14a3.888,3.888,0,0,1,.048-.461Zm24.717-4.224-.713.03h-.24c-.653,0-1.246.048-1.762.054h-.461a14.318,14.318,0,0,1-1.51-.03,2.195,2.195,0,0,1-.252-.042v-.036h-24.22l.485.461h50.645c0-.162.03-.318.042-.461Zm-9.162-1.852-.24-.126H132.446l.246.24h22.057Zm-7.664-4.386H128.683a1.946,1.946,0,0,0,.144.24h18.438Zm3.511,2.013H130.228l.066.072.383.389h20.469Zm-6.687-3.811-.743-.419H127.748a4.48,4.48,0,0,0,.138.461h15.861Zm-4.224-2.337-.156-.084H127.58v.24h12.176Zm-3.763-1.953-.461-.2-.383-.156h-6.16a2.927,2.927,0,0,0-.443.461h7.676Z" transform="translate(-108.923 -214.946)" fill="#fff" opacity="0.2"/>
      <path id="Path_96959" data-name="Path 96959" d="M145.552,266.33c-5.71-4.722-12.254-11.037-15.292-14.105-4.194-4.224-3.757-10.552,2.654-9.114h0C134.659,246,142.263,260.176,145.552,266.33Z" transform="translate(-108.901 -214.951)" fill="#263238"/>
      <path id="Path_96960" data-name="Path 96960" d="M217.042,266.048c0-.054-.078-.072-.09,0-.276,1.39-.389,2.816-.545,4.224s-.306,2.906-.437,4.368c-.258,2.9-.563,5.824-.659,8.742a.1.1,0,0,0,.186,0c.438-2.864.671-5.776.941-8.659.132-1.426.264-2.858.366-4.29S217.06,267.5,217.042,266.048Z" transform="translate(-144.085 -224.209)" fill="#263238"/>
      <path id="Path_96961" data-name="Path 96961" d="M134.621,286.7a2.922,2.922,0,0,1-.953.306l-.24.048-.6.126-1.138.2-.186.03-.276.042-1.762.282-.24.03c-.557.09-1.144.174-1.762.264l-.461.066-1.762.246-.24.03-1.762.24-.461.06-1.762.228-.24.03-.713.09-1.049.138h-.2a.64.64,0,0,0-.258.036l-1.762.216-.24.03-1.492.18-.27.03-.461.06-1.762.216-.24.03-1.762.2-.461.054-1.762.2-.24.03-1.762.2a2.938,2.938,0,0,0-.461.054l-1.762.192-.24.03h-.3l-1.462.156-.461.054-1.762.18-.24.03h-.084c-.653.066-1.2.12-1.678.156l-.461.042-.5.036a1.841,1.841,0,0,1-.407,0,.426.426,0,0,1-.036-.234,16.837,16.837,0,0,1,.084-1.762,2.077,2.077,0,0,1,.036-.461c.048-.521.108-1.109.18-1.768v-.234c.06-.551.126-1.138.2-1.768l.054-.455c.066-.563.138-1.156.216-1.8v-.234q.066-.467.126-.953l.108-.815a4.125,4.125,0,0,1,.06-.455c.078-.6.162-1.162.246-1.768l.036-.234a.668.668,0,0,1,0-.1c.078-.545.156-1.1.24-1.666a3.089,3.089,0,0,1,.066-.455c.09-.6.18-1.168.27-1.768l.036-.234c.09-.6.18-1.2.276-1.8a3.151,3.151,0,0,1,.078-.455c.09-.6.192-1.2.288-1.768a.531.531,0,0,1,.036-.234c.1-.6.2-1.2.312-1.768a2.415,2.415,0,0,1,.078-.455c.03-.15.054-.324.084-.479l.234-1.288v-.042l.036-.192c.108-.6.222-1.2.336-1.768a2.042,2.042,0,0,1,.09-.455c.108-.6.228-1.2.342-1.8l.054-.234c.12-.6.24-1.2.366-1.768.036-.156.066-.306.1-.461.132-.6.264-1.2.4-1.762a.321.321,0,0,1,.042-.192c.042-.066,0-.03,0-.042.138-.6.282-1.2.419-1.768l.036-.138a1.29,1.29,0,0,1,.084-.324c.15-.6.3-1.2.455-1.762a.9.9,0,0,1,.066-.24c.162-.6.33-1.2.5-1.762l.144-.461c.168-.557.342-1.091.515-1.594a.472.472,0,0,1,.06-.168c.024-.054.054-.162.084-.24s.06-.18.1-.264c.1-.294.21-.6.318-.845s.174-.443.264-.653.138-.312.2-.461a11.385,11.385,0,0,1,.965-1.762h0s.108-.156.162-.222a4.619,4.619,0,0,1,.3-.353l.168-.168.318-.288c.407-.36.785-.677,1.138-.953a1.085,1.085,0,0,1,.138-.108l.24-.186.228-.168c.551-.407,1.055-.737,1.534-1.037l.557-.162.1-.06a3.962,3.962,0,0,1,.815-.371,7.6,7.6,0,0,1,.851-.228h.066l.174-.036a16.825,16.825,0,0,1,1.762-.222h.461c.6,0,1.2-.042,1.762,0h.24a16.436,16.436,0,0,1,1.762.108l.461.054a5.425,5.425,0,0,1,.821.15l.1.036a1.32,1.32,0,0,1,.324.2,4.8,4.8,0,0,1,.515.5l.24.27a11.479,11.479,0,0,1,.761.995c.108.15.216.3.324.461.222.33.449.689.677,1.067.138.222.282.455.413.7l.048.078.09.162c.318.563.6,1.156.911,1.762.078.15.15.306.222.461q.288.629.539,1.276c.066.162.126.324.186.485l.054.144.036.1a17.7,17.7,0,0,1,.515,1.7.179.179,0,0,1,0,.06c.036.132.072.288.12.461.114.461.264,1.055.449,1.762a.96.96,0,0,0,.066.24c.138.533.288,1.121.461,1.762a1.763,1.763,0,0,0,.1.407.176.176,0,0,1,0,.054q.216.8.449,1.69v.078a1.117,1.117,0,0,0,.06.234l.467,1.762c.036.15.078.306.12.461.15.6.306,1.162.461,1.768a.855.855,0,0,0,.066.234c.15.6.306,1.2.461,1.8l.108.413a.371.371,0,0,1,0,.042c.078.282.15.569.228.857l.234.911a.857.857,0,0,0,.066.234c.15.6.306,1.2.455,1.768.042.15.084.3.12.455.156.6.312,1.2.461,1.768a1.116,1.116,0,0,0,.06.234c.12.467.246.935.366,1.4l.09.366c.042.15.078.306.12.455l.252.977c.066.27.132.533.2.791a.839.839,0,0,0,.06.234l.443,1.768c.042.156.078.306.12.455.15.6.3,1.2.437,1.768a1.118,1.118,0,0,0,.06.234l.431,1.768h0l.108.443c.042.2.09.389.132.6.1.414.2.815.282,1.2l.054.234c.156.677.282,1.27.383,1.8.036.162.066.318.09.455A3.594,3.594,0,0,1,134.621,286.7Z" transform="translate(-96.46 -213.964)" fill="#ea914e"/>
      <path id="Path_96962" data-name="Path 96962" d="M99.857,266.216v25.119l-.24.03V267.546l.234-1.288A.339.339,0,0,0,99.857,266.216ZM97.844,278.7l-.036.234c-.084.6-.168,1.2-.246,1.768a3.782,3.782,0,0,1-.06.455l-.126.815v9.587l.461-.042V278.6A.666.666,0,0,0,97.844,278.7Zm4.194-22.89c-.138.6-.282,1.168-.419,1.768h0v33.556l.461-.054V255.67Zm1.929-6.675a1.043,1.043,0,0,1-.084.24c-.024.084-.042.114-.06.168v41.387l.24-.03v-42.04A1.264,1.264,0,0,1,103.968,249.132Zm4.081-6.094v47.409l.24-.03V242.841Zm-2.061,1.87c-.054.066-.108.144-.162.222v45.576a4.193,4.193,0,0,0,.461-.054V244.542q-.149.17-.282.354Zm4.063-3.26v48.566l.461-.054V241.343Zm2.289-.965h-.066v49.273l.24-.03V240.636Zm4.158-.312v49.069l.24-.03V240.36Zm-2.223.054V289.7l.461-.06V240.39Zm4.194.054V289.2a.641.641,0,0,0,.258-.036h.2V240.522Zm2.223.941v47.487l.24-.03v-47.2Zm4.458,7.712c-.06-.162-.12-.324-.186-.485v39.7l.24-.03V249.132Zm-2-4.194c-.132-.24-.276-.473-.413-.7V288.68l.461-.06V244.974Zm3.823,10.912a.173.173,0,0,0,0-.054v32.285l.461-.066V257.521q-.246-.911-.461-1.714ZM129.2,264.3a.391.391,0,0,0,0-.042v23.519l.24-.03v-22.59c-.09-.33-.162-.617-.24-.9Zm4.32,16.9-.108-.443v6.31l.24-.048v-5.237c-.042-.234-.09-.425-.132-.623Zm-2.121-8.449c-.042-.15-.078-.306-.12-.455l-.09-.366v15.5l.276-.042.186-.03V273.7ZM96.448,291.371a.425.425,0,0,0,.036.234h.893v-.036l.461-.042c.461-.036,1.025-.09,1.678-.156Zm.12-2.223a1.923,1.923,0,0,1-.036.461h18.492l1.492-.18.24-.03,1.762-.216a.642.642,0,0,0,.258-.036Zm.2-2v.234h34.718l.186-.03,1.138-.2Zm37.151-4.224H97.269v.234h36.719Zm.437,2H97.023l-.054.455h37.492c-.024-.138-.054-.294-.09-.455Zm-.959-4.194H97.562a3.779,3.779,0,0,1-.06.455h36.018Zm-.5-2.013H97.844l-.036.234h35.167c-.018-.1-.042-.174-.06-.252Zm-1.061-4.194H98.467l-.036.234h33.484c-.024-.126-.042-.2-.06-.282Zm.5,2H98.161a2.877,2.877,0,0,1-.066.455h34.383c-.042-.2-.078-.348-.12-.5Zm-1.079-4.224H98.82a2.894,2.894,0,0,1-.078.455H131.4c-.042-.2-.078-.354-.12-.5Zm-.515-2H99.174a.531.531,0,0,1-.036.234h31.716a2.046,2.046,0,0,1-.09-.282Zm-1.1-4.224H99.893l-.036.192v.042h29.877a.8.8,0,0,0-.072-.282Zm.521,2H99.534a3.017,3.017,0,0,1-.078.455h30.877c-.066-.222-.108-.354-.15-.5Zm-.995-3.811-.108-.413H100.307c-.036.15-.066.306-.09.455h28.972a.385.385,0,0,0,0-.09Zm-.635-2.4H100.714l-.054.234h27.959a.907.907,0,0,0-.084-.3Zm-1.109-4.224H101.607v.042a.321.321,0,0,1-.042.192h25.928a1.349,1.349,0,0,0-.048-.3Zm.527,2H101.175a2.11,2.11,0,0,1-.1.461h27.012c-.042-.222-.084-.378-.12-.527Zm-1.007-3.817c-.036-.138-.072-.276-.1-.407H102.17a1.611,1.611,0,0,1-.084.324l-.036.138h24.927a.174.174,0,0,0-.012-.12Zm-.6-2.4H102.685a1.192,1.192,0,0,1-.066.24H126.4c-.024-.162-.048-.24-.066-.336Zm-1.133-4.081v-.21H103.968a1.043,1.043,0,0,1-.084.24H125.24Zm.563,1.858H103.327l-.144.461h22.7c-.048-.252-.084-.408-.12-.539Zm-1.564-4.194H104.867c-.066.15-.138.3-.2.461h19.774a4.662,4.662,0,0,0-.234-.569Zm-1-1.923-.048-.078H106.005c-.054.066-.108.144-.162.222H123.3Zm-3.3-4.266-.1-.036h-7.526a7.608,7.608,0,0,0-.851.228h8.784a1.318,1.318,0,0,0-.324-.3Zm1.84,1.965H108.576l-.228.168-.24.186a1.082,1.082,0,0,0-.138.108h14.093a2.892,2.892,0,0,0-.324-.569Z" transform="translate(-96.444 -213.932)" fill="#fff" opacity="0.2"/>
      <path id="Path_96963" data-name="Path 96963" d="M124.774,291.479c-5.651.725-11.864,1.456-16.484,1.959l.857-42.933a10.2,10.2,0,0,1,2.073-3.637l.318-.288Z" transform="translate(-101.192 -216.425)" fill="#263238"/>
      <path id="Path_96964" data-name="Path 96964" d="M142.764,286.808q-.431-2-.869-3.991-.881-3.991-1.8-7.975-1.852-8.035-3.925-16.017c-.767-3-1.588-5.956-2.343-8.946a.048.048,0,0,0-.09,0c1.384,5.3,2.589,10.642,3.829,15.975s2.457,10.618,3.643,15.939l.989,4.476c.33,1.51.6,3.068,1.031,4.542.048.168.342.132.318-.048C143.393,289.487,143.046,288.127,142.764,286.808Z" transform="translate(-111.392 -217.735)" fill="#263238"/>
      <path id="Path_96965" data-name="Path 96965" d="M129.252,241.991c-2.217.306-5.633-3.368-6.849-6.2a44.6,44.6,0,0,1,.845-4.464c.27-1.432.539-3.032.683-4.506,0-.306,1.007.348,1.007.348l1.864.647,6.178,2.133a23.6,23.6,0,0,0-1.432,5.585,3,3,0,0,0,0,.6v.1C131.631,237.425,131.4,241.692,129.252,241.991Z" transform="translate(-106.844 -208.475)" fill="#ad6359"/>
      <path id="Path_96966" data-name="Path 96966" d="M132.858,236.659v.1a5.854,5.854,0,0,1-.953-.042c-6.226-.731-6.256-8.718-6.256-8.718l2.457.342,6.178,2.133a23.6,23.6,0,0,0-1.432,5.585A3,3,0,0,0,132.858,236.659Z" transform="translate(-108.15 -208.978)" fill="#263238"/>
      <path id="Path_96967" data-name="Path 96967" d="M125.94,204.716c-1.66,3-1.905,12.709-.048,15.268,2.7,3.715,8.089,5.141,11.493,1.678,3.3-3.362,3.392-15.993,1.2-18.42C135.414,199.664,128.4,200.246,125.94,204.716Z" transform="translate(-107.727 -198.122)" fill="#ad6359"/>
      <path id="Path_96968" data-name="Path 96968" d="M139.741,220.66s-.054.03-.054.054c0,.653-.108,1.4-.707,1.6v.036C139.711,222.272,139.843,221.277,139.741,220.66Z" transform="translate(-113.492 -206.037)" fill="#263238"/>
      <path id="Path_96969" data-name="Path 96969" d="M138.724,219.487c-1.049-.108-1.2,1.989-.222,2.1S139.6,219.583,138.724,219.487Z" transform="translate(-113.038 -205.565)" fill="#263238"/>
      <path id="Path_96970" data-name="Path 96970" d="M146.466,221.27s.054.036.048.066c-.066.647,0,1.4.545,1.66v.036C146.334,222.906,146.3,221.875,146.466,221.27Z" transform="translate(-116.46 -206.281)" fill="#263238"/>
      <path id="Path_96971" data-name="Path 96971" d="M147.1,220.21c1.055,0,.989,2.1,0,2.1S146.22,220.216,147.1,220.21Z" transform="translate(-116.466 -205.856)" fill="#263238"/>
      <path id="Path_96972" data-name="Path 96972" d="M137.628,216.833a8.162,8.162,0,0,0,.833-.228,1.384,1.384,0,0,0,.8-.4.449.449,0,0,0-.03-.545,1.108,1.108,0,0,0-1.1-.192,1.618,1.618,0,0,0-.983.635.473.473,0,0,0,.479.725Z" transform="translate(-112.727 -203.93)" fill="#263238"/>
      <path id="Path_96973" data-name="Path 96973" d="M147.936,217.549c-.288-.072-.539-.18-.821-.276a1.4,1.4,0,0,1-.779-.443.443.443,0,0,1,.06-.539,1.12,1.12,0,0,1,1.115-.132,1.642,1.642,0,0,1,.947.689.479.479,0,0,1-.521.7Z" transform="translate(-116.415 -204.196)" fill="#263238"/>
      <path id="Path_96974" data-name="Path 96974" d="M138.94,230.271c.144.162.288.383.521.419a1.714,1.714,0,0,0,.713-.114v.036a.887.887,0,0,1-.851.294.7.7,0,0,1-.473-.6C138.856,230.253,138.94,230.247,138.94,230.271Z" transform="translate(-113.44 -209.883)" fill="#263238"/>
      <path id="Path_96975" data-name="Path 96975" d="M139.9,222.9a2.223,2.223,0,0,0,1.408,1.091,2.74,2.74,0,0,0,.8.09.665.665,0,0,0,.156,0h.144a.162.162,0,0,0,.138-.138h0a.246.246,0,0,0,0-.066h0V223.8c.048-.5.048-1.264.048-1.264.18.1,1.085.6,1.085.324a33.373,33.373,0,0,0-.389-6.771.06.06,0,1,0-.12,0c-.108,2.091.162,4.194.09,6.292a3.906,3.906,0,0,0-1.025-.4,13.4,13.4,0,0,0,0,1.708h0a3.086,3.086,0,0,1-2.241-.875C139.92,222.807,139.866,222.849,139.9,222.9Z" transform="translate(-113.857 -204.181)" fill="#263238"/>
      <path id="Path_96976" data-name="Path 96976" d="M138.428,204.653c-3.338,1.9-7.376-1.732-7.376-1.732a3.445,3.445,0,0,1-3.661,1.882s-1.067,5.285-2.475,5.159c-2.145-.192-2.2-7.532-1.4-8.9a3.851,3.851,0,0,1,2.649-1.588,3.536,3.536,0,0,1,1.636-2c1.558-1,6.483.935,6.483.935a4.733,4.733,0,0,1,1.444-1.642,1.33,1.33,0,0,1,1.893.336,3.146,3.146,0,0,0-.6,1.276c-.383,1.54.893,1.642,1,.228a2.253,2.253,0,0,0-.378-1.5c.707-.875,1.762-1.091,2.343-.539C141.023,197.552,141.2,203.077,138.428,204.653Z" transform="translate(-107.104 -196.255)" fill="#263238"/>
      <path id="Path_96977" data-name="Path 96977" d="M124.911,218.647s-1.546-3.427-3.062-2.93-.749,5.183.749,6.088a1.672,1.672,0,0,0,2.367-.467Z" transform="translate(-106.296 -204.036)" fill="#ad6359"/>
      <path id="Path_96978" data-name="Path 96978" d="M122.809,218s-.036.03,0,.042a4.226,4.226,0,0,1,1.66,3,.923.923,0,0,0-1.312-.5c-.03,0,0,.066,0,.066a1.031,1.031,0,0,1,1.049.563,5.176,5.176,0,0,1,.359.995c.036.114.228.1.21-.03h0C125.074,220.654,124.331,218.425,122.809,218Z" transform="translate(-107.005 -204.97)" fill="#263238"/>
      <path id="Path_96979" data-name="Path 96979" d="M130.442,241.506l-2.013,5.021-6.957-6.687L119.62,242.1s6.927,10.75,6.957,10.258l2.1-4.758,3.332,3.17-.5-8.185Z" transform="translate(-105.733 -213.724)" fill="#ea914e"/>
      <path id="Path_96980" data-name="Path 96980" d="M131.9,248.208c-.126-1.348-.216-2.714-.407-4.057a.048.048,0,0,0-.09,0c-.234,1.312.282,6.465.312,7.706h0c-.144-.138-3.086-2.786-3.116-2.744-.461.761-2.007,4.194-2.115,4.536-1.1-1.708-5.734-8.431-7.017-10.037a.048.048,0,0,0-.078.048c.977,1.8,6.969,10.684,7.053,10.66a52.07,52.07,0,0,0,2.2-5.027,31.474,31.474,0,0,0,3.493,3.374A42.3,42.3,0,0,0,131.9,248.208Z" transform="translate(-105.64 -215.231)" fill="#263238"/>
      <path id="Path_96981" data-name="Path 96981" d="M183.41,280.206h24.334l4.6-34.436H188.012Z" transform="translate(-131.299 -216.1)" fill="#a6a6a6"/>
      <path id="Path_96982" data-name="Path 96982" d="M185.41,280.206h24.328l4.6-34.436H190.006Z" transform="translate(-132.101 -216.1)" fill="#dbdbdb"/>
      <path id="Path_96983" data-name="Path 96983" d="M210.325,270.056a2.637,2.637,0,0,1-2.577,2.367,2.133,2.133,0,0,1-2.157-2.367,2.631,2.631,0,0,1,2.571-2.4,2.139,2.139,0,0,1,2.163,2.4Z" transform="translate(-140.184 -224.873)" fill="#fff"/>
      <path id="Path_96984" data-name="Path 96984" d="M110.175,253.78c-1.144,16.029,1.678,27.066,4.5,28.247,7.61,3.188,30.745,4.961,36.048,4.4,2.073-.216.707-17.407-1.522-17.377-5.525.15-25.766.318-26.03.2-1.72-.809-1.8-6.154-5.776-17.575C114.19,242.455,110.643,247.225,110.175,253.78Z" transform="translate(-101.843 -216.411)" fill="#ad6359"/>
      <path id="Path_96985" data-name="Path 96985" d="M190.836,277.439a2.487,2.487,0,0,1,0,2.834,3.667,3.667,0,0,1,1.893,1.636c.677,1.36-1.15,3-1.15,3a4.559,4.559,0,0,1,1.72,2.049c.521,1.366-1.091,3.3-1.091,3.3a4,4,0,0,1,.384,2.75c-.413,1.594-4.386,3.625-6.753,4.38s-9.779.689-11.2.815l-4.979-15.136s9.635-6.405,12.541-6.9C184.682,275.767,189.692,275.893,190.836,277.439Z" transform="translate(-125.788 -228.205)" fill="#ad6359"/>
      <path id="Path_96986" data-name="Path 96986" d="M199.384,282.778a31.987,31.987,0,0,0-7.969.929c-.06,0-.042.1,0,.09,2.625-.509,5.321-.491,7.963-.893a.066.066,0,0,0,.006-.126Z" transform="translate(-134.492 -230.919)" fill="#263238"/>
      <path id="Path_96987" data-name="Path 96987" d="M201.051,290.608a7.014,7.014,0,0,0-1.8.294c-.641.15-1.276.312-1.911.479-1.264.342-2.529.713-3.775,1.121a.048.048,0,1,0,0,.09c1.264-.336,2.535-.659,3.811-.941.641-.144,1.282-.276,1.923-.407a8.393,8.393,0,0,0,1.8-.461.09.09,0,0,0-.048-.174Z" transform="translate(-135.344 -234.07)" fill="#263238"/>
      <path id="Path_96988" data-name="Path 96988" d="M202.659,299.86a4.854,4.854,0,0,0-1.63.354l-1.726.491c-1.156.324-2.307.641-3.469.923-.06,0-.042.108,0,.09,1.2-.276,2.4-.539,3.547-.833.6-.138,1.162-.288,1.744-.437a4.537,4.537,0,0,0,1.534-.533S202.689,299.86,202.659,299.86Z" transform="translate(-136.263 -237.779)" fill="#263238"/>
      <path id="Path_96989" data-name="Path 96989" d="M146.694,268.006V287.3l-1.534-.078h-.977l-1.246-.066h-.24l-1.762-.114h-.461l-1.762-.12h-.24l-1.762-.138-.461-.036-1.762-.15h-.24l-1.762-.162-.461-.048-1.762-.186h-.24c-.6-.06-1.2-.132-1.762-.2l-.461-.054-1.762-.228-.234-.186-.857-.12-.9-.132-.461-.072-.168-.03c-.545-.084-1.073-.174-1.594-.27l-.24-.042c-.6-.108-1.2-.222-1.762-.342l-.461-.1c-.6-.138-1.2-.276-1.762-.425l-.24-.066q-.917-.252-1.672-.521l-.09-.03-.461-.18c-.192-.084-.378-.162-.545-.246a5.2,5.2,0,0,1-1.2-.749l-.06-.054-.18-.186a4.912,4.912,0,0,1-.6-.779c-.048-.072-.09-.15-.138-.234a11.646,11.646,0,0,1-.815-1.768l-.162-.455-.054-.168c-.162-.479-.318-.995-.461-1.54v-.06l-.054-.234c-.15-.563-.282-1.156-.413-1.8a3.183,3.183,0,0,0-.084-.455c-.12-.569-.222-1.163-.318-1.768a1.6,1.6,0,0,0-.042-.234c-.09-.6-.174-1.168-.252-1.768a3.953,3.953,0,0,0-.06-.455c-.072-.6-.144-1.2-.2-1.768v-.234c-.06-.6-.114-1.2-.162-1.768l-.036-.455c-.036-.455-.066-.911-.1-1.366v-.635c-.036-.6-.06-1.2-.084-1.768V261.8c0-.6-.036-1.2-.048-1.762v-2.463c0-.6,0-1.2.036-1.762v-.24c0-.6.042-1.2.078-1.762v-.461c0-.288.042-.557.066-.821s.066-.647.1-.941v-.24c.054-.413.12-.785.186-1.109.048-.228.1-.443.156-.653s.09-.312.138-.461a6.98,6.98,0,0,1,.821-1.762l.18-.24.15-.18a2.865,2.865,0,0,1,.461-.437A2.271,2.271,0,0,1,113.2,246l.24.048a3.781,3.781,0,0,1,1.75,1.085h0c.072.072.144.144.216.228s.168.186.246.288a9.988,9.988,0,0,1,.983,1.474l.252.461c.18.354.354.731.527,1.138.078.192.162.389.24.6h0l.09.24c.174.473.348.977.509,1.51a1.014,1.014,0,0,0,.078.252c.024.084.09.306.144.461l.533,1.762.072.24c.108.366.216.725.324,1.073.072.234.144.461.21.689s.1.312.138.461.078.24.114.36l.431,1.408a.892.892,0,0,0,.078.234c.186.6.372,1.2.545,1.762.054.156.1.312.144.461.2.6.383,1.2.563,1.732V264a1.306,1.306,0,0,0,.078.234l.15.443c.162.485.318.923.461,1.324l.174.455a10.843,10.843,0,0,0,.8,1.768,1.435,1.435,0,0,0,.186.234.252.252,0,0,0,.144.066h.461l1.762-.036H128.3l1.762-.042h.24l1.762-.042h.461l1.762-.042h.24l1.762-.042h.461l1.762-.048h.24l1.762-.048h.461l1.762-.042h.24l1.762-.048h.461Z" transform="translate(-101.504 -216.183)" fill="#ea914e"/>
      <path id="Path_96990" data-name="Path 96990" d="M109.046,252.591V264.06c-.036-.6-.06-1.2-.084-1.768v-.461c0-.6-.036-1.2-.048-1.762v-2.463c0-.6,0-1.2.036-1.762v-.24c0-.6.042-1.2.078-1.762v-.461A3.783,3.783,0,0,1,109.046,252.591ZM113.03,246v35.952l.18.186.06.054v-36.12Zm-2.223.953V277c.144.545.3,1.061.461,1.54v-32a2.865,2.865,0,0,0-.461.437Zm4.44.419c-.072-.084-.144-.156-.216-.228v36.036l.461.18V247.684c-.078-.1-.162-.2-.246-.288Zm2.007,3.362v33.178l.24.066V251.351c-.078-.2-.174-.4-.24-.593Zm4.314,13.536c-.03-.078-.054-.156-.078-.234s0,0,0-.036v20.846l.24.042V264.737Zm-1.965-6.226c-.042-.15-.09-.306-.138-.461s-.138-.455-.21-.689V284.4l.461.1V258.068Zm3.877,10.516v16.628l.461.072V268.578Zm2.223-.066v17.053l.24.036V268.518Zm4.194-.078v17.611h.24V268.434Zm-2.223.054v17.305l.461.054V268.452Zm4.194-.1v17.868l.461.048v-17.9Zm2.223-.054v18.132h.24V268.332Zm4.194-.108v18.575h.24V268.225Zm-2,.054h-.228v18.36l.461.036V268.279Zm4-.108v18.779h.461V268.171Zm2.223-.054v18.977h.24V268.117Zm2-.054v19.139h.461V268.009Zm-21.2,17.137.168.03.461.072.9.132H146.6v-.234Zm20.775,2h.977l1.534.078v-.126Zm-29.6-4.224c.168.084.354.162.545.246l.461.18.09.03H146.6v-.455Zm-2.187-2c.048.084.09.162.138.234h34.155v-.234Zm-1.564-4.194.054.234H146.6v-.234Zm.6,2,.162.455H146.61v-.455Zm-1.085-4.224a2.346,2.346,0,0,0,.084.455H146.61v-.455Zm-.36-2a.463.463,0,0,0,.042.234H146.61v-.234Zm-.539-4.224v.234h13.962a1.438,1.438,0,0,1-.186-.234Zm26.815,0h0l-1.762.042h-.24l-1.762.042h-.461l-1.762.042H129.9l-1.762.042h18.432v-.234Zm-26.587,2a2.963,2.963,0,0,0,.06.455H146.61v-.455Zm12.613-4.195H109.142l.036.455H122.36Zm-.677-2.061H109v.234h12.547A.531.531,0,0,1,121.515,264.06Zm-1.342-4.224H108.848v.234h11.385c-.03-.078-.054-.156-.084-.234Zm.6,2H108.9v.461H120.88a1.658,1.658,0,0,0-.108-.461Zm-1.306-4.224H108.83v.461h10.786C119.562,257.918,119.514,257.762,119.466,257.607Zm-.6-2h-9.995v.24h10.067Zm-1.354-4.194h-8.329v.24h8.449Zm.677,2h-9.21v.461h9.378a3.78,3.78,0,0,1-.174-.491Zm-1.708-4.194h-6.825c-.048.15-.1.306-.138.461h7.19Zm-1.45-2.019h-4.374l-.18.24h4.794A.886.886,0,0,0,115.032,247.2Z" transform="translate(-101.408 -216.193)" fill="#fff" opacity="0.2"/>
      <path id="Path_96991" data-name="Path 96991" d="M153.443,274.567a.2.2,0,0,0-.18-.288c-3.032-.036-6.082.126-9.114.2s-6.076.138-9.114.24c-1.708.06-4.991.21-5.021.162s-.947-2.9-1.145-3.493c-.383-1.156-.785-2.307-1.2-3.463-.114-.336-.234-.671-.354-1-.036-.228-.078-.455-.1-.677s-.072-.6-.108-.935a17.316,17.316,0,0,0-.306-1.84.048.048,0,0,0-.09.03,10.3,10.3,0,0,1,.192,1.917l.036.461c-.6-1.594-.743-1.875-1.252-3.487a.048.048,0,1,0-.09,0c.6,2.331.923,3.332,1.654,5.633.372,1.162.737,2.325,1.127,3.487.192.563,1.067,3.2,1.348,3.727.036.066,3.116-.108,4.632-.132s3.038-.048,4.56-.084l9.114-.228c1.684-.042,3.38-.042,5.063-.138,0,.2.15,1.2.138,1.264a.046.046,0,1,0,.09,0C153.317,275.849,153.449,274.585,153.443,274.567Z" transform="translate(-108.128 -222.738)" fill="#263238"/>
      <path id="Path_96992" data-name="Path 96992" d="M165.666,285.281a.048.048,0,0,0-.1,0c-.192,1.336-.222,2.7-.3,4.051s-.138,2.792-.186,4.194c-.09,2.786-.228,5.585-.15,8.389a.09.09,0,1,0,.18,0c.276-2.75.342-5.537.443-8.3q.078-2.049.12-4.111C165.7,288.092,165.767,286.665,165.666,285.281Z" transform="translate(-123.885 -231.919)" fill="#263238"/>
      <path id="Path_96993" data-name="Path 96993" d="M154.311,301.022v-.893a.215.215,0,0,0,0-.132h0v-.168h-.048V300h0v.042c-.054,1.444-.21,2.888-.276,4.332s-.09,2.906-.078,4.368c-1.648-.138-3.32-.12-4.973-.2s-3.427-.21-5.141-.348c-3.433-.276-6.861-.6-10.276-1.085l-2.846-.4c-.965-.138-1.971-.21-2.918-.437-.06,0-.084.084,0,.1.869.108,1.732.348,2.595.5s1.69.3,2.541.431q2.541.408,5.1.719,5.105.635,10.246.893l2.942.126c.965.03,1.941.09,2.906.042a.174.174,0,0,0,.162-.156c0-1.516.078-3.032.1-4.548v-2.229C154.329,301.765,154.323,301.394,154.311,301.022Z" transform="translate(-108.971 -237.767)" fill="#263238"/>
      <path id="Path_96994" data-name="Path 96994" d="M225.31,262.31c1.528,1.965,5.063,4.111,5.674,5.854a2.127,2.127,0,0,1-.671,2.445s1.989.5,2.283,2.169c.15.863-1.1,1.864-1.1,1.864a2.529,2.529,0,0,1,1.744,1.971,2.45,2.45,0,0,1-1.132,2.019s1.3,1.151,1.043,2.4c-.515,2.565-10.63,4.794-13.015,1.414-1.114-1.576,1.384-1.983,1.384-1.983s-3.733-.282-4.248-2.355,2.768-2.4,2.768-2.4-3.625-.3-3.937-2.5,3-2.073,3-2.073-2.583-1.025-2.439-2.768c.24-2.876,5.884-.425,7.993-1.444Z" transform="translate(-144.395 -222.73)" fill="#ad6359"/>
      <path id="Path_96995" data-name="Path 96995" d="M235.406,289.81v.054a17.976,17.976,0,0,1-10.558,1.678c-.114,0-.132-.216,0-.216A36.724,36.724,0,0,0,235.406,289.81Z" transform="translate(-147.87 -233.751)" fill="#263238"/>
      <path id="Path_96996" data-name="Path 96996" d="M234.025,282.9c.036,0,.06.054,0,.072a16.826,16.826,0,0,1-11.631,1.115c-.132-.036-.216-.21-.054-.174C225.025,284.488,230.825,283.9,234.025,282.9Z" transform="translate(-146.867 -230.982)" fill="#263238"/>
      <path id="Path_96997" data-name="Path 96997" d="M220.656,276.568a23.405,23.405,0,0,0,11.331-.288c.048,0,.06.054,0,.078a15.1,15.1,0,0,1-6.148,1.372A10.313,10.313,0,0,1,220.6,276.7C220.555,276.669,220.573,276.55,220.656,276.568Z" transform="translate(-146.195 -228.329)" fill="#263238"/>
      <path id="Path_96998" data-name="Path 96998" d="M311.357,385.9c-.5,1.354-25.167,32.016-26.844,32.591-.635.222-5.309-3.11-10.846-7.3-1.2-.9-2.4-1.846-3.667-2.8-8.071-6.238-16.49-13.045-16.49-13.045l16.436-20.559,16.041,13.614,3.523,3s14.693-7.514,16.6-7.946S311.861,384.535,311.357,385.9Z" transform="translate(-159.395 -267.807)" fill="#ad6359"/>
      <path id="Path_96999" data-name="Path 96999" d="M322.387,391.641c-.5,1.354-25.167,32.016-26.844,32.591-.779.264-7.514-4.71-14.513-10.1l15.987-19.99,3.523,3s14.693-7.514,16.6-7.945S322.891,390.281,322.387,391.641Z" transform="translate(-170.425 -273.552)" fill="#fff"/>
      <path id="Path_97000" data-name="Path 97000" d="M324.84,391.633c-.5,1.354-25.167,32.016-26.845,32.591-.635.222-5.309-3.11-10.846-7.3l15.843-19.81s14.693-7.514,16.6-7.945S325.343,390.273,324.84,391.633Z" transform="translate(-172.878 -273.544)" fill="#ea914e"/>
      <path id="Path_97001" data-name="Path 97001" d="M330.831,392.374c-4.266,5.039-20.972,25.766-24.8,31.063,0,.042,0,.066.03,0,4.332-4.9,20.876-25.766,24.855-31.015C331,392.332,330.921,392.272,330.831,392.374Z" transform="translate(-180.444 -274.837)" fill="#263238"/>
      <path id="Path_97002" data-name="Path 97002" d="M335.979,391a5.285,5.285,0,0,0-1.2,4.081,5.135,5.135,0,0,0,1.8,3.356c.03,0,.078-.03.048-.06a6.13,6.13,0,0,1-.6-7.328.042.042,0,0,0-.048-.048Z" transform="translate(-191.95 -274.307)" fill="#263238"/>
      <path id="Path_97003" data-name="Path 97003" d="M315.512,399.79c-1.684,2.031-2.876,5-2.223,7.634,0,.1.174.066.192,0a36.433,36.433,0,0,1,2.313-7.442.17.17,0,1,0-.282-.192Z" transform="translate(-183.281 -277.801)" fill="#263238"/>
      <path id="Path_97004" data-name="Path 97004" d="M318.682,397.95c-1.684,2.031-2.876,5-2.223,7.634,0,.1.168.066.186,0a36.453,36.453,0,0,1,2.319-7.442.17.17,0,1,0-.282-.192Z" transform="translate(-184.551 -277.063)" fill="#263238"/>
      <path id="Path_97005" data-name="Path 97005" d="M321.842,396.15c-1.684,2.031-2.876,5-2.223,7.634.03.1.174.066.192,0a36.438,36.438,0,0,1,2.313-7.442.17.17,0,0,0-.282-.192Z" transform="translate(-185.818 -276.342)" fill="#263238"/>
      <path id="Path_97006" data-name="Path 97006" d="M325.012,394.33c-1.684,2.037-2.876,5-2.223,7.634,0,.1.168.066.186,0a36.552,36.552,0,0,1,2.319-7.442.17.17,0,1,0-.282-.192Z" transform="translate(-187.088 -275.612)" fill="#263238"/>
      <path id="Path_97007" data-name="Path 97007" d="M299.3,434.939c-1.852,2.313,1.744,5.2,3.6,2.876S301.147,432.626,299.3,434.939Z" transform="translate(-177.539 -291.576)" fill="#263238"/>
      <path id="Path_97008" data-name="Path 97008" d="M309.867,388.731c-1.7.348-1.911,2.337-1.534,3.7a13.811,13.811,0,0,0,3.757,6.1.066.066,0,0,0,.108,0,.324.324,0,0,0,.467-.24c.162-2.277.6-4.692.084-6.957C312.4,390,311.443,388.4,309.867,388.731Zm2.337,6.04c-.054,1.12-.162,2.235-.174,3.362q-1.147-1.744-2.115-3.6a14.928,14.928,0,0,1-.779-1.863c-.324-.995-.419-4.4,1.983-2.8,1.294.863,1.144,3.565,1.055,4.9Z" transform="translate(-181.304 -273.38)" fill="#263238"/>
      <path id="Path_97009" data-name="Path 97009" d="M306.117,410.429c1.714-1.57,2.69-3.829,3.835-5.806a.318.318,0,0,0-.252-.455.072.072,0,0,0-.084-.078,13.782,13.782,0,0,0-6.537,2.942c-1.079.911-2.019,2.678-.809,3.919S305.116,411.346,306.117,410.429Zm-2.169.3c-2.888-.03-.9-2.792-.072-3.433a14.486,14.486,0,0,1,1.7-1.109c1.2-.7,2.5-1.2,3.775-1.8-.6.935-1.156,1.917-1.744,2.876C306.908,408.409,305.536,410.74,303.948,410.728Z" transform="translate(-178.71 -279.553)" fill="#263238"/>
      <path id="Path_97010" data-name="Path 97010" d="M222.882,354.965l-17.107,23.081L148.047,338l-5.567-3.865s-1.576,1.061-3.949,2.4c-3.3,1.8-8.125,4.129-12.4,4.758-7.19,1.061-19.133.947-25.167-7.131-5.087-6.8-1.612-19.121-1.612-19.121l8.389-.929s17.377-14.519,29.469-14.98c5.123-.2,12.583,3.679,19.492,7.736S222.882,354.965,222.882,354.965Z" transform="translate(-97.146 -237.482)" fill="#455a64"/>
      <path id="Path_97011" data-name="Path 97011" d="M160.533,349.468s-1.576,1.061-3.949,2.4c-4.194-5.021-13.075-14.141-13.344-14.465Z" transform="translate(-115.2 -252.825)" fill="#263238"/>
      <path id="Path_97012" data-name="Path 97012" d="M115.251,317.077c-1.115.767-2.187,1.594-3.29,2.4s-2.193,1.516-3.218,2.367-2.037,1.8-3,2.726c-.473.449-.947.9-1.4,1.366A13.378,13.378,0,0,0,103,327.389c-.036.048.036.108.084.078a16.892,16.892,0,0,0,1.492-1.2c.521-.437,1.031-.887,1.552-1.324,1-.851,2.019-1.678,3-2.535s1.911-1.8,2.894-2.631,2.157-1.8,3.254-2.648C115.293,317.095,115.275,317.059,115.251,317.077Z" transform="translate(-99.069 -244.678)" fill="#263238"/>
      <path id="Path_97013" data-name="Path 97013" d="M289.11,390.932c-1.115,1.2-2.139,2.487-3.176,3.751s-2.073,2.547-3.1,3.829c-2.049,2.559-4.123,5.111-6.136,7.7-1.109,1.426-2.2,2.858-3.23,4.338a.068.068,0,1,0,.108.084c2.211-2.427,4.194-5.015,6.274-7.574s4.1-5.141,6.106-7.736c1.1-1.42,2.241-2.834,3.254-4.32a.066.066,0,0,0-.1-.072Z" transform="translate(-167.389 -274.275)" fill="#263238"/>
      <path id="Path_97014" data-name="Path 97014" d="M212.13,323.234c-2.031-2.355-10.744-8.533-16.31-11.3a.048.048,0,0,0-.042.084c5.549,3.565,14.693,10.324,16.268,11.331C212.118,323.4,212.184,323.294,212.13,323.234Z" transform="translate(-136.249 -242.62)" fill="#263238"/>
    </g>
    <g id="freepik--Stars--inject-9" transform="translate(121.745 118.442)">
      <path id="Path_97015" data-name="Path 97015" d="M179.573,224.94l1.54,3.116,3.433.5-2.487,2.427.587,3.421-3.074-1.618-3.068,1.618.581-3.421-2.487-2.427,3.439-.5Z" transform="translate(-174.6 -192.043)" fill="#ea914e"/>
      <path id="Path_97016" data-name="Path 97016" d="M199.539,208.28l1.109,2.337,2.475.372-1.792,1.816.425,2.565-2.217-1.21-2.223,1.21.425-2.565-1.792-1.816,2.481-.372Z" transform="translate(-183.157 -185.366)" fill="#ea914e"/>
      <path id="Path_97017" data-name="Path 97017" d="M185.625,183.96l.7,1.42,1.564.228-1.133,1.1.27,1.564-1.4-.737-1.4.737.27-1.564-1.132-1.1,1.564-.228Z" transform="translate(-178.111 -175.619)" fill="#ea914e"/>
      <path id="Path_97018" data-name="Path 97018" d="M200.786,170.04l.527,1.079,1.192.168-.863.839.2,1.186-1.061-.563-1.067.563.2-1.186-.863-.839,1.192-.168Z" transform="translate(-184.403 -170.04)" fill="#ea914e"/>
    </g>
    <g id="freepik--Reviews--inject-9" transform="translate(161.263 41.3)">
      <rect id="Rectangle_10907" data-name="Rectangle 10907" width="90.217" height="36.066" transform="translate(0 92.152)" fill="#ebebeb"/>
      <path id="Path_97019" data-name="Path 97019" d="M240.58,255.29v7.167l6.5-7.167Z" transform="translate(-240.562 -127.065)" fill="#ebebeb"/>
      <circle id="Ellipse_3767" data-name="Ellipse 3767" cx="14.039" cy="14.039" r="14.039" transform="translate(3.266 97.048)" fill="#fff"/>
      <path id="Path_97020" data-name="Path 97020" d="M307.494,206.37l1.025,2.079,2.289.33-1.654,1.618.389,2.283-2.049-1.079-2.049,1.079.39-2.283-1.654-1.618,2.289-.33Z" transform="translate(-266.052 -107.459)" fill="#ea914e"/>
      <path id="Path_97021" data-name="Path 97021" d="M322.55,206.37l1.025,2.079,2.289.33L324.2,210.4l.4,2.283L322.55,211.6,320.5,212.68l.39-2.283-1.66-1.618,2.295-.33Z" transform="translate(-272.084 -107.459)" fill="#c7c7c7"/>
      <path id="Path_97022" data-name="Path 97022" d="M337.6,206.37l1.025,2.079,2.295.33-1.66,1.618.389,2.283L337.6,211.6l-2.049,1.079.4-2.283-1.66-1.618,2.289-.33Z" transform="translate(-278.12 -107.459)" fill="#c7c7c7"/>
      <path id="Path_97023" data-name="Path 97023" d="M352.664,206.37l1.025,2.079,2.295.33-1.66,1.618.39,2.283-2.049-1.079-2.049,1.079.4-2.283-1.66-1.618,2.289-.33Z" transform="translate(-284.156 -107.459)" fill="#c7c7c7"/>
      <path id="Path_97024" data-name="Path 97024" d="M367.724,206.37l1.025,2.079,2.289.33-1.654,1.618.39,2.283-2.049-1.079-2.049,1.079.389-2.283-1.654-1.618,2.289-.33Z" transform="translate(-290.192 -107.459)" fill="#c7c7c7"/>
      <rect id="Rectangle_10908" data-name="Rectangle 10908" width="42.807" height="0.899" transform="translate(38.128 110.188)" fill="#263238"/>
      <rect id="Rectangle_10909" data-name="Rectangle 10909" width="38.128" height="0.899" transform="translate(38.128 112.927)" fill="#fff"/>
      <rect id="Rectangle_10910" data-name="Rectangle 10910" width="31.518" height="0.899" transform="translate(38.128 115.665)" fill="#fff"/>
      <rect id="Rectangle_10911" data-name="Rectangle 10911" width="34.454" height="0.899" transform="translate(38.128 118.403)" fill="#fff"/>
      <g id="Group_36818" data-name="Group 36818" transform="translate(3.296 92.876)" clip-path="url(#clip-path)">
        <path id="Path_97025" data-name="Path 97025" d="M257.181,197.726c-6.5,2.924-7.9,12.086-7.478,25.125.066,1.983,16.832,5.429,24.945-.683,1.306-.989-.551-16.94-3.769-21.53C266.889,194.927,261.2,195.916,257.181,197.726Z" transform="translate(-247.486 -196.304)" fill="#263238"/>
        <path id="Path_97026" data-name="Path 97026" d="M256.415,198.881c-3.4,1.732-5.585,5.171-6.591,8.778a55.252,55.252,0,0,0-1.348,8.155,32.07,32.07,0,0,0-.12,7.874.072.072,0,0,0,.144,0A67.752,67.752,0,0,1,250.027,209a14.688,14.688,0,0,1,6.5-9.851C256.684,199.049,256.564,198.809,256.415,198.881Z" transform="translate(-246.899 -197.328)" fill="#263238"/>
        <path id="Path_97027" data-name="Path 97027" d="M284.251,205.345a12.056,12.056,0,0,0-8.161-8.455v.048c4.506,1.7,7.035,5.135,8.173,9.689a92.052,92.052,0,0,1,2.151,15.07.09.09,0,0,0,.18,0A61.758,61.758,0,0,0,284.251,205.345Z" transform="translate(-258.09 -196.535)" fill="#263238"/>
        <path id="Path_97028" data-name="Path 97028" d="M254.18,246.165l.054.042c2.942,2.007,8.754,5.531,11.858,4.41a6.986,6.986,0,0,0,3.955-4.1,32.118,32.118,0,0,0-3.841-2.667C261.622,240.8,257.488,242.624,254.18,246.165Z" transform="translate(-249.309 -214.735)" fill="#a6a6a6"/>
        <path id="Path_97029" data-name="Path 97029" d="M261.49,237.892c.21.677,3.8,4.931,6.939,4.572,1.025-.114.629-5.728.629-5.728l.066-.419.911-5.9-7.089-3.925-1.025-.515s-.144,1.63-.3,3.661v.288a1.319,1.319,0,0,1-.03.336c0,.3-.054.6-.072.917s-.036.467-.042.713a5.059,5.059,0,0,1-.042.737,38.4,38.4,0,0,0,.054,5.261Z" transform="translate(-252.191 -208.194)" fill="#f7a9a0"/>
        <path id="Path_97030" data-name="Path 97030" d="M261.74,229.641a11.984,11.984,0,0,0,7.532,6.675l.911-5.9-7.089-3.925-1.025-.515S261.9,227.61,261.74,229.641Z" transform="translate(-252.339 -208.194)" fill="#263238"/>
        <path id="Path_97031" data-name="Path 97031" d="M275.466,209.324c1.642,10.342-4.368,12.493-6.591,12.847-2.019.318-8.557.809-11.259-9.306s1.2-13.782,5.776-14.782S273.818,198.994,275.466,209.324Z" transform="translate(-250.329 -196.919)" fill="#f7a9a0"/>
        <path id="Path_97032" data-name="Path 97032" d="M283.887,215.449a6.99,6.99,0,0,1-.689.21,1.126,1.126,0,0,1-.749.084.372.372,0,0,1-.222-.4.929.929,0,0,1,.695-.629,1.342,1.342,0,0,1,.977,0,.4.4,0,0,1-.012.731Z" transform="translate(-260.548 -203.643)" fill="#263238"/>
        <path id="Path_97033" data-name="Path 97033" d="M272.089,215.892a7.125,7.125,0,0,0,.719.072,1.145,1.145,0,0,0,.749-.06.384.384,0,0,0,.138-.437.911.911,0,0,0-.8-.479,1.378,1.378,0,0,0-.959.192.4.4,0,0,0,.156.713Z" transform="translate(-256.36 -203.781)" fill="#263238"/>
        <path id="Path_97034" data-name="Path 97034" d="M274.7,220.51s-.054.042-.048.066c.1.707.1,1.534-.515,1.84v.042C274.919,222.26,274.913,221.163,274.7,220.51Z" transform="translate(-257.308 -206.002)" fill="#263238"/>
        <path id="Path_97035" data-name="Path 97035" d="M273.36,219.39c-1.151.042-.983,2.337.078,2.3S274.319,219.36,273.36,219.39Z" transform="translate(-256.678 -205.552)" fill="#263238"/>
        <path id="Path_97036" data-name="Path 97036" d="M272.252,219.639c-.192.144-.372.389-.6.425s-.5-.174-.707-.4c0,0-.036,0-.036.03a.819.819,0,0,0,.7.911c.473.03.719-.378.8-.833C272.408,219.693,272.33,219.579,272.252,219.639Z" transform="translate(-256.014 -205.646)" fill="#263238"/>
        <path id="Path_97037" data-name="Path 97037" d="M282.456,219.43a.059.059,0,0,1,.06.06c0,.713.174,1.528.833,1.72v.042C282.552,221.192,282.366,220.113,282.456,219.43Z" transform="translate(-260.633 -205.569)" fill="#263238"/>
        <path id="Path_97038" data-name="Path 97038" d="M283.052,218.115c1.138-.156,1.372,2.133.318,2.277S282.093,218.253,283.052,218.115Z" transform="translate(-260.636 -205.039)" fill="#263238"/>
        <path id="Path_97039" data-name="Path 97039" d="M284.2,218.134c.192.1.4.306.6.3s.414-.276.545-.533h.042c.054.437-.042.9-.455,1.031s-.7-.228-.845-.653C284.077,218.224,284.125,218.092,284.2,218.134Z" transform="translate(-261.295 -204.955)" fill="#263238"/>
        <path id="Path_97040" data-name="Path 97040" d="M276.252,229.563c.174.162.354.389.6.4a1.8,1.8,0,0,0,.761-.2l.03.036a.947.947,0,0,1-.893.407.749.749,0,0,1-.6-.6C276.174,229.557,276.228,229.539,276.252,229.563Z" transform="translate(-258.114 -209.626)" fill="#263238"/>
        <path id="Path_97041" data-name="Path 97041" d="M278.966,220.252s.234,1.049.276,1.546a7.748,7.748,0,0,0-3.1.437c-.054,0-.162-.066-.03-.162a4.392,4.392,0,0,1,2.72-.635c0-.138-.443-1.648-.366-1.66a4.62,4.62,0,0,1,1.157.162c-.426-2.193-1.2-4.308-1.594-6.5a.067.067,0,0,1,.126-.048,36.55,36.55,0,0,1,2.019,6.939C280.212,220.611,279.17,220.33,278.966,220.252Z" transform="translate(-258.072 -203.131)" fill="#263238"/>
        <path id="Path_97042" data-name="Path 97042" d="M256.118,212.451c1.115-.156,3.793-3.487,3.439-8.922,0,0,0,4.9-.33,5.65s1.492-1.876,1.27-6.262a17.91,17.91,0,0,0,4.68,1.965c2.115.407,3.38.288,3.517.126s-3-.875-3.889-1.756c0,0,5.71,2.109,8.257,2.1.294,0-.06-5.453-4.194-7.694s-9.893.419-11.433,2.169c0,0-1.935.437-3.829,3.511S254.908,212.624,256.118,212.451Z" transform="translate(-248.844 -196.498)" fill="#263238"/>
        <path id="Path_97043" data-name="Path 97043" d="M259.32,222.8s-2.511-3.092-3.931-2.175.6,5.519,2.4,6.04a1.8,1.8,0,0,0,2.3-1.115Z" transform="translate(-249.601 -205.98)" fill="#f7a9a0"/>
        <path id="Path_97044" data-name="Path 97044" d="M256.74,222.91v.048a4.483,4.483,0,0,1,2.5,2.63.971.971,0,0,0-1.474-.162.036.036,0,0,0,.036.06,1.1,1.1,0,0,1,1.2.294,5.454,5.454,0,0,1,.641.929c.066.1.258.03.21-.09h0C259.778,225.037,258.418,222.964,256.74,222.91Z" transform="translate(-250.335 -206.963)" fill="#263238"/>
      </g>
      <rect id="Rectangle_10912" data-name="Rectangle 10912" width="90.217" height="36.066" transform="translate(5.992 46.079)" fill="#ebebeb"/>
      <path id="Path_97046" data-name="Path 97046" d="M250.58,178.39v7.167l6.5-7.167Z" transform="translate(-244.57 -96.245)" fill="#ebebeb"/>
      <circle id="Ellipse_3768" data-name="Ellipse 3768" cx="14.039" cy="14.039" r="14.039" transform="translate(9.258 50.975)" fill="#fff"/>
      <path id="Path_97047" data-name="Path 97047" d="M317.5,130.16l1.025,2.079,2.3.336-1.66,1.618.39,2.289L317.5,135.4l-2.055,1.085.4-2.289-1.66-1.618,2.295-.336Z" transform="translate(-270.06 -76.914)" fill="#ea914e"/>
      <path id="Path_97048" data-name="Path 97048" d="M332.586,130.16l1.025,2.079,2.295.336-1.66,1.618.39,2.289-2.049-1.085-2.055,1.085.389-2.289-1.66-1.618,2.295-.336Z" transform="translate(-276.104 -76.914)" fill="#ea914e"/>
      <path id="Path_97049" data-name="Path 97049" d="M347.67,130.16l1.031,2.079,2.295.336-1.66,1.618.389,2.289L347.67,135.4l-2.049,1.085.39-2.289-1.66-1.618,2.295-.336Z" transform="translate(-282.152 -76.914)" fill="#ea914e"/>
      <path id="Path_97050" data-name="Path 97050" d="M362.76,130.16l1.025,2.079,2.295.336-1.66,1.618.4,2.289L362.76,135.4l-2.055,1.085.4-2.289-1.66-1.618,2.295-.336Z" transform="translate(-288.2 -76.914)" fill="#c7c7c7"/>
      <path id="Path_97051" data-name="Path 97051" d="M377.846,130.16l1.025,2.079,2.295.336-1.66,1.618.39,2.289-2.049-1.085-2.055,1.085.4-2.289-1.666-1.618,2.295-.336Z" transform="translate(-294.244 -76.914)" fill="#c7c7c7"/>
      <rect id="Rectangle_10913" data-name="Rectangle 10913" width="42.807" height="0.899" transform="translate(44.12 64.109)" fill="#263238"/>
      <rect id="Rectangle_10914" data-name="Rectangle 10914" width="25.029" height="0.899" transform="translate(44.12 66.848)" fill="#fff"/>
      <rect id="Rectangle_10915" data-name="Rectangle 10915" width="36.953" height="0.899" transform="translate(44.12 69.592)" fill="#fff"/>
      <rect id="Rectangle_10916" data-name="Rectangle 10916" width="33.765" height="0.899" transform="translate(44.12 72.33)" fill="#fff"/>
      <g id="Group_36819" data-name="Group 36819" transform="translate(9.25 47.504)" clip-path="url(#clip-path-2)">
        <path id="Path_97052" data-name="Path 97052" d="M278.22,165.2l-1.246,5.627L268.489,165l-2.109,3.11s5.555,7.514,11.469,7.514c3.11,0,3.715-7.125,3.715-7.125Z" transform="translate(-260.152 -138.382)" fill="#ea914e"/>
        <path id="Path_97053" data-name="Path 97053" d="M278.192,165.873c-2.277.707-6.507-2.565-8.281-5.327-.12-.192.036-2.289.108-4.848.036-1.552.042-3.284-.066-4.86,0-.324,1.121.192,1.121.192l2.079.354,6.867,1.2a25.169,25.169,0,0,0-.533,6.124,3.1,3.1,0,0,0,.114.647.978.978,0,0,0,0,.108C279.905,160.66,280.4,165.19,278.192,165.873Z" transform="translate(-261.55 -132.663)" fill="#eb9481"/>
        <path id="Path_97054" data-name="Path 97054" d="M280.018,159.835a.977.977,0,0,0,0,.108,6.229,6.229,0,0,1-1.013.126c-6.675.312-8.1-8.107-8.1-8.107l2.643-.072,6.867,1.2a25.213,25.213,0,0,0-.533,6.13A3.043,3.043,0,0,0,280.018,159.835Z" transform="translate(-261.968 -133.127)" fill="#263238"/>
        <path id="Path_97055" data-name="Path 97055" d="M268.288,126.367c-1.2,3.469.2,13.71,2.607,16.077,3.487,3.439,9.408,4,12.386-.234,2.882-4.111.791-17.419-1.918-19.594C277.378,119.41,270.1,121.244,268.288,126.367Z" transform="translate(-260.742 -120.757)" fill="#eb9481"/>
        <path id="Path_97056" data-name="Path 97056" d="M284.659,141.775c0-.03-.048.036-.042.066.114.689.126,1.492-.467,1.8v.042C284.923,143.477,284.893,142.4,284.659,141.775Z" transform="translate(-267.275 -129.07)" fill="#263238"/>
        <path id="Path_97057" data-name="Path 97057" d="M283.328,140.709c-1.12.066-.911,2.3.132,2.241S284.269,140.655,283.328,140.709Z" transform="translate(-266.644 -128.646)" fill="#263238"/>
        <path id="Path_97058" data-name="Path 97058" d="M291.723,141.33a.059.059,0,0,1,.06.06c.042.7.21,1.48.863,1.654v.036C291.885,143.044,291.657,142,291.723,141.33Z" transform="translate(-270.305 -128.895)" fill="#263238"/>
        <path id="Path_97059" data-name="Path 97059" d="M292.274,139.992c1.109-.192,1.408,2.037.384,2.211S291.345,140.166,292.274,139.992Z" transform="translate(-270.305 -128.354)" fill="#263238"/>
        <path id="Path_97060" data-name="Path 97060" d="M281.749,138.029c.294-.108.551-.258.833-.389a1.45,1.45,0,0,0,.779-.557.479.479,0,0,0-.126-.569,1.2,1.2,0,0,0-1.2,0,1.732,1.732,0,0,0-.923.839.509.509,0,0,0,.635.677Z" transform="translate(-266.042 -126.9)" fill="#263238"/>
        <path id="Path_97061" data-name="Path 97061" d="M292.635,137.039a5.879,5.879,0,0,1-.911-.144,1.48,1.48,0,0,1-.9-.33.48.48,0,0,1,0-.6,1.2,1.2,0,0,1,1.145-.33,1.726,1.726,0,0,1,1.115.557.5.5,0,0,1-.443.845Z" transform="translate(-269.906 -126.6)" fill="#263238"/>
        <path id="Path_97062" data-name="Path 97062" d="M284.945,152.605c.18.15.365.354.6.354a1.8,1.8,0,0,0,.731-.246l.036.036a.934.934,0,0,1-.845.455.737.737,0,0,1-.6-.557C284.849,152.605,284.9,152.587,284.945,152.605Z" transform="translate(-267.56 -133.411)" fill="#263238"/>
        <path id="Path_97063" data-name="Path 97063" d="M285.6,144.114a5.428,5.428,0,0,0,3.08.491l-.192-1.66c.2.084,1.24.437,1.2.156a35.841,35.841,0,0,0-1.594-7.053.066.066,0,0,0-.126,0c.258,2.217.9,4.38,1.2,6.591a4.273,4.273,0,0,0-1.145-.234c-.078.03.276,1.552.27,1.8a7.19,7.19,0,0,1-2.541-.342C285.473,143.791,285.413,143.959,285.6,144.114Z" transform="translate(-267.812 -126.76)" fill="#263238"/>
        <path id="Path_97064" data-name="Path 97064" d="M269.165,134.456c.875-.222,1.7-3.092,1.726-5.872,0-1.8.737-4.045,2.732-4.716,1.324-.449,3.631.641,4.955.318s1.564-1.073,2.343-1.055,1.648,1.941,1.648,1.941-1.39-6.058-9.186-4.111c-8.209,2.055-6.555,9.084-5.764,11.337A3.522,3.522,0,0,0,269.165,134.456Z" transform="translate(-260.373 -120.577)" fill="#263238"/>
        <path id="Path_97065" data-name="Path 97065" d="M268.723,142.123s-2.223-3.338-3.733-2.553.108,5.591,1.846,6.28a1.8,1.8,0,0,0,2.4-.9Z" transform="translate(-259.355 -128.142)" fill="#eb9481"/>
        <path id="Path_97066" data-name="Path 97066" d="M266.22,142v.048a4.564,4.564,0,0,1,2.265,2.87.989.989,0,0,0-1.468-.306.042.042,0,0,0,.036.066,1.084,1.084,0,0,1,1.2.413,4.715,4.715,0,0,1,.557.989c.054.108.258.054.216-.072v-.03C269.084,144.4,267.886,142.192,266.22,142Z" transform="translate(-260.088 -129.164)" fill="#263238"/>
      </g>
      <rect id="Rectangle_10917" data-name="Rectangle 10917" width="90.217" height="36.066" transform="translate(11.984 0)" fill="#ebebeb"/>
      <path id="Path_97068" data-name="Path 97068" d="M260.58,101.49v7.173l6.5-7.173Z" transform="translate(-248.578 -65.424)" fill="#ebebeb"/>
      <circle id="Ellipse_3769" data-name="Ellipse 3769" cx="14.039" cy="14.039" r="14.039" transform="translate(15.25 4.896)" fill="#fff"/>
      <path id="Path_97069" data-name="Path 97069" d="M327.5,54.06l1.025,2.079,2.295.336-1.66,1.618.39,2.289L327.5,59.3l-2.055,1.079.4-2.289-1.66-1.618,2.295-.336Z" transform="translate(-274.068 -46.414)" fill="#ea914e"/>
      <path id="Path_97070" data-name="Path 97070" d="M342.586,54.06l1.025,2.079,2.295.336-1.66,1.618.39,2.289L342.586,59.3l-2.055,1.079.389-2.289-1.66-1.618,2.295-.336Z" transform="translate(-280.112 -46.414)" fill="#ea914e"/>
      <path id="Path_97071" data-name="Path 97071" d="M357.67,54.06l1.031,2.079,2.295.336-1.66,1.618.389,2.289L357.67,59.3l-2.049,1.079.39-2.289-1.66-1.618,2.295-.336Z" transform="translate(-286.16 -46.414)" fill="#ea914e"/>
      <path id="Path_97072" data-name="Path 97072" d="M372.76,54.06l1.025,2.079,2.295.336-1.66,1.618.4,2.289L372.76,59.3,370.7,60.382l.4-2.289-1.66-1.618,2.295-.336Z" transform="translate(-292.208 -46.414)" fill="#ea914e"/>
      <path id="Path_97073" data-name="Path 97073" d="M387.846,54.06l1.025,2.079,2.295.336-1.66,1.618.39,2.289L387.846,59.3l-2.055,1.079.4-2.289-1.666-1.618,2.3-.336Z" transform="translate(-298.252 -46.414)" fill="#ea914e"/>
      <rect id="Rectangle_10918" data-name="Rectangle 10918" width="42.807" height="0.899" transform="translate(50.112 18.036)" fill="#263238"/>
      <rect id="Rectangle_10919" data-name="Rectangle 10919" width="31.848" height="0.899" transform="translate(50.112 20.775)" fill="#fff"/>
      <rect id="Rectangle_10920" data-name="Rectangle 10920" width="38.128" height="0.899" transform="translate(50.112 23.513)" fill="#fff"/>
      <rect id="Rectangle_10921" data-name="Rectangle 10921" width="16.358" height="0.899" transform="translate(50.112 26.251)" fill="#fff"/>
      <path id="Path_97074" data-name="Path 97074" d="M295.307,72.048h-1.2c-.12-1.528-1.091-3.865-.845-2.684a11.569,11.569,0,0,1,.156,2.684H273.136a22.042,22.042,0,0,1,.791-6.082,15.555,15.555,0,0,0-1.8,6.082h-1.911a14.233,14.233,0,0,1,.288-3.721,12.234,12.234,0,0,0-.965,3.721H267.36a14.29,14.29,0,0,1,2.535-8.065c1.474-2.2-.348-3.481-.312-7.79a10.033,10.033,0,0,1,4.6-8.485c8.85-8.2,16.88-.6,17.737,4.824.833,5.3-.689,5.992,1.8,10.786C295.529,66.978,295.307,72.048,295.307,72.048Z" transform="translate(-251.295 -42.423)" fill="#263238"/>
      <path id="Path_97075" data-name="Path 97075" d="M274.18,93.123l.054.036c2.942,2.007,8.754,5.531,11.858,4.41a6.981,6.981,0,0,0,3.955-4.1,31.584,31.584,0,0,0-3.841-2.672C281.622,87.754,277.488,89.576,274.18,93.123Z" transform="translate(-254.029 -60.52)" fill="#455a64"/>
      <path id="Path_97076" data-name="Path 97076" d="M281.49,84.846c.21.677,3.8,4.931,6.939,4.572,1.025-.114.629-5.728.629-5.728l.066-.419.911-5.9-7.089-3.925-1.025-.509s-.144,1.624-.3,3.655v.294a1.252,1.252,0,0,1-.03.33c0,.3-.054.6-.072.917s-.036.467-.042.713a5.059,5.059,0,0,1-.042.737A38.4,38.4,0,0,0,281.49,84.846Z" transform="translate(-256.911 -53.981)" fill="#dd6a57"/>
      <path id="Path_97077" data-name="Path 97077" d="M281.74,76.571a11.984,11.984,0,0,0,7.532,6.675l.911-5.9-7.089-3.9-1.025-.509S281.9,74.564,281.74,76.571Z" transform="translate(-257.059 -53.981)" fill="#263238"/>
      <path id="Path_97078" data-name="Path 97078" d="M295.238,56.313c1.642,10.342-4.368,12.493-6.591,12.847-2.019.318-8.988,1.15-11.661-8.988s1.588-14.147,6.178-15.124S293.59,45.953,295.238,56.313Z" transform="translate(-254.821 -42.711)" fill="#dd6a57"/>
      <path id="Path_97079" data-name="Path 97079" d="M276.706,60.521c2.589-.312,2.678-8.389,2.678-9.342.036.6.216,3.913.479,4.027a2.638,2.638,0,0,0,.8-.222h0a7.732,7.732,0,0,1,0-1.2,5.26,5.26,0,0,1,.264,1.091l.467-.174a9.434,9.434,0,0,1,.042-2.517,18.675,18.675,0,0,1,.647,2.265,31.637,31.637,0,0,1,6.7-1.75c.647-.078,1.2-.114,1.7-.132a17.694,17.694,0,0,1-.186-1.8,9.414,9.414,0,0,1,.557,1.8h.743c-.048-1.372-.881-3.505-.635-3.194a9.682,9.682,0,0,1,1.606,3.266c.953.108,1.2.27,1.228,0a11.463,11.463,0,0,0-4.063-6.8c-3.505-2.786-10.043-3-13.3,2,0,0-2.846,2.211-3.056,5.393S275.208,60.695,276.706,60.521Z" transform="translate(-253.702 -42.335)" fill="#263238"/>
      <path id="Path_97080" data-name="Path 97080" d="M277.525,69.758s-2.511-3.1-3.937-2.181.6,5.519,2.4,6.04A1.762,1.762,0,0,0,278.28,72.5Z" transform="translate(-253.598 -51.763)" fill="#dd6a57"/>
      <path id="Path_97081" data-name="Path 97081" d="M274.985,69.87c-.03,0-.03.036,0,.042a4.483,4.483,0,0,1,2.5,2.631.971.971,0,0,0-1.474-.162.036.036,0,0,0,.036.06,1.1,1.1,0,0,1,1.2.294,5.459,5.459,0,0,1,.641.929c.066.108.258.036.2-.09h0C277.981,71.991,276.633,69.906,274.985,69.87Z" transform="translate(-254.342 -52.751)" fill="#263238"/>
      <path id="Path_97082" data-name="Path 97082" d="M299.148,73.715a2.857,2.857,0,0,1-.965,1.115,1.318,1.318,0,0,1-.773.21c-.6-.036-.713-.551-.7-1.019a3.115,3.115,0,0,1,.12-.731A3.8,3.8,0,0,0,299.148,73.715Z" transform="translate(-263.058 -54.121)" fill="#fff"/>
      <path id="Path_97083" data-name="Path 97083" d="M303.365,61.118a5.875,5.875,0,0,1-.719-.084,1.15,1.15,0,0,1-.713-.228.372.372,0,0,1-.042-.455.935.935,0,0,1,.887-.294,1.372,1.372,0,0,1,.893.4.4.4,0,0,1-.305.659Z" transform="translate(-265.111 -48.81)" fill="#263238"/>
      <path id="Path_97084" data-name="Path 97084" d="M292.061,62.457a5.693,5.693,0,0,0,.689-.21,1.163,1.163,0,0,0,.665-.348.377.377,0,0,0-.042-.455.911.911,0,0,0-.923-.132,1.354,1.354,0,0,0-.809.551.4.4,0,0,0,.419.593Z" transform="translate(-261.004 -49.293)" fill="#263238"/>
      <path id="Path_97085" data-name="Path 97085" d="M294.7,67.46s-.054.042-.048.066c.1.707.1,1.534-.515,1.84v.042C294.919,69.21,294.913,68.113,294.7,67.46Z" transform="translate(-262.028 -51.785)" fill="#263238"/>
      <path id="Path_97086" data-name="Path 97086" d="M293.36,66.34c-1.15.042-.983,2.337.078,2.3S294.318,66.31,293.36,66.34Z" transform="translate(-261.398 -51.336)" fill="#263238"/>
      <path id="Path_97087" data-name="Path 97087" d="M292.252,66.589c-.192.144-.372.389-.6.431s-.5-.18-.707-.4h-.036a.829.829,0,0,0,.7.917c.473.036.719-.384.8-.833C292.408,66.649,292.33,66.529,292.252,66.589Z" transform="translate(-260.734 -51.429)" fill="#263238"/>
      <path id="Path_97088" data-name="Path 97088" d="M302.456,66.38s.06.03.06.06c0,.713.174,1.528.833,1.72V68.2C302.552,68.142,302.366,67.063,302.456,66.38Z" transform="translate(-265.353 -51.352)" fill="#263238"/>
      <path id="Path_97089" data-name="Path 97089" d="M303.052,65.075c1.138-.162,1.372,2.127.317,2.277S302.093,65.206,303.052,65.075Z" transform="translate(-265.356 -50.825)" fill="#263238"/>
      <path id="Path_97090" data-name="Path 97090" d="M304.2,65.084c.192.108.4.306.6.3s.413-.276.545-.533h.042c.054.437-.042.9-.455,1.037s-.7-.234-.845-.659C304.077,65.174,304.125,65.048,304.2,65.084Z" transform="translate(-266.015 -50.739)" fill="#263238"/>
      <path id="Path_97091" data-name="Path 97091" d="M296.252,76.513c.174.162.354.389.6.4a1.8,1.8,0,0,0,.761-.2l.03.036a.947.947,0,0,1-.893.407.749.749,0,0,1-.6-.6C296.174,76.507,296.228,76.489,296.252,76.513Z" transform="translate(-262.834 -55.409)" fill="#263238"/>
      <path id="Path_97092" data-name="Path 97092" d="M299.3,67.2s.234,1.049.276,1.546c0,.048-.114.084-.282.108h0a2.4,2.4,0,0,1-2.4-.7c-.036-.042,0-.1.072-.072a3.6,3.6,0,0,0,2.223.437c0-.144-.461-1.8-.384-1.8a4.385,4.385,0,0,1,1.157.168c-.425-2.2-1.2-4.314-1.594-6.507a.066.066,0,0,1,.126-.042,36.39,36.39,0,0,1,2.007,6.963C300.55,67.564,299.507,67.271,299.3,67.2Z" transform="translate(-263.129 -48.917)" fill="#263238"/>
    </g>
    <g id="freepik--Plant--inject-9" transform="translate(208.138 163.431)">
      <path id="Path_97093" data-name="Path 97093" d="M396.3,341.091s13.782-3.116,21.3-10.061,11.75-19.39,11.75-19.39a117.821,117.821,0,0,0-15.424,4.051,25.591,25.591,0,0,0-4.668,6.591,31.339,31.339,0,0,1-.036-4.716,20.968,20.968,0,0,0-4.9,3C398.068,326.015,396.3,341.091,396.3,341.091Z" transform="translate(-349.849 -271.781)" fill="#ea914e"/>
      <path id="Path_97094" data-name="Path 97094" d="M415.341,319.023c1.875-1.294,3.781-2.547,5.651-3.859a.108.108,0,0,0-.114-.18c-3.547,2.115-7.041,4.38-10.42,6.747-1.2.827-2.337,1.684-3.481,2.565l.24-.407c.413-.7.851-1.372,1.282-2.049a29.362,29.362,0,0,1,2.924-3.895c.036-.048-.03-.114-.072-.066-1.067,1.234-2.139,2.457-3.116,3.769a23.062,23.062,0,0,0-1.306,1.924c-.216.347-.419.689-.6,1.043l-.21.354c-1.8,1.4-3.505,2.852-5.159,4.392q-1.534,1.426-2.954,2.954c.527-1.666.995-3.35,1.612-4.985a.048.048,0,1,0-.09,0c-.6,1.72-1.258,3.445-1.72,5.213-1.055,1.138-2.061,2.313-3,3.541a.982.982,0,0,1,.048-.222c.156-.647.318-1.294.491-1.941.336-1.24.7-2.481,1.121-3.7a21.574,21.574,0,0,1,3.7-6.981c.036-.042-.03-.108-.072-.06a26.841,26.841,0,0,0-5.267,11c-.144.6-.288,1.2-.419,1.762-.072.318-.15.635-.2.953-.419.563-.827,1.133-1.2,1.714a59.827,59.827,0,0,0-5.818,11.385,132.462,132.462,0,0,0-4.41,13.746c0,.09.114.12.144,0,2.69-8.047,5.435-16.179,10.043-23.405a53.7,53.7,0,0,1,3.14-4.392,26.012,26.012,0,0,0,6.687-1.33,29.725,29.725,0,0,0,6.705-3.242,39.973,39.973,0,0,0,3.433-2.595.048.048,0,1,0-.06-.072,27.344,27.344,0,0,1-6.3,3.817,34.113,34.113,0,0,1-6.939,2.325c-1.013.222-2.043.389-3.074.527a56.515,56.515,0,0,1,4.057-4.494c.461-.461.941-.9,1.42-1.354a32.158,32.158,0,0,1,5.087-2.912c2.253-1.091,4.47-2.247,6.7-3.38,1.258-.641,2.511-1.294,3.781-1.911.054-.03,0-.108-.054-.084-2.259,1.1-4.554,2.115-6.837,3.158-2.145.983-4.32,1.971-6.382,3.128l-.258.156c1.864-1.618,3.793-3.164,5.764-4.656C411.608,321.671,413.471,320.323,415.341,319.023Z" transform="translate(-344.43 -273.118)" fill="#263238"/>
      <path id="Path_97095" data-name="Path 97095" d="M431.342,333.567c-1.121.485-2.259.923-3.362,1.438s-2.223,1.156-3.3,1.8a.042.042,0,0,0,.042.072c1.1-.527,2.211-1.019,3.3-1.564s2.211-1.156,3.356-1.654C431.456,333.633,431.4,333.543,431.342,333.567Z" transform="translate(-361.217 -280.567)" fill="#263238"/>
      <path id="Path_97096" data-name="Path 97096" d="M321.74,245.12a19.673,19.673,0,0,1,4.111,11.421c.042,1.234-.15,2.954-.294,4.973a32.787,32.787,0,0,1,8.988,7.67,16.253,16.253,0,0,0-9.072-2.169,27.192,27.192,0,0,0,.527,4.111,15.436,15.436,0,0,1,5.83,1.15,13.069,13.069,0,0,0-5.255,1.049c2.451,7.79,9.737,15.813,29.859,19.217a42.236,42.236,0,0,0-3.559-28.319C346.829,252.358,321.74,245.12,321.74,245.12Z" transform="translate(-319.966 -245.12)" fill="#ea914e"/>
      <path id="Path_97097" data-name="Path 97097" d="M366.993,329.505c-.348-3.332-.791-6.657-1.306-9.965a197.01,197.01,0,0,0-4.057-19.7,78.046,78.046,0,0,0-2.906-8.988,13.149,13.149,0,0,0,.078-1.612v-1.929c0-1.294-.072-2.577-.18-3.865a46.631,46.631,0,0,0-1.24-7.544c-.365-1.432-.8-2.846-1.2-4.266a.048.048,0,0,0-.09.03,55.251,55.251,0,0,1,1.474,7.508,69.282,69.282,0,0,1,.677,7.55c0,.7.036,1.384.042,2.079v.887a65.134,65.134,0,0,0-3.428-7,85.51,85.51,0,0,0-6.891-10.306,4.49,4.49,0,0,0-.162-1.127c-.1-.449-.192-.9-.294-1.348-.21-.917-.437-1.834-.689-2.738-.5-1.8-1.157-3.6-1.732-5.393a.048.048,0,0,0-.09,0c.533,1.8.887,3.631,1.294,5.447.2.893.4,1.8.6,2.69l.288,1.348v.1q-1.2-1.534-2.493-3.032c-3.847-4.506-8.059-8.665-12.3-12.793-.521-.509-1.061-1-1.588-1.5-.042-.042-.108,0-.066.072,4.057,4.195,8.047,8.5,11.822,12.979.9,1.067,1.8,2.139,2.654,3.23l-1.372-.911c-1.2-.767-2.361-1.51-3.6-2.193s-2.451-1.354-3.7-1.977-2.673-1.156-3.913-1.881c-.054-.03-.1.06-.048.084a28.543,28.543,0,0,1,3.673,2.031c1.2.725,2.445,1.456,3.649,2.223s2.4,1.486,3.547,2.253c.977.635,1.942,1.33,2.96,1.918a95.642,95.642,0,0,1,6.448,9.384,69.938,69.938,0,0,1,3.332,6.322l-.725-.318-1.81-.785c-1.2-.527-2.4-1.037-3.559-1.558-2.259-.977-4.554-1.881-6.765-2.96a30.772,30.772,0,0,1-3.6-2c-.048-.036-.1.048-.048.078a80.691,80.691,0,0,0,13.32,6.873l1.983.875c.545.24,1.085.509,1.648.719a70.414,70.414,0,0,1,3.4,9.324,189.938,189.938,0,0,1,4.4,19.468c1.15,6.591,1.929,13.182,2.535,19.84.078.827.15,1.654.246,2.481a.264.264,0,0,0,.521,0C367.688,336.21,367.347,332.831,366.993,329.505Z" transform="translate(-323.568 -248.684)" fill="#263238"/>
      <path id="Path_97098" data-name="Path 97098" d="M369.777,283.142c-.372-2.043-.917-4.045-1.468-6.046,0-.06-.1-.036-.09,0,.509,1.965.875,3.973,1.246,5.992s.707,4.075.995,6.124c0,.036.06.036.054,0A54.314,54.314,0,0,0,369.777,283.142Z" transform="translate(-338.594 -257.921)" fill="#263238"/>
      <path id="Path_97099" data-name="Path 97099" d="M350.336,293.375a36.394,36.394,0,0,0-4.374-2.463c-.731-.378-1.474-.737-2.217-1.1s-1.564-.683-2.325-1.067a.048.048,0,0,0-.042.084c.731.371,1.432.815,2.157,1.2l2.229,1.2c1.474.791,2.918,1.666,4.464,2.307a.114.114,0,0,0,.108-.162Z" transform="translate(-327.83 -262.605)" fill="#263238"/>
      <path id="Path_97100" data-name="Path 97100" d="M396.72,297.69s12.727-3.038,18.575-11.577c5.585-8.155,7.388-22.051,7.532-23.273-.234,1.121-2.858,13.267-11.523,18.923C404.677,286.119,398.254,289.684,396.72,297.69Z" transform="translate(-350.017 -252.222)" fill="#263238" opacity="0.1"/>
      <path id="Path_97101" data-name="Path 97101" d="M413.188,284.321a16.28,16.28,0,0,0-4.7,7.73s.036.042.042,0a19.037,19.037,0,0,1,4.716-7.67C413.29,284.351,413.23,284.279,413.188,284.321Z" transform="translate(-354.735 -260.826)" fill="#263238"/>
      <path id="Path_97102" data-name="Path 97102" d="M396.558,297.63s12.727-3.038,18.575-11.577c5.585-8.155,7.388-22.051,7.532-23.273a.526.526,0,0,0,0-.09s-6.1,8.677-12.517,10.894S394.718,283.464,396.558,297.63Z" transform="translate(-349.855 -252.162)" fill="#ea914e"/>
      <path id="Path_97103" data-name="Path 97103" d="M416.95,270.694a52.086,52.086,0,0,1-3.919,6.729,26.874,26.874,0,0,1-5.237,5.393c-1.726,1.372-3.553,2.619-5.3,3.961l.036-.06c.33-.491.683-.965,1.043-1.426.731-.929,1.528-1.8,2.331-2.678,1.582-1.714,3.194-3.4,4.614-5.255a19.776,19.776,0,0,0,2.037-3.29c.03-.054-.06-.084-.09-.03-2.061,4.3-6.184,7.053-9.126,10.684-.419.521-.815,1.055-1.2,1.612a7,7,0,0,0-.731,1.312,26.586,26.586,0,0,0-4.338,4.386,17.18,17.18,0,0,1,.509-2.469,12.584,12.584,0,0,1,1.348-3.224c.03-.054-.048-.1-.078-.054a15.424,15.424,0,0,0-1.486,3.206,11.054,11.054,0,0,0-.461,2.744h0a25.012,25.012,0,0,0-1.72,2.672c.054-.27.1-.545.156-.815.252-1.27.533-2.535.863-3.781a22.6,22.6,0,0,1,3.062-7.191c.036-.048-.042-.1-.078-.054a27.223,27.223,0,0,0-3.392,7.017c-.407,1.246-.731,2.517-1.019,3.8-.138.629-.264,1.258-.383,1.887-.066.324-.132.659-.186.995a45.655,45.655,0,0,0-2.936,8.629,125.956,125.956,0,0,0-2.714,16.089,133.476,133.476,0,0,0-.881,17.1c0,.713.054,1.432.09,2.145a.147.147,0,1,0,.294,0c.126-2.828.2-5.651.365-8.473s.413-5.645.719-8.455a150.752,150.752,0,0,1,2.648-16.454,43.1,43.1,0,0,1,4.914-13.416,25.069,25.069,0,0,1,4.6-5.459c1.8-1.606,3.733-3,5.615-4.488a31.275,31.275,0,0,0,5.153-4.955,40.628,40.628,0,0,0,4.051-6.591c.3-.6.6-1.145.911-1.72C417.052,270.694,416.974,270.64,416.95,270.694Z" transform="translate(-346.387 -255.361)" fill="#263238"/>
      <path id="Path_97104" data-name="Path 97104" d="M430.974,273.8a42.733,42.733,0,0,1-2.834,4.961c0,.036.03.072.06.036a34.345,34.345,0,0,0,2.864-4.967C431.088,273.777,431,273.747,430.974,273.8Z" transform="translate(-362.61 -256.604)" fill="#263238"/>
      <path id="Path_97105" data-name="Path 97105" d="M318.78,311.64s-.2,18.084,10.612,23.309,16.61.869,23.968,2.619h0c-.282-.431-5.525-7.975-13.866-10.049C330.9,325.374,321.38,319.178,318.78,311.64Z" transform="translate(-318.78 -271.781)" fill="#ea914e"/>
      <path id="Path_97106" data-name="Path 97106" d="M318.78,311.64s-.2,18.084,10.612,23.309,16.61.869,23.968,2.619h0a40.8,40.8,0,0,0-12.29-3.631C334.227,333.11,321.195,328.669,318.78,311.64Z" transform="translate(-318.78 -271.781)" fill="#263238" opacity="0.1"/>
      <path id="Path_97107" data-name="Path 97107" d="M357.246,345.273a18.161,18.161,0,0,0-4.3-2.912c-.234-.114-.473-.2-.707-.306-.114-.144-.24-.282-.366-.413-.324-.336-.659-.659-1.019-.965a14.74,14.74,0,0,0-2.175-1.57c-1.8-1.055-3.751-1.8-5.585-2.768-.054-.03-.1.054-.048.078.9.473,1.8.989,2.667,1.5s1.732.977,2.565,1.516a18.61,18.61,0,0,1,2.139,1.606c.192.168.378.348.557.533a27.606,27.606,0,0,0-3.655-.971c-1.977-.4-3.979-.683-5.956-1.109a27.757,27.757,0,0,1-2.87-.773c-.9-.725-1.8-1.438-2.643-2.223a22.113,22.113,0,0,1-2.8-3.1c-.036-.054-.114,0-.078.048a33.289,33.289,0,0,0,4.434,4.89q-.7-.264-1.384-.6a22.315,22.315,0,0,1-9.216-7.664c-.03-.048-.114,0-.078.048a25.273,25.273,0,0,0,7.454,7.191,22.882,22.882,0,0,0,4.71,2.229,44.433,44.433,0,0,0,5.854,1.384,40.9,40.9,0,0,1,5.734,1.36,17.489,17.489,0,0,1,4.794,2.529,22.478,22.478,0,0,1,6.477,8.035,40.951,40.951,0,0,1,3.6,13.225c0,.192.324.192.306,0C365.143,358.461,363.112,350.552,357.246,345.273Z" transform="translate(-321.964 -279.162)" fill="#263238"/>
      <path id="Path_97108" data-name="Path 97108" d="M353.4,342.783a6.209,6.209,0,0,0-2.223-2.019,8.106,8.106,0,0,1-2.643-2.187c-.036-.048-.12,0-.084.048a8.946,8.946,0,0,0,2.337,2.091,8.172,8.172,0,0,1,2.547,2.1C353.368,342.861,353.434,342.825,353.4,342.783Z" transform="translate(-330.669 -282.569)" fill="#263238"/>
      <path id="Path_97109" data-name="Path 97109" d="M366.3,377.73l.491,9.941,1.5,30.392h22.692l1.5-30.392.491-9.941Z" transform="translate(-337.825 -298.269)" fill="#37474f"/>
      <path id="Path_97110" data-name="Path 97110" d="M366.3,377.73l.491,9.941h25.7l.491-9.941Z" transform="translate(-337.825 -298.269)" fill="#263238"/>
      <rect id="Rectangle_10922" data-name="Rectangle 10922" width="29.871" height="9.485" transform="translate(56.751 84.794) rotate(180)" fill="#37474f"/>
    </g>
  </g>
</svg>
