<svg id="photo-camera_2_" data-name="photo-camera (2)" xmlns="http://www.w3.org/2000/svg" width="44.864" height="37.386" viewBox="0 0 44.864 37.386">
  <g id="Group_2528" data-name="Group 2528" transform="translate(0 0)">
    <g id="Group_2527" data-name="Group 2527" transform="translate(0 0)">
      <ellipse id="Ellipse_236" data-name="Ellipse 236" cx="9.347" cy="9.347" rx="9.347" ry="9.347" transform="translate(13.085 11.216)" fill="#ea914e"/>
      <path id="Path_2163" data-name="Path 2163" d="M41.125,48.275H35.2a2.789,2.789,0,0,1-1.983-.821L29.8,44.036a4.644,4.644,0,0,0-3.305-1.369H18.373a4.644,4.644,0,0,0-3.305,1.369L11.65,47.453a2.789,2.789,0,0,1-1.983.821H3.739A3.742,3.742,0,0,0,0,52.014v24.3a3.742,3.742,0,0,0,3.739,3.739H41.125a3.742,3.742,0,0,0,3.739-3.739v-24.3A3.742,3.742,0,0,0,41.125,48.275ZM22.432,74.445A11.216,11.216,0,1,1,33.648,63.23,11.228,11.228,0,0,1,22.432,74.445ZM37.387,57.622a1.869,1.869,0,1,1,1.869-1.869A1.872,1.872,0,0,1,37.387,57.622Z" transform="translate(0 -42.667)" fill="#ea914e"/>
    </g>
  </g>
</svg>
