<svg id="star" xmlns="http://www.w3.org/2000/svg" width="48" height="48" viewBox="0 0 48 48">
  <path id="Vector" d="M25.8,3.166l3.872,7.778a4.782,4.782,0,0,0,3.124,2.32l7.018,1.171c4.488.751,5.544,4.022,2.31,7.248l-5.456,5.48a4.813,4.813,0,0,0-1.144,4l1.562,6.784c1.232,5.37-1.606,7.447-6.336,4.641l-6.578-3.911a4.737,4.737,0,0,0-4.356,0l-6.578,3.911c-4.708,2.806-7.568.707-6.336-4.641l1.562-6.784a4.813,4.813,0,0,0-1.144-4l-5.456-5.48c-3.212-3.226-2.178-6.5,2.31-7.248l7.018-1.171a4.793,4.793,0,0,0,3.1-2.32l3.872-7.778C20.28-1.055,23.712-1.055,25.8,3.166Z" transform="translate(2.001 2.077)" fill="none" stroke="#ea914e" stroke-linecap="round" stroke-linejoin="round" stroke-width="1.5"/>
  <path id="Vector-2" data-name="Vector" d="M0,0H48V48H0Z" fill="none" opacity="0"/>
</svg>
