<svg id="vuesax_bold_home-2" data-name="vuesax/bold/home-2" xmlns="http://www.w3.org/2000/svg" width="24" height="24" viewBox="0 0 24 24">
  <g id="home-2">
    <g id="Vector" transform="translate(1.99 2.002)" fill="none">
      <path d="M18.05,4.818,12.29.788A4.853,4.853,0,0,0,6.8.918L1.79,4.828A5.153,5.153,0,0,0,0,8.468v6.9A4.631,4.631,0,0,0,4.62,20H15.4a4.622,4.622,0,0,0,4.62-4.62V8.6A5.1,5.1,0,0,0,18.05,4.818ZM10.76,16a.75.75,0,0,1-1.5,0V13a.75.75,0,0,1,1.5,0Z" stroke="none"/>
      <path d="M 9.646349906921387 0 L 9.646349906921387 1 C 8.80757999420166 1 7.993370056152344 1.258140563964844 7.415249824523926 1.706069946289062 L 2.405029296875 5.616240501403809 C 1.643430709838867 6.210300445556641 1 7.516119956970215 1 8.467740058898926 L 1 15.36774063110352 C 1 17.36932945251465 2.623929977416992 18.99773979187012 4.619999885559082 18.99773979187012 L 15.39999961853027 18.99773979187012 C 17.39607048034668 18.99773979187012 19.02000045776367 17.37380981445312 19.02000045776367 15.37773990631104 L 19.02000045776367 8.597740173339844 C 19.02000045776367 7.578490257263184 18.31318092346191 6.222620010375977 17.47673034667969 5.637109756469727 L 11.71619033813477 1.606729507446289 C 11.157790184021 1.215490341186523 10.42273044586182 1.000020980834961 9.646430015563965 1 L 9.646349906921387 0 M 10.01000022888184 17.74773979187012 C 9.045050621032715 17.74773979187012 8.260000228881836 16.96269035339355 8.260000228881836 15.99773979187012 L 8.260000228881836 12.99773979187012 C 8.260000228881836 12.032790184021 9.045050621032715 11.24773979187012 10.01000022888184 11.24773979187012 C 10.97494983673096 11.24773979187012 11.76000022888184 12.032790184021 11.76000022888184 12.99773979187012 L 11.76000022888184 15.99773979187012 C 11.76000022888184 16.96269035339355 10.97494983673096 17.74773979187012 10.01000022888184 17.74773979187012 M 9.646448135375977 0 C 10.5928373336792 2.09808349609375e-05 11.53786849975586 0.2607688903808594 12.29000091552734 0.7877407073974609 L 18.04999923706055 4.817740440368652 C 19.14999961853027 5.587739944458008 20.02000045776367 7.247739791870117 20.02000045776367 8.597740173339844 L 20.02000045776367 15.37773990631104 C 20.02000045776367 17.9277400970459 17.95000076293945 19.99773979187012 15.39999961853027 19.99773979187012 L 4.619999885559082 19.99773979187012 C 2.069999694824219 19.99773979187012 0 17.91773986816406 0 15.36774063110352 L 0 8.467740058898926 C 0 7.20773983001709 0.7900009155273438 5.60774040222168 1.790000915527344 4.827739715576172 L 6.800000190734863 0.9177398681640625 C 7.586611747741699 0.3082466125488281 8.617343902587891 -2.288818359375e-05 9.646448135375977 0 Z M 10.01000022888184 16.74773979187012 C 10.42000007629395 16.74773979187012 10.76000022888184 16.40773963928223 10.76000022888184 15.99773979187012 L 10.76000022888184 12.99773979187012 C 10.76000022888184 12.58773994445801 10.42000007629395 12.24773979187012 10.01000022888184 12.24773979187012 C 9.600000381469727 12.24773979187012 9.260000228881836 12.58773994445801 9.260000228881836 12.99773979187012 L 9.260000228881836 15.99773979187012 C 9.260000228881836 16.40773963928223 9.600000381469727 16.74773979187012 10.01000022888184 16.74773979187012 Z" stroke="none" fill="#707070"/>
    </g>
    <path id="Vector-2" data-name="Vector" d="M0,0H24V24H0Z" transform="translate(24 24) rotate(180)" fill="none" opacity="0"/>
  </g>
</svg>
